<svg xmlns="http://www.w3.org/2000/svg" xmlns:xlink="http://www.w3.org/1999/xlink" width="236" height="30" viewBox="0 0 236 30">
    <defs>
        <path id="a" d="M0 30h234.94V.322H0z"/>
    </defs>
    <g fill="none" fill-rule="evenodd">
        <path fill="#FD5750" d="M20.718 0L18.69 6.04H37V0H20.718zM0 0v6.04h12.235L14.264 0H0zm16.861 11.48l-2.029 6.04H37v-6.04H16.861zM0 11.48v6.04h8.378l2.028-6.04H0zm13.003 11.481L10.975 29H37v-6.039H13.003zM0 22.961V29h4.52l2.03-6.039H0z"/>
        <path fill="#FFF" d="M79.22 11.213c.055-.21.613-2.415 2.784-2.415h3.726v2.694h-4.128c-1.02 0-2.217.86-2.217 2.267l-.012 7.597h-2.73V8.879c.845 0 1.616-.003 2.525-.003l.052 2.337zM71.408 13.9s.12-2.956-3.323-2.956c-3.114 0-3.476 2.956-3.476 2.956h6.8zm-3.324-5.33c5.85 0 5.85 5.984 5.85 5.984v1.602H64.64c0 1.52 1.322 3.157 3.771 3.157 2.046 0 4.169-.832 4.169-.832l.677 2.14s-2.608 1.049-5.064 1.049c-5.851 0-6.289-5.23-6.289-6.645 0-1.415.989-6.454 6.18-6.454zm42.586 5.33s.12-2.956-3.323-2.956c-3.114 0-3.477 2.956-3.477 2.956h6.8zm-3.324-5.33c5.85 0 5.85 5.984 5.85 5.984v1.602h-9.294c0 1.52 1.321 3.157 3.77 3.157 2.047 0 4.17-.832 4.17-.832l.677 2.14s-2.608 1.049-5.064 1.049c-5.852 0-6.288-5.23-6.288-6.645 0-1.415.988-6.454 6.179-6.454zm38.871 5.33s.12-2.956-3.323-2.956c-3.114 0-3.477 2.956-3.477 2.956h6.8zm-3.324-5.33c5.85 0 5.85 5.984 5.85 5.984v1.602h-9.294c0 1.52 1.32 3.157 3.77 3.157 2.047 0 4.17-.832 4.17-.832l.676 2.14s-2.608 1.049-5.064 1.049c-5.851 0-6.287-5.23-6.287-6.645 0-1.415.988-6.454 6.18-6.454zm-88.22 5.206c1.993.236 5.003.593 5.165 3.682.077 1.45-.497 2.358-.99 2.865-1.274 1.302-3.295 1.388-4.704 1.339-2.752-.097-5.117-1.252-5.216-1.301l1.146-2.343c.018.008 1.854 1 4.03 1.165 3.256.247 3.281-1.042 3.253-1.588-.04-.724-.689-.954-2.988-1.226-2.044-.242-5.134-.608-5.208-3.857-.024-1.003.327-1.895 1.016-2.578.92-.914 2.424-1.405 4.128-1.345 2.603.09 4.844.785 4.938.814l-.772 2.493c-.02-.006-2.014-.62-4.257-.697-.947-.034-1.816.198-2.21.592-.178.175-.253.379-.247.661.018.76.402 1.027 2.916 1.324zm120.65 3.681c.077 1.452-.497 2.36-.991 2.866-1.274 1.303-3.295 1.388-4.704 1.339-2.75-.097-5.116-1.252-5.215-1.3l1.058-2.165c.017.008 1.941.822 4.117.986 3.256.247 3.281-1.042 3.253-1.588-.038-.724-.688-.953-2.987-1.225-2.044-.243-5.135-.609-5.209-3.858-.024-1.003.328-1.895 1.017-2.578.92-.915 2.424-1.405 4.128-1.345 2.603.09 4.843.785 4.937.814l-.771 2.493c-.021-.005-2.013-.697-4.257-.697-1.978 0-2.458.634-2.458 1.253 0 .76.403 1.026 2.916 1.324 1.994.236 5.004.593 5.165 3.681zm-18.447-3.68c1.994.235 5.004.592 5.165 3.68.078 1.452-.497 2.36-.99 2.866-1.273 1.302-3.295 1.388-4.704 1.339-2.751-.097-5.116-1.252-5.215-1.301l1.146-2.343c.017.008 1.854 1 4.029 1.165 3.256.247 3.281-1.042 3.253-1.588-.039-.724-.688-.954-2.987-1.226-2.044-.242-5.135-.608-5.209-3.857-.024-1.003.328-1.895 1.017-2.578.92-.914 2.424-1.405 4.127-1.345 2.604.09 4.844.785 4.938.814l-.772 2.493c-.02-.006-2.013-.62-4.256-.697-.947-.034-1.816.198-2.212.592-.176.175-.251.379-.246.661.019.76.402 1.027 2.916 1.324zm-38.294-2.564c.055-.21.613-2.415 2.785-2.415h3.724v2.694h-4.127c-1.02 0-2.216.86-2.216 2.267l-.012 7.597h-2.73V8.879c.844 0 1.615-.003 2.524-.003l.052 2.337zm12.694-8.55v16.274h3.744v2.419h-6.396V4.912h-2.643v-2.25h5.295zM93.888 18.66l3.209-9.75c.944 0 1.84.01 2.71.01l-4.274 12.436H92.16L88.129 8.91h2.815l2.944 9.749z"/>
        <path fill="#8C8C8C" d="M193.468 9.814c-3.059 0-4.737 2.367-4.737 5.306 0 2.91 1.678 5.305 4.737 5.305 3.032 0 4.737-2.394 4.737-5.305 0-2.939-1.705-5.306-4.737-5.306m0 11.89c-1.895 0-3.627-.816-4.683-2.666v2.394h-1.407V2.658h1.407v8.571c1.218-1.905 2.923-2.64 4.737-2.64 3.736 0 6.172 2.776 6.172 6.53 0 3.728-2.436 6.585-6.226 6.585"/>
        <mask id="b" fill="#fff">
            <use xlink:href="#a"/>
        </mask>
        <path fill="#8C8C8C" d="M202.943 21.432h1.408V2.658h-1.408zM214.015 9.814c-3.032 0-4.926 2.367-4.926 5.306 0 2.91 1.894 5.305 4.926 5.305 3.059 0 4.954-2.394 4.954-5.305 0-2.939-1.895-5.306-4.954-5.306m0 11.89c-3.573 0-6.415-2.72-6.415-6.53s2.842-6.584 6.415-6.584c3.6 0 6.442 2.775 6.442 6.584 0 3.81-2.842 6.53-6.442 6.53M228.85 9.841c-3.113 0-4.737 2.286-4.737 5.142 0 2.857 1.624 5.17 4.737 5.17s4.737-2.313 4.737-5.17c0-2.856-1.624-5.142-4.737-5.142zm6.09 8.87c0 2.857-.351 4.354-1.028 5.442s-2.166 2.72-5.414 2.72c-3.248 0-5.278-1.904-5.278-1.904l.812-1.088c.676.68 2.571 1.714 4.601 1.714s3.249-.898 3.79-1.633c.541-.762 1.083-2.122 1.083-4.299v-.925c-.92 1.633-2.49 2.694-4.737 2.694-3.302 0-6.145-2.476-6.145-6.421 0-3.945 2.843-6.421 6.145-6.421 2.246 0 3.898 1.115 4.737 2.611V8.807h1.434v9.904z" mask="url(#b)"/>
    </g>
</svg>
