<svg xmlns="http://www.w3.org/2000/svg" width="50" height="31" viewBox="0 0 50 31">
    <path fill="#FFF" fill-rule="evenodd" d="M42.015 15.78c-.863 0-1.727-.099-2.558-.298-.83-.2-1.478-.416-1.91-.665-.266-.15-.449-.315-.515-.465-.066-.15-.1-.316-.1-.465v-.847c0-.349.133-.515.382-.515.1 0 .2.016.3.05.1.033.248.1.415.166.564.249 1.18.448 1.827.581.664.133 1.312.2 1.976.2 1.047 0 1.861-.183 2.426-.548.565-.366.864-.898.864-1.579 0-.465-.15-.847-.449-1.162-.299-.316-.864-.599-1.678-.864l-2.408-.748c-1.213-.382-2.11-.947-2.658-1.694-.548-.731-.83-1.545-.83-2.409 0-.697.149-1.312.448-1.843a4.27 4.27 0 0 1 1.196-1.363A5.275 5.275 0 0 1 40.47.448a7.24 7.24 0 0 1 2.094-.282c.365 0 .747.017 1.112.066.383.05.731.117 1.08.183.332.083.648.166.947.266.299.1.531.2.698.299.232.133.398.266.498.415.1.133.15.316.15.548v.781c0 .349-.133.532-.383.532-.133 0-.348-.067-.63-.2-.948-.431-2.01-.647-3.19-.647-.947 0-1.694.15-2.21.465-.514.315-.78.797-.78 1.478 0 .465.166.864.498 1.18.332.315.947.63 1.827.913l2.36.748c1.195.382 2.06.913 2.574 1.594.515.681.764 1.462.764 2.326a4.27 4.27 0 0 1-.432 1.927 4.467 4.467 0 0 1-1.213 1.462c-.514.415-1.129.714-1.843.93a7.894 7.894 0 0 1-2.376.349zm-21.345-.448c-.3 0-.499-.05-.632-.166-.132-.1-.249-.332-.348-.648l-3.904-12.84c-.1-.332-.15-.548-.15-.665 0-.266.133-.415.4-.415h1.627c.316 0 .532.05.648.166.133.1.232.332.332.648l2.791 10.997 2.591-10.997c.083-.332.183-.548.316-.648.133-.1.365-.166.664-.166h1.33c.315 0 .53.05.664.166.132.1.249.332.315.648l2.625 11.13 2.874-11.13c.1-.332.216-.548.332-.648.133-.1.349-.166.648-.166h1.545c.265 0 .415.133.415.415 0 .083-.017.167-.033.266-.017.1-.05.233-.117.415L31.6 14.534c-.1.333-.216.549-.349.649-.133.1-.349.166-.631.166H29.19c-.315 0-.531-.05-.664-.166-.133-.117-.25-.333-.316-.665L25.636 3.804l-2.558 10.698c-.083.332-.182.548-.315.664-.133.116-.366.166-.665.166H20.67zM7.33 13.538c.549 0 1.114-.1 1.712-.299.598-.2 1.13-.565 1.578-1.063.266-.316.465-.664.565-1.063.1-.399.166-.88.166-1.445V8.97a13.872 13.872 0 0 0-1.528-.282c-.532-.067-1.047-.1-1.562-.1-1.113 0-1.927.216-2.475.664-.548.449-.814 1.08-.814 1.91 0 .781.2 1.363.615 1.762.398.415.98.614 1.744.614zm6.745-2.525c0 .615.066 1.113.183 1.479.133.365.299.764.531 1.196a.722.722 0 0 1 .117.382c0 .166-.1.332-.316.498l-1.046.698c-.15.1-.3.15-.432.15-.167 0-.333-.084-.499-.233a5.15 5.15 0 0 1-.598-.781 12.828 12.828 0 0 1-.515-.98c-1.295 1.528-2.923 2.292-4.883 2.292-1.396 0-2.509-.398-3.323-1.196-.814-.797-1.229-1.86-1.229-3.19 0-1.411.498-2.557 1.512-3.42C4.59 7.042 5.935 6.61 7.647 6.61c.564 0 1.146.05 1.76.133.615.083 1.246.216 1.91.366V5.897c0-1.263-.265-2.143-.78-2.658-.532-.515-1.429-.764-2.708-.764-.581 0-1.18.066-1.794.216-.614.15-1.212.332-1.794.565a4.807 4.807 0 0 1-.581.216c-.117.033-.2.05-.266.05-.232 0-.349-.167-.349-.515v-.814c0-.266.034-.465.117-.582.083-.116.232-.232.465-.348.58-.3 1.279-.549 2.093-.748A10.065 10.065 0 0 1 8.31.199c1.977 0 3.422.449 4.352 1.346.914.897 1.379 2.259 1.379 4.086v5.382h.033zm31.08 12.84c-5.465 4.037-13.405 6.18-20.233 6.18-9.568 0-18.19-3.538-24.7-9.418-.516-.465-.05-1.097.564-.731 7.043 4.086 15.73 6.561 24.718 6.561 6.063 0 12.724-1.262 18.853-3.854.914-.415 1.695.598.798 1.263zm2.276-2.59c-.698-.897-4.618-.433-6.396-.217-.531.067-.614-.398-.133-.747 3.123-2.193 8.256-1.561 8.854-.83.598.747-.166 5.88-3.09 8.338-.448.382-.88.183-.68-.315.664-1.645 2.142-5.349 1.445-6.23z"/>
</svg>
