<svg xmlns="http://www.w3.org/2000/svg" width="200" height="25" viewBox="0 0 200 25">
    <path fill="#FFF" fill-rule="evenodd" d="M7.739 24.88c-.507 0-.978-.272-1.23-.712L.187 13.146a1.424 1.424 0 0 1 0-1.411l1.949-3.397 7.14 12.41h8.35l-2.377 4.133h-7.51zm8.726 0l2.53-4.396 4.63-8.044-4.175-7.253h4.728l3.756 6.548c.25.435.25.975 0 1.41l-6.322 11.023c-.252.44-.723.713-1.23.713h-3.917zM2.743 7.28L6.51.712C6.76.272 7.232 0 7.739 0h12.644c.506 0 .977.273 1.23.712l1.96 3.42H9.277l-4.172 7.25L2.743 7.28zm7.169 12.374L5.76 12.44l4.15-7.212h8.3l4.15 7.212-4.15 7.213H9.911zM14.06 8.875a3.57 3.57 0 0 0-3.566 3.565 3.57 3.57 0 0 0 3.566 3.566 3.57 3.57 0 0 0 3.565-3.566 3.57 3.57 0 0 0-3.565-3.565zm79.758 3.905c0-3.612 2.73-6.342 6.308-6.342 1.831 0 3.375.729 4.46 1.984l-1.085 1.051c-.848-1.051-1.984-1.543-3.375-1.543-2.56 0-4.714 1.865-4.714 4.85 0 2.984 2.154 4.85 4.714 4.85 1.527 0 2.815-.713 3.731-1.764l1.085 1.085c-1.068 1.272-2.781 2.17-4.816 2.17-3.578 0-6.308-2.73-6.308-6.341zm12.344 6.07V6.71h1.56V18.85h-1.56zm11.277-4.155c0 2.527-1.78 4.426-4.273 4.426-2.493 0-4.274-1.899-4.274-4.426 0-2.526 1.78-4.425 4.274-4.425 2.492 0 4.273 1.9 4.273 4.425zm-1.56 0c0-1.899-1.323-3-2.713-3-1.391 0-2.714 1.101-2.714 3 0 1.9 1.323 3.002 2.714 3.002 1.39 0 2.713-1.102 2.713-3.002zm8.613 4.155v-1.153h-.068c-.457.764-1.492 1.424-2.628 1.424-2.136 0-3.17-1.44-3.17-3.492V10.54h1.56v4.833c0 1.73.864 2.323 2.051 2.323 1.357 0 2.187-1.305 2.187-2.577V10.54h1.56v8.31h-1.492zm2.747-4.155c0-2.543 1.848-4.425 3.951-4.425 1.323 0 2.357.661 2.832 1.424h.068l-.068-1.153V6.71h1.56V18.85h-1.492v-1.153h-.068c-.475.764-1.51 1.424-2.832 1.424-2.103 0-3.951-1.882-3.951-4.426zm6.85 0c0-1.899-1.254-3-2.644-3-1.391 0-2.646 1.136-2.646 3 0 1.866 1.255 3.002 2.646 3.002 1.39 0 2.645-1.102 2.645-3.002zm5.748 4.155V6.71h4.138c2.018 0 3.798 1.492 3.798 3.612s-1.78 3.612-3.798 3.612h-2.577v4.917h-1.561zm4.172-6.41c1.39 0 2.17-1.153 2.17-2.12 0-.966-.78-2.119-2.17-2.119h-2.611v4.24h2.61zm4.866 6.41V6.71h1.56V18.85h-1.56zm2.9-2.51c0-1.882 1.695-2.899 3.645-2.899 1.12 0 1.933.322 2.256.509v-.238c0-1.255-1-2.018-2.171-2.018-.865 0-1.696.424-1.984 1.204l-1.424-.61c.288-.764 1.288-2.018 3.374-2.018 2.035 0 3.697 1.22 3.697 3.56v5.02h-1.492v-1.153h-.068c-.458.695-1.306 1.424-2.73 1.424-1.696 0-3.104-1.05-3.104-2.78zm5.9-1.067s-.66-.543-1.984-.543c-1.644 0-2.289.882-2.289 1.644 0 .882.916 1.323 1.73 1.323 1.238 0 2.544-1.068 2.544-2.424zm3.748 1.05v-4.358h-1.459v-1.424h1.459V7.997h1.56v2.544h2.035v1.424h-2.035v4.24c0 .932.39 1.356 1.12 1.356.287 0 .49-.033.711-.135l.542 1.34c-.356.152-.728.22-1.254.22-1.747 0-2.68-.967-2.68-2.663zm10.14-9.461l-.543 1.34c-.204-.103-.424-.136-.712-.136-.78 0-1.39.457-1.39 1.424v1.051h2.17v1.424h-2.17v6.885h-1.561v-6.885h-1.56v-1.424h1.56V9.44c0-1.696 1.204-2.798 2.95-2.798.526 0 .9.068 1.255.22zm8.495 7.833c0 2.527-1.78 4.426-4.273 4.426-2.493 0-4.274-1.899-4.274-4.426 0-2.526 1.78-4.425 4.274-4.425 2.492 0 4.273 1.9 4.273 4.425zm-1.56 0c0-1.899-1.323-3-2.713-3-1.391 0-2.714 1.101-2.714 3 0 1.9 1.323 3.002 2.714 3.002 1.39 0 2.713-1.102 2.713-3.002zm2.814 4.155v-8.309h1.493v1.357h.067c.34-.95 1.543-1.56 2.408-1.56.509 0 .848.068 1.17.203L185.857 12c-.22-.085-.491-.119-.83-.119-1.069 0-2.154.899-2.154 2.425v4.544h-1.56zm5.986-8.309h1.492v1.153h.068c.474-.797 1.577-1.424 2.56-1.424 1.34 0 2.205.61 2.628 1.594a3.38 3.38 0 0 1 2.9-1.594c2.035 0 2.968 1.441 2.968 3.493v5.087h-1.56V14c0-1.73-.662-2.306-1.848-2.306-1.272 0-2.12 1.29-2.12 2.56v4.596h-1.56V14c0-1.73-.662-2.306-1.849-2.306-1.272 0-2.12 1.29-2.12 2.56v4.596h-1.56v-8.309zM35.014 12.17c0-3.832 3.221-6.952 7.054-6.952 2.12 0 3.629.83 4.765 1.916l-1.34 1.34c-.814-.764-1.916-1.357-3.425-1.357-2.798 0-4.986 2.255-4.986 5.053s2.188 5.053 4.986 5.053c1.814 0 2.849-.729 3.51-1.39.543-.543.899-1.323 1.034-2.391h-4.544v-1.9h6.393c.067.34.101.747.101 1.188 0 1.424-.39 3.188-1.645 4.443-1.22 1.271-2.78 1.95-4.85 1.95-3.832 0-7.053-3.12-7.053-6.953zm18.715-2c2.476 0 4.493 1.882 4.493 4.476 0 2.577-2.017 4.476-4.493 4.476-2.476 0-4.494-1.899-4.494-4.476 0-2.594 2.018-4.477 4.494-4.477zm0 7.189c1.356 0 2.526-1.12 2.526-2.713 0-1.611-1.17-2.713-2.526-2.713-1.357 0-2.527 1.102-2.527 2.713 0 1.594 1.17 2.713 2.527 2.713zm9.803-7.19c2.475 0 4.493 1.883 4.493 4.477 0 2.577-2.018 4.476-4.493 4.476-2.476 0-4.494-1.899-4.494-4.476 0-2.594 2.018-4.477 4.494-4.477zm0 7.19c1.356 0 2.526-1.12 2.526-2.713 0-1.611-1.17-2.713-2.526-2.713-1.357 0-2.527 1.102-2.527 2.713 0 1.594 1.17 2.713 2.527 2.713zm12.032-6.919h1.865v8.038c0 3.307-1.95 4.663-4.256 4.663-2.17 0-3.476-1.458-3.968-2.645l1.713-.712c.305.73 1.051 1.594 2.255 1.594 1.476 0 2.391-.916 2.391-2.628v-.645h-.067c-.441.543-1.29 1.017-2.358 1.017-2.238 0-4.29-1.95-4.29-4.46 0-2.526 2.052-4.493 4.29-4.493 1.069 0 1.917.475 2.358 1h.067v-.729zm-2.255 6.919c1.34 0 2.391-1.136 2.391-2.696 0-1.577-1.051-2.73-2.391-2.73-1.357 0-2.493 1.153-2.493 2.73 0 1.56 1.136 2.696 2.493 2.696zm5.477 1.492V5.692h1.967V18.85h-1.967zm7.36-1.492c1 0 1.695-.492 2.204-1.238l1.526 1.018c-.491.729-1.679 1.984-3.73 1.984-2.544 0-4.443-1.967-4.443-4.477 0-2.662 1.916-4.477 4.222-4.477 2.323 0 3.46 1.849 3.833 2.849l.203.509-5.986 2.476c.458.898 1.17 1.356 2.17 1.356zm-.153-5.46c-1 0-2.391.882-2.34 2.611l4.002-1.662c-.22-.56-.882-.95-1.662-.95z"/>
</svg>
