<svg xmlns="http://www.w3.org/2000/svg" width="140" height="33" viewBox="0 0 140 33">
    <path fill="#FFF" fill-rule="nonzero" d="M46.143 27.115v-1.411h1.977V14.449h-1.977v-1.411h5.647v1.411h-1.976v11.255h1.976v1.411h-5.647zm8.733-14.077h5.789c2.319 0 3.75 1.432 3.75 3.63 0 2.097-1.35 2.844-2.278 2.985v.12c1.008.061 2.763.929 2.763 3.268 0 2.32-1.553 4.074-3.63 4.074h-6.394V13.038zm1.694 6.09h3.893c1.331 0 2.138-.705 2.138-1.956v-.686c0-1.25-.807-1.956-2.138-1.956H56.57v4.598zm0 6.495h4.175c1.452 0 2.34-.766 2.34-2.178v-.686c0-1.412-.888-2.178-2.34-2.178H56.57v5.042zm22.428-10.367h-.1l-1.19 2.36-3.369 6.131-3.348-6.131-1.19-2.34h-.1v11.84h-1.655V13.037h2.22l4.033 7.583h.08l4.054-7.583h2.22v14.077h-1.655V15.256zm8.49 4.921c0-4.76 2.441-7.382 6.233-7.382 2.582 0 4.236 1.05 5.264 3.308l-2.642 1.372c-.363-1.17-1.11-1.957-2.622-1.957-1.795 0-2.985 1.21-2.985 3.43v2.258c0 2.218 1.19 3.429 2.985 3.429 1.513 0 2.38-.948 2.804-2.098l2.5 1.452c-1.048 2.138-2.722 3.368-5.304 3.368-3.792 0-6.232-2.42-6.232-7.18zm16.479 6.938c-2.037 0-2.965-1.028-2.965-2.904v-12.02h2.985v12.605h1.331v2.32h-1.351zm2.48-5.304c0-3.409 1.856-5.526 4.962-5.526s4.962 2.117 4.962 5.526-1.856 5.546-4.962 5.546-4.961-2.137-4.961-5.546zm6.818 1.09v-2.159c0-1.331-.686-2.098-1.856-2.098s-1.855.767-1.855 2.098V22.9c0 1.331.685 2.098 1.855 2.098s1.856-.767 1.856-2.098zm11.476 2.44h-.101c-.363 1.069-1.23 2.016-2.965 2.016-2.158 0-3.308-1.512-3.308-4.175v-6.655h2.985v6.393c0 1.291.424 2.017 1.513 2.017.928 0 1.876-.524 1.876-1.533v-6.877h2.984v10.588h-2.984v-1.774zM27.32 13.472a11.171 11.171 0 0 0-1.081-1.253c-4.33-4.328-11.349-4.327-15.678.002-4.329 4.33-4.33 11.348-.002 15.678l-.983.982a12.46 12.46 0 0 1-3.503-10.745 6.663 6.663 0 0 0-4.596 6.291 6.668 6.668 0 0 0 6.62 6.719H27.287a8.142 8.142 0 0 0 6.072-13.57l1.036-.926a9.532 9.532 0 0 1-7.102 15.886H8.09a8.059 8.059 0 0 1-8.004-8.119 8.05 8.05 0 0 1 6.324-7.812 12.42 12.42 0 0 1 3.168-5.366c4.872-4.871 12.77-4.873 17.642-.003a12.66 12.66 0 0 1 1.599 1.957l-.507.334a9.528 9.528 0 0 1 6.083 3.123l-1.036.926a8.142 8.142 0 0 0-14.21 5.368l-1.39-.01a9.532 9.532 0 0 1 9.56-9.462zm109.683 11.869h-.1c-.303 1.15-1.473 2.016-2.845 2.016-2.682 0-4.074-1.956-4.074-5.546 0-3.59 1.392-5.526 4.074-5.526 1.372 0 2.542.847 2.844 2.017h.101V12.19h2.985v14.925h-2.985v-1.774zm0-1.957v-3.126c0-.968-.827-1.553-1.956-1.553-1.13 0-1.957.867-1.957 2.198v1.836c0 1.33.827 2.198 1.957 2.198 1.13 0 1.956-.585 1.956-1.553zM4.976 13.004a.692.692 0 0 1-.347-.093l-3.284-1.896a.722.722 0 0 1-.341-.856.696.696 0 0 1 1.002-.367l3.283 1.895c.336.185.469.6.303.945a.695.695 0 0 1-.616.372zm5.674-5.673a.695.695 0 0 1-.603-.347L8.152 3.7a.722.722 0 0 1 .132-.912.696.696 0 0 1 1.052.183l1.894 3.28a.724.724 0 0 1-.183.955.694.694 0 0 1-.397.125zm7.054-2.817V.774a.726.726 0 0 1 .663-.74.695.695 0 0 1 .727.694V4.56a.695.695 0 0 1-.727.695.726.726 0 0 1-.663-.74zm8.444 2.817a.693.693 0 0 1-.396-.124.725.725 0 0 1-.184-.956l1.894-3.28a.696.696 0 0 1 1.052-.183.722.722 0 0 1 .132.912L26.75 6.984a.695.695 0 0 1-.602.347zm5.674 5.673a.695.695 0 0 1-.616-.372.721.721 0 0 1 .302-.945l3.255-1.878a.718.718 0 0 1 .903.13.696.696 0 0 1-.18 1.057L32.17 12.91a.692.692 0 0 1-.347.093z"/>
</svg>
