<svg xmlns="http://www.w3.org/2000/svg" width="100" height="30" viewBox="0 0 100 30">
    <path fill="#FFF" fill-rule="evenodd" d="M17.594 15.458l5.503-11.083 14.107 24.646L9.3 28.729l17.982-2.042-9.689-11.229zM9.38 10.573L22.012 0 7.983 25.594 0 26.396 9.38 10.573zm59.569 4.854h1.79v6.055c0 2.232.909 3.348 2.725 3.348.88 0 1.6-.303 2.165-.91.57-.612.856-1.411.856-2.397v-6.096h1.802v10.58h-1.802v-1.673h-.043c-.747 1.281-1.905 1.922-3.472 1.922-2.68 0-4.021-1.502-4.021-4.505v-6.324zm-11.39 0h8.68v.486L59.58 24.56h6.592v1.447h-9.24v-.527l6.658-8.608h-6.032v-1.446zm29.767-.186c.469 0 .828.048 1.077.144v1.757c-.315-.227-.77-.341-1.363-.341-.769 0-1.413.341-1.933 1.023-.513.682-.77 1.612-.77 2.79v5.394h-1.801V15.427h1.802v2.18h.044c.256-.744.648-1.322 1.175-1.736a2.768 2.768 0 0 1 1.769-.63zm8.05-.062c1.472 0 2.61.448 3.417 1.343.805.896 1.208 2.139 1.208 3.73v.889h-7.943c.029 1.178.366 2.087 1.01 2.728.645.64 1.531.96 2.66.96 1.266 0 2.43-.392 3.493-1.177v1.591c-.989.676-2.296 1.013-3.922 1.013-1.59 0-2.838-.479-3.747-1.436-.908-.965-1.362-2.318-1.362-4.061 0-1.646.494-2.987 1.483-4.02.996-1.04 2.23-1.56 3.703-1.56zm-.033 1.426c-.85 0-1.571.286-2.165.857-.593.572-.96 1.32-1.098 2.243h6.075c-.007-.979-.26-1.74-.758-2.284-.49-.544-1.175-.816-2.054-.816zM47.75 11.19h1.911l6.065 14.818h-2.044l-1.67-4.154h-6.68l-1.57 4.154h-2.055L47.75 11.19zm.9 1.798c-.073.42-.157.751-.252.992l-2.45 6.314h5.46l-2.472-6.314c-.08-.206-.161-.537-.242-.992h-.044z"/>
</svg>
