<svg xmlns="http://www.w3.org/2000/svg" width="150" height="26" viewBox="0 0 150 26">
    <path fill="#FFF" fill-rule="evenodd" d="M26.168 15.568c.06.509-.06 1.018-.36 1.437l-6.317 7.815c-.33.45-.838.688-1.377.629H8.054a2.18 2.18 0 0 1-1.378-.629L.36 17.005c-.3-.419-.42-.928-.33-1.437l2.246-9.85c.12-.51.449-.899.898-1.108L12.305.208c.24-.06.51-.06.749-.06.24 0 .509.03.748.15l9.132 4.371c.45.24.809.63.958 1.108l2.276 9.791zm-3.743.659c.27 0 .51-.18.6-.42a.706.706 0 0 0-.54-.628c-.03 0-.06 0-.06-.03s-.06-.03-.12-.03c-.12-.03-.239-.03-.359-.03-.06 0-.12 0-.18-.03h-.03c-.329-.03-.688-.09-1.017-.18a.361.361 0 0 1-.21-.21l-.24-.06c.12-.867.06-1.766-.12-2.634a8.113 8.113 0 0 0-1.047-2.455l.18-.18v-.03c0-.09.03-.21.09-.269.269-.24.538-.42.838-.599l.18-.09c.12-.06.209-.12.329-.18.03-.03.06-.03.09-.06s0-.03 0-.06c.269-.209.329-.568.12-.838a.572.572 0 0 0-.42-.21c-.15 0-.3.06-.42.15l-.029.03c-.03.03-.06.06-.09.06-.09.09-.18.18-.24.27-.03.06-.09.09-.12.12-.209.24-.478.479-.748.658-.06.03-.12.06-.18.06-.03 0-.09 0-.12-.03h-.029l-.24.15c-.24-.24-.509-.48-.748-.719-1.108-.868-2.485-1.407-3.893-1.557l-.03-.24v.03c-.09-.059-.12-.149-.15-.239 0-.329 0-.659.06-1.018V4.7c0-.06.03-.12.03-.18.03-.12.03-.239.06-.359v-.18a.592.592 0 0 0-.508-.628c-.18-.03-.36.06-.51.21a.59.59 0 0 0-.18.419v.15c0 .12.03.24.06.359.03.06.03.12.03.18v.03c.06.329.06.658.06 1.017-.03.09-.06.18-.15.24v.06l-.029.24c-.33.03-.659.09-1.018.149a7.137 7.137 0 0 0-3.683 2.096l-.18-.12h-.03c-.03 0-.06.03-.12.03s-.119-.03-.179-.06a5.52 5.52 0 0 1-.748-.688c-.03-.06-.09-.09-.12-.12-.09-.09-.15-.18-.24-.27-.03-.03-.06-.03-.09-.06l-.03-.03a.715.715 0 0 0-.419-.15c-.18 0-.329.06-.419.21-.18.27-.12.63.12.839.03 0 .03.03.03.03s.06.06.09.06c.09.06.21.12.33.18l.179.089c.3.18.599.36.838.599.055.054.108.158.095.245l-.005-.006v.03a.138.138 0 0 0 .005-.024l.175.174c-.03.06-.06.09-.09.15-.928 1.467-1.318 3.203-1.048 4.91l-.24.06c0 .03-.03.03-.03.03-.03.09-.12.15-.21.21-.329.09-.658.15-1.017.18-.06 0-.12 0-.18.03-.12 0-.24.029-.36.029-.03 0-.059.03-.12.03-.029 0-.029 0-.059.03-.33.06-.539.36-.479.689.06.269.33.449.599.419.06 0 .09 0 .15-.03.03 0 .03 0 .03-.03s.09 0 .12 0c.12-.03.239-.09.329-.12.06-.03.12-.06.18-.06h.03c.329-.12.628-.21.987-.27h.03c.09 0 .18.03.24.09.03 0 .03.03.03.03l.27-.03a7.227 7.227 0 0 0 2.454 3.504c.27.21.51.389.809.539l-.15.21c0 .03.03.03.03.03.06.089.06.209.03.299-.12.299-.3.598-.48.868v.03c-.03.06-.059.09-.119.15s-.12.18-.21.299c-.03.03-.03.06-.06.09 0 0 0 .03-.03.03-.149.3-.03.658.24.808.06.03.15.06.21.06.24 0 .449-.15.569-.36 0 0 0-.03.03-.03 0-.03.03-.06.06-.089.03-.12.09-.21.12-.33l.06-.179c.089-.33.239-.629.388-.928.06-.09.15-.15.24-.18.03 0 .03 0 .03-.03l.12-.24c.838.33 1.706.48 2.605.48.539 0 1.077-.06 1.616-.21.33-.06.66-.18.959-.27l.12.21c.03 0 .03 0 .03.03.089.03.179.09.239.18.15.3.3.599.39.928v.03l.059.18c.03.12.06.24.12.33.03.029.03.059.06.089 0 0 0 .03.03.03.12.21.329.359.568.359.09 0 .15-.03.24-.06a.5.5 0 0 0 .27-.33c.03-.149.03-.299-.03-.448 0-.03-.03-.03-.03-.03 0-.03-.03-.06-.06-.09-.06-.12-.12-.21-.21-.3-.03-.06-.06-.09-.12-.15v-.06c-.21-.269-.36-.568-.479-.867a.355.355 0 0 1 .03-.3c0-.03.03-.03.03-.03l-.09-.24c1.527-.927 2.695-2.365 3.234-4.071l.24.03c.03 0 .03-.03.03-.03a.34.34 0 0 1 .239-.09h.03c.33.06.659.15.958.27h.03c.06.03.12.06.18.06.12.06.21.119.329.15.03 0 .06.029.12.029.03 0 .03 0 .06.03.06.03.09.03.15.03zm-10.809-4.97c-.09 0-.15-.03-.24-.06L8.893 9.43a5.945 5.945 0 0 1 2.784-1.527l.6-.12-.15 2.994c0 .27-.24.48-.51.48zm-1.137 3.832c.24 0 .479.15.509.39.03.089.03.209-.03.299L9.82 18.532a5.89 5.89 0 0 1-2.305-2.934l2.964-.509zm-.18-1.886c-.06.09-.12.12-.24.15l-2.904.838a6.304 6.304 0 0 1 .868-3.653l2.216 1.976c.21.18.24.48.06.689zm3.683-2.156a.272.272 0 0 1-.09-.21l-.18-3.024a5.633 5.633 0 0 1 3.384 1.617l-2.455 1.737c-.21.12-.51.09-.66-.12zm-1.767 3.204l-.21-.869.57-.718h.898l.569.718-.21.869-.808.389-.809-.39zm3.054.868c.09-.03.18-.06.27-.06l2.994.509c-.15.42-.33.808-.569 1.138a5.717 5.717 0 0 1-1.796 1.796L15 15.688c-.06-.24.06-.48.27-.569zm-2.066 1.258c.09.06.15.12.24.21l1.437 2.604c-.18.03-.36.06-.569.12-.419.09-.838.15-1.287.15a6.71 6.71 0 0 1-1.887-.3l1.468-2.665c.15-.18.389-.24.598-.12zm4.791-5.84c.33.54.569 1.139.719 1.767.15.63.18 1.258.12 1.887l-2.845-.809c-.27-.06-.42-.33-.36-.599.03-.09.06-.15.12-.21l2.246-2.035zm19.612 3.354c.329-.359.628-.718.988-1.078.329-.389.658-.748.988-1.107.329-.39.628-.719.898-1.048.27-.33.539-.63.748-.869h3.833c-.779.869-1.527 1.737-2.246 2.545-.748.809-1.527 1.647-2.395 2.486.48.449.928.898 1.347 1.407.45.539.899 1.078 1.348 1.676.419.57.838 1.168 1.197 1.737.36.569.66 1.108.899 1.587h-3.713c-.24-.39-.509-.779-.808-1.228-.3-.449-.63-.898-.929-1.377-.33-.449-.688-.898-1.078-1.317a7.123 7.123 0 0 0-1.077-1.048v5h-3.234V4.849l3.234-.509v9.551zm18.863 6.887c-.689.18-1.408.33-2.126.419-.899.15-1.827.21-2.725.21-.838.03-1.647-.12-2.425-.39a3.947 3.947 0 0 1-1.527-1.077 4.492 4.492 0 0 1-.809-1.707c-.18-.689-.24-1.437-.24-2.156V9.759h3.235v5.959c0 1.048.15 1.796.419 2.245.27.45.778.689 1.527.689.24 0 .479 0 .748-.03.27-.03.48-.03.689-.09V9.76h3.234v11.019zm13.653-5.27c0 .839-.12 1.677-.42 2.485a5.057 5.057 0 0 1-1.137 1.887c-.54.539-1.168.958-1.857 1.227-.808.3-1.646.42-2.515.42-.389 0-.808-.03-1.227-.06-.42-.03-.839-.09-1.258-.12-.389-.06-.778-.12-1.167-.21-.39-.06-.719-.15-.989-.27V4.85l3.234-.509v5.689c.36-.15.749-.27 1.138-.36.42-.09.838-.12 1.257-.12.749 0 1.468.12 2.156.45a4.35 4.35 0 0 1 1.557 1.198 5.12 5.12 0 0 1 .958 1.886c.18.748.27 1.587.27 2.425zm-3.294-.12c0-2.095-.778-3.114-2.305-3.114-.33 0-.659.03-.988.12-.27.06-.54.18-.779.33v5.868c.15.03.36.06.6.09.239.03.508.03.808.03.778.06 1.526-.27 2.006-.898.449-.719.688-1.557.658-2.426zm5.24.18c-.03-.898.15-1.797.45-2.635.269-.718.688-1.347 1.227-1.916.509-.51 1.078-.898 1.736-1.138a5.35 5.35 0 0 1 2.036-.39c1.617 0 2.905.51 3.833 1.498.928.988 1.407 2.455 1.407 4.342 0 .18 0 .389-.03.628-.03.24-.03.42-.03.6h-7.335c.06.628.389 1.227.928 1.586.658.42 1.437.629 2.215.599.57 0 1.168-.06 1.737-.15.479-.09.958-.24 1.407-.419l.45 2.635c-.21.12-.45.18-.69.27-.329.09-.658.179-.987.209-.36.06-.719.12-1.138.18-.39.03-.809.06-1.228.06a6.895 6.895 0 0 1-2.694-.45 5.27 5.27 0 0 1-1.887-1.227c-.509-.54-.868-1.198-1.108-1.887-.18-.808-.299-1.586-.299-2.395zm7.605-1.228c0-.269-.06-.538-.15-.808-.06-.27-.21-.479-.359-.689a2.05 2.05 0 0 0-.629-.509c-.3-.15-.598-.21-.928-.21-.33 0-.629.06-.928.21-.24.12-.479.27-.659.48-.18.21-.33.449-.419.718-.09.27-.15.539-.18.808h4.252zm12.486-1.706c-.3-.06-.63-.15-1.018-.21-.42-.09-.839-.12-1.258-.12-.24 0-.479.03-.748.06-.21.03-.42.06-.63.12v8.713h-3.233V10.358a15.77 15.77 0 0 1 2.036-.569c.869-.21 1.767-.3 2.635-.27.21 0 .42.03.629.03.24 0 .479.03.748.09.24.03.48.06.749.12.21.03.419.09.628.18l-.538 2.695zm2.275-2.485a24.25 24.25 0 0 1 2.126-.45c.898-.15 1.826-.21 2.725-.21.808-.029 1.616.12 2.395.39a3.42 3.42 0 0 1 1.527 1.048c.39.48.659 1.048.808 1.647.18.689.24 1.407.24 2.126v6.437h-3.204V15.12c0-1.048-.15-1.767-.419-2.216-.27-.419-.778-.658-1.527-.658-.24 0-.479 0-.749.03-.269 0-.479.03-.688.06v8.802h-3.234V10.15zm12.276 5.42c-.03-.9.15-1.798.45-2.636.269-.718.688-1.347 1.227-1.916.509-.51 1.078-.898 1.736-1.138a5.35 5.35 0 0 1 2.036-.39c1.617 0 2.905.51 3.833 1.498.928.988 1.407 2.455 1.407 4.371 0 .18 0 .39-.03.63-.03.239-.03.418-.03.598h-7.335c.06.629.389 1.228.928 1.587.658.42 1.437.629 2.215.599.57 0 1.168-.06 1.737-.15.479-.09.958-.24 1.437-.449l.45 2.635c-.21.12-.45.18-.69.27-.329.09-.658.179-.987.209-.36.06-.719.12-1.138.18-.39.03-.809.06-1.228.06a6.895 6.895 0 0 1-2.694-.45 5.27 5.27 0 0 1-1.887-1.227c-.509-.54-.868-1.198-1.108-1.887-.239-.808-.359-1.616-.329-2.395zm7.575-1.229c0-.269-.06-.538-.15-.808-.06-.27-.21-.479-.359-.689-.18-.21-.39-.389-.629-.509-.299-.15-.598-.21-.928-.21-.33 0-.629.06-.928.21-.24.12-.449.27-.629.48-.18.21-.329.449-.419.718-.09.27-.15.539-.18.808h4.222zm5.51-7.425l3.233-.509v3.353h3.892v2.695h-3.892v4.012c-.03.57.09 1.138.36 1.617.239.39.718.599 1.467.599.359 0 .718-.03 1.047-.09.36-.06.69-.15 1.018-.27l.45 2.516c-.42.18-.869.3-1.318.419-.569.12-1.167.18-1.766.18a5.417 5.417 0 0 1-2.186-.36 3.531 3.531 0 0 1-1.377-.988c-.36-.449-.6-.988-.749-1.557a7.585 7.585 0 0 1-.18-2.006V6.915zm8.772 8.653c-.03-.898.15-1.797.45-2.635.269-.718.688-1.347 1.227-1.916.51-.51 1.078-.898 1.737-1.138a5.349 5.349 0 0 1 2.036-.39c1.616 0 2.904.51 3.832 1.498.928.988 1.407 2.455 1.407 4.371 0 .18 0 .39-.03.63 0 .239-.03.418-.03.598h-7.305c.06.629.389 1.228.928 1.587.659.42 1.437.629 2.216.599.569 0 1.167-.06 1.736-.15.48-.09.958-.24 1.407-.449l.45 2.635c-.21.12-.45.18-.69.27-.328.09-.658.179-.987.209-.36.06-.719.12-1.138.18-.39.03-.808.06-1.227.06a6.896 6.896 0 0 1-2.695-.45 5.271 5.271 0 0 1-1.887-1.227c-.509-.54-.868-1.198-1.107-1.887a9.61 9.61 0 0 1-.33-2.395zm7.575-1.228c0-.269-.06-.538-.15-.808-.06-.27-.209-.479-.359-.689-.18-.21-.389-.389-.628-.509-.3-.15-.6-.21-.929-.21-.329 0-.628.06-.928.21-.24.12-.479.27-.658.48-.18.21-.33.449-.42.718-.09.27-.15.539-.18.808h4.252zm8.923 4.522c.42.03.868-.03 1.258-.18.24-.12.389-.39.359-.659-.03-.3-.21-.569-.48-.658a6.46 6.46 0 0 0-1.466-.66 11.88 11.88 0 0 1-1.378-.598c-.389-.18-.718-.42-1.048-.719a2.84 2.84 0 0 1-.658-1.018c-.18-.449-.24-.928-.24-1.407a3.107 3.107 0 0 1 1.198-2.545c.808-.629 1.886-.928 3.263-.928.66 0 1.348.06 2.006.21.51.09 1.019.21 1.527.389l-.569 2.545c-.419-.15-.808-.24-1.227-.36-.479-.12-.988-.15-1.467-.15-1.018 0-1.527.27-1.527.84 0 .119.03.239.06.358.06.12.15.21.27.3.119.09.299.18.508.3.21.12.51.239.869.359.598.21 1.197.478 1.736.778.42.21.778.48 1.078.838.27.27.45.6.569.988.12.42.18.839.18 1.258a2.873 2.873 0 0 1-1.288 2.575c-.838.569-2.036.868-3.593.868a9.09 9.09 0 0 1-2.545-.27c-.479-.119-.928-.269-1.377-.418l.539-2.635c.539.21 1.108.389 1.676.509.6.03 1.168.09 1.767.09z"/>
</svg>
