<svg xmlns="http://www.w3.org/2000/svg" width="800" height="100" viewBox="0 0 800 100">
    <defs>
        <linearGradient id="a" x1="50%" x2="50%" y1="0%" y2="100%">
            <stop offset="0%" stop-color="#FF9088" stop-opacity="0"/>
            <stop offset="100%" stop-color="#FD5750"/>
        </linearGradient>
    </defs>
    <g fill="none" fill-rule="evenodd">
        <path fill="#FD5750" fill-opacity=".02" stroke="url(#a)" d="M.5 23.5h383v99H.5z" transform="translate(0 -23)"/>
        <path fill="#FD5750" d="M92 59.533h7.458l-2.31 6.978H92v-6.978zm0-13.267h11.85l-2.31 6.978H92v-6.978zM92 33h16.244l-2.311 6.978H92V33zm23.594 0h18.541v6.978h-20.851l2.31-6.978zm-6.703 20.244l2.31-6.978h22.934v6.978h-25.244zm-2.083 6.289h27.327v6.978h-29.637l2.31-6.978z"/>
        <path fill="#000" d="M198.556 53.706l3.641-11.008c1.072 0 2.089.01 3.077.01l-4.85 14.042h-3.83l-4.575-14.052h3.195l3.342 11.008zm42.433-18.063V54.02h4.25v2.73h-7.26V38.183h-3v-2.54h6.01zm-14.407 9.654c.061-.238.696-2.727 3.16-2.727h4.227v3.043h-4.684c-1.157 0-2.515.97-2.515 2.559l-.014 8.578h-3.098V42.662c.958 0 1.834-.003 2.865-.003l.06 2.638zm43.46 2.895c2.263.266 5.68.669 5.863 4.157.088 1.638-.564 2.663-1.124 3.234-1.445 1.472-3.74 1.568-5.338 1.512-3.123-.108-5.807-1.413-5.92-1.468l1.3-2.646c.02.01 2.105 1.13 4.574 1.316 3.696.279 3.724-1.177 3.692-1.793-.044-.818-.781-1.077-3.39-1.384-2.32-.274-5.828-.687-5.912-4.356-.027-1.132.372-2.14 1.154-2.91 1.044-1.033 2.751-1.587 4.684-1.52 2.956.104 5.498.887 5.605.92l-.877 2.815c-.023-.007-2.285-.7-4.83-.788-1.075-.037-2.061.225-2.51.669-.201.198-.286.428-.28.746.021.86.457 1.16 3.31 1.496zm20.936 4.157c.088 1.638-.564 2.663-1.124 3.235-1.445 1.471-3.74 1.567-5.338 1.511-3.123-.109-5.807-1.413-5.92-1.468l1.201-2.444c.02.01 2.204.928 4.673 1.114 3.696.278 3.724-1.177 3.692-1.793-.044-.818-.781-1.077-3.39-1.384-2.32-.273-5.828-.687-5.912-4.356-.027-1.132.372-2.139 1.153-2.911 1.045-1.032 2.752-1.586 4.686-1.518a23.67 23.67 0 0 1 5.603.919l-.876 2.815c-.023-.006-2.283-.788-4.83-.788-2.245 0-2.79.716-2.79 1.415 0 .86.457 1.16 3.31 1.496 2.262.266 5.679.669 5.862 4.157zm-136.929-4.157c2.263.266 5.68.669 5.862 4.157.088 1.638-.563 2.663-1.124 3.234-1.445 1.472-3.739 1.568-5.338 1.512-3.123-.108-5.807-1.413-5.92-1.468l1.301-2.646c.02.01 2.104 1.13 4.574 1.316 3.695.279 3.724-1.177 3.691-1.793-.043-.818-.78-1.077-3.39-1.384-2.32-.274-5.827-.687-5.912-4.356-.026-1.132.372-2.14 1.154-2.91 1.045-1.033 2.751-1.587 4.685-1.52 2.955.104 5.498.887 5.604.92l-.876 2.815c-.023-.007-2.285-.7-4.83-.788-1.076-.037-2.062.225-2.51.669-.201.198-.286.428-.28.746.02.86.457 1.16 3.31 1.496zm100.124-5.878c6.639 0 6.639 6.757 6.639 6.757v1.808h-10.548c0 1.717 1.5 3.564 4.28 3.564 2.322 0 4.731-.939 4.731-.939l.768 2.416s-2.96 1.185-5.747 1.185c-6.64 0-7.136-5.905-7.136-7.503 0-1.598 1.121-7.288 7.013-7.288zm3.773 6.018s.135-3.338-3.772-3.338c-3.534 0-3.946 3.338-3.946 3.338h7.718zm-44.116-6.018c6.639 0 6.639 6.757 6.639 6.757v1.808H209.92c0 1.717 1.5 3.564 4.28 3.564 2.322 0 4.73-.939 4.73-.939l.77 2.416s-2.96 1.185-5.748 1.185c-6.641 0-7.136-5.905-7.136-7.503 0-1.598 1.12-7.288 7.013-7.288zm3.772 6.018s.136-3.338-3.772-3.338c-3.533 0-3.945 3.338-3.945 3.338h7.717zm-48.331-6.018c6.639 0 6.639 6.757 6.639 6.757v1.808h-10.548c0 1.717 1.5 3.564 4.28 3.564 2.322 0 4.73-.939 4.73-.939l.769 2.416s-2.96 1.185-5.747 1.185c-6.641 0-7.137-5.905-7.137-7.503 0-1.598 1.122-7.288 7.014-7.288zm3.772 6.018s.136-3.338-3.772-3.338c-3.533 0-3.945 3.338-3.945 3.338h7.717zm8.866-3.035c.062-.238.696-2.727 3.16-2.727h4.228v3.043h-4.685c-1.157 0-2.515.97-2.515 2.559l-.014 8.578h-3.098V42.662c.958 0 1.834-.003 2.865-.003l.06 2.638z"/>
        <path fill="#FD5750" fill-opacity=".02" stroke="url(#a)" d="M416.5 23.5h383v99h-383z" transform="translate(0 -23)"/>
        <path fill="#000" fill-rule="nonzero" d="M568.402 31.443v-2.648h-2.46v2.648h-1.196V25.09h1.238v2.664h2.459V25.09h1.237v6.353h-1.278zm5.737 0h-.983l-.09-.312a2.689 2.689 0 0 1-1.394.426c-.869 0-1.246-.573-1.246-1.36 0-.935.418-1.287 1.394-1.287h1.147v-.508c0-.509-.147-.689-.91-.689-.443.004-.885.05-1.32.14l-.163-.87a6.467 6.467 0 0 1 1.64-.213c1.5 0 1.942.509 1.942 1.64l-.017 3.033zm-1.172-1.73h-.885c-.393 0-.5.107-.5.45 0 .345.107.46.484.46.315-.005.624-.086.901-.238v-.672zm3.697 1.844a5.836 5.836 0 0 1-1.64-.262l.165-.877a5.55 5.55 0 0 0 1.418.197c.532 0 .606-.115.606-.46 0-.344-.057-.425-.82-.598-1.163-.27-1.303-.557-1.303-1.442 0-.885.402-1.353 1.77-1.353.483.002.964.057 1.435.164l-.115.91a8.738 8.738 0 0 0-1.311-.131c-.517 0-.607.115-.607.393 0 .279 0 .394.672.558 1.336.336 1.46.508 1.46 1.45 0 .943-.287 1.451-1.73 1.451zm5.475-.09V28.28c0-.246-.106-.37-.385-.37a3.393 3.393 0 0 0-1.246.37v3.164h-1.197V25l1.197.18v2.025a4.352 4.352 0 0 1 1.746-.443c.82 0 1.082.533 1.082 1.353v3.328l-1.197.024zm2.197-5.23V25.09h1.197v1.123l-1.197.025zm0 5.23v-4.606h1.197v4.582l-1.197.024zm2.148-4.54c0-1.148.696-1.82 2.32-1.82.595-.001 1.19.068 1.77.204l-.14 1.025a10.008 10.008 0 0 0-1.598-.164c-.82 0-1.123.279-1.123.951v2.385c0 .664.27.951 1.123.951.536-.012 1.07-.067 1.598-.164l.14 1.025a7.68 7.68 0 0 1-1.77.205c-1.64 0-2.32-.664-2.32-1.82v-2.779zm6.737 4.63c-1.639 0-2.073-.868-2.073-1.803v-1.18c0-.943.442-1.804 2.073-1.804s2.074.87 2.074 1.804v1.156c.008.942-.434 1.827-2.074 1.827zm0-3.795c-.639 0-.885.27-.885.82v1.23c0 .516.246.82.885.82.64 0 .886-.271.886-.82v-1.28c0-.516-.246-.786-.886-.786v.016zm5.443.074c-.437.19-.859.411-1.262.664v2.95h-1.197v-4.59h1.008l.082.509c.39-.252.812-.454 1.254-.599l.115 1.066zm4.779 2.082a1.418 1.418 0 0 1-1.574 1.64 6.852 6.852 0 0 1-1.27-.132v1.853l-1.197.18v-6.557h.95l.115.385c.44-.315.967-.485 1.508-.484.96 0 1.468.55 1.468 1.59v1.525zm-2.853.516c.348.075.702.117 1.058.123.434 0 .598-.196.598-.614v-1.64c0-.377-.148-.582-.59-.582a1.73 1.73 0 0 0-1.066.418v2.295zM572.033 41.016h-7.287v-4.352h19.516v4.352h-7.295v21.746h-4.918z"/>
        <path fill="#000" fill-rule="nonzero" d="M588.762 59.238c1.98-.01 3.946-.314 5.836-.902l.746 3.607a20.492 20.492 0 0 1-7.016 1.213c-5.992 0-8.074-2.779-8.074-7.377v-5.041c0-4.033 1.803-7.443 7.918-7.443s7.484 3.566 7.484 7.68v4.099H585v.983c.041 2.28.86 3.18 3.762 3.18zm-3.721-8.008h6.074v-.968c0-1.803-.55-3.057-2.902-3.057-2.352 0-3.172 1.254-3.172 3.057v.968zM608.434 47.68a37.418 37.418 0 0 0-5.073 2.779v12.295h-4.779V43.68h4.033l.311 2.115a21.385 21.385 0 0 1 5.017-2.508l.491 4.393zM620.107 47.68a37.418 37.418 0 0 0-5.058 2.779v12.295h-4.779V43.68h4.033l.312 2.115a21.385 21.385 0 0 1 5.016-2.508l.476 4.393zM636.098 62.762h-3.918l-.352-1.295a10.434 10.434 0 0 1-5.68 1.689c-3.484 0-4.976-2.394-4.976-5.68 0-3.878 1.689-5.37 5.566-5.37h4.582v-2c0-2.114-.59-2.86-3.648-2.86-1.777.02-3.549.218-5.287.59l-.59-3.647a24.902 24.902 0 0 1 6.557-.902c5.992 0 7.763 2.115 7.763 6.893l-.017 12.582zm-4.778-7.213h-3.525c-1.565 0-2 .435-2 1.877 0 1.443.435 1.918 1.918 1.918a7.525 7.525 0 0 0 3.607-.983v-2.812zM650.787 39.328a14.025 14.025 0 0 0-2.746-.312c-1.877 0-2.156.82-2.156 2.27v2.394h4.86l-.27 3.804h-4.582v15.278h-4.778V47.484h-3.058V43.68h3.058v-2.664c0-3.959 1.844-5.918 6.074-5.918a15.14 15.14 0 0 1 4.098.55l-.5 3.68zM660.115 63.156c-6.558 0-8.304-3.607-8.304-7.525v-4.82c0-3.918 1.763-7.524 8.304-7.524 6.54 0 8.303 3.606 8.303 7.524v4.82c.008 3.918-1.762 7.525-8.303 7.525zm0-15.795c-2.55 0-3.525 1.139-3.525 3.278v5.131c0 2.156.984 3.28 3.525 3.28 2.54 0 3.524-1.14 3.524-3.28v-5.114c0-2.156-.975-3.295-3.524-3.295zM680.721 47.68a37.418 37.418 0 0 0-5.057 2.779v12.295h-4.779V43.68h4.033l.312 2.115a21.377 21.377 0 0 1 5.016-2.508l.475 4.393zM693.852 62.762v-13.32c0-1.016-.434-1.524-1.524-1.524a13.18 13.18 0 0 0-4.976 1.64v13.204h-4.778V43.68h3.647l.468 1.64a19.115 19.115 0 0 1 7.655-2.033 3.623 3.623 0 0 1 3.607 2.04 18.713 18.713 0 0 1 7.68-2.04c3.172 0 4.312 2.23 4.312 5.64v13.835h-4.78v-13.32c0-1.016-.433-1.524-1.524-1.524-1.754.193-3.45.752-4.975 1.64v13.204h-4.812z"/>
        <path fill="#5C4EE5" d="M519.918 33.787l13.443 7.77v15.517l-13.443-7.763z"/>
        <path fill="#4040B2" d="M534.836 41.557v15.517l13.443-7.754V33.787z"/>
        <path fill="#5C4EE5" d="M505 25.123v15.525l13.443 7.762V32.885zM519.918 66.541l13.443 7.762V58.78l-13.443-7.763z"/>
        <text fill="#FD5750" font-family="Soleil" font-size="100" letter-spacing="3.125" opacity=".08" transform="translate(0 -23)">
            <tspan x="372" y="103">vs</tspan>
        </text>
    </g>
</svg>
