<svg xmlns="http://www.w3.org/2000/svg" width="800" height="100" viewBox="0 0 800 100">
    <defs>
        <linearGradient id="a" x1="50%" x2="50%" y1="0%" y2="100%">
            <stop offset="0%" stop-color="#FF9088" stop-opacity="0"/>
            <stop offset="100%" stop-color="#FD5750"/>
        </linearGradient>
    </defs>
    <g fill="none" fill-rule="evenodd">
        <path fill="#FD5750" fill-opacity=".02" stroke="url(#a)" d="M.5 23.5h383v99H.5z" transform="translate(0 -23)"/>
        <path fill="#FD5750" d="M92 59.533h7.458l-2.31 6.978H92v-6.978zm0-13.267h11.85l-2.31 6.978H92v-6.978zM92 33h16.244l-2.311 6.978H92V33zm23.594 0h18.541v6.978h-20.851l2.31-6.978zm-6.703 20.244l2.31-6.978h22.934v6.978h-25.244zm-2.083 6.289h27.327v6.978h-29.637l2.31-6.978z"/>
        <path fill="#000" d="M198.556 53.706l3.641-11.008c1.072 0 2.089.01 3.077.01l-4.85 14.042h-3.83l-4.575-14.052h3.195l3.342 11.008zm42.433-18.063V54.02h4.25v2.73h-7.26V38.183h-3v-2.54h6.01zm-14.407 9.654c.061-.238.696-2.727 3.16-2.727h4.227v3.043h-4.684c-1.157 0-2.515.97-2.515 2.559l-.014 8.578h-3.098V42.662c.958 0 1.834-.003 2.865-.003l.06 2.638zm43.46 2.895c2.263.266 5.68.669 5.863 4.157.088 1.638-.564 2.663-1.124 3.234-1.445 1.472-3.74 1.568-5.338 1.512-3.123-.108-5.807-1.413-5.92-1.468l1.3-2.646c.02.01 2.105 1.13 4.574 1.316 3.696.279 3.724-1.177 3.692-1.793-.044-.818-.781-1.077-3.39-1.384-2.32-.274-5.828-.687-5.912-4.356-.027-1.132.372-2.14 1.154-2.91 1.044-1.033 2.751-1.587 4.684-1.52 2.956.104 5.498.887 5.605.92l-.877 2.815c-.023-.007-2.285-.7-4.83-.788-1.075-.037-2.061.225-2.51.669-.201.198-.286.428-.28.746.021.86.457 1.16 3.31 1.496zm20.936 4.157c.088 1.638-.564 2.663-1.124 3.235-1.445 1.471-3.74 1.567-5.338 1.511-3.123-.109-5.807-1.413-5.92-1.468l1.201-2.444c.02.01 2.204.928 4.673 1.114 3.696.278 3.724-1.177 3.692-1.793-.044-.818-.781-1.077-3.39-1.384-2.32-.273-5.828-.687-5.912-4.356-.027-1.132.372-2.139 1.153-2.911 1.045-1.032 2.752-1.586 4.686-1.518a23.67 23.67 0 0 1 5.603.919l-.876 2.815c-.023-.006-2.283-.788-4.83-.788-2.245 0-2.79.716-2.79 1.415 0 .86.457 1.16 3.31 1.496 2.262.266 5.679.669 5.862 4.157zm-136.929-4.157c2.263.266 5.68.669 5.862 4.157.088 1.638-.563 2.663-1.124 3.234-1.445 1.472-3.739 1.568-5.338 1.512-3.123-.108-5.807-1.413-5.92-1.468l1.301-2.646c.02.01 2.104 1.13 4.574 1.316 3.695.279 3.724-1.177 3.691-1.793-.043-.818-.78-1.077-3.39-1.384-2.32-.274-5.827-.687-5.912-4.356-.026-1.132.372-2.14 1.154-2.91 1.045-1.033 2.751-1.587 4.685-1.52 2.955.104 5.498.887 5.604.92l-.876 2.815c-.023-.007-2.285-.7-4.83-.788-1.076-.037-2.062.225-2.51.669-.201.198-.286.428-.28.746.02.86.457 1.16 3.31 1.496zm100.124-5.878c6.639 0 6.639 6.757 6.639 6.757v1.808h-10.548c0 1.717 1.5 3.564 4.28 3.564 2.322 0 4.731-.939 4.731-.939l.768 2.416s-2.96 1.185-5.747 1.185c-6.64 0-7.136-5.905-7.136-7.503 0-1.598 1.121-7.288 7.013-7.288zm3.773 6.018s.135-3.338-3.772-3.338c-3.534 0-3.946 3.338-3.946 3.338h7.718zm-44.116-6.018c6.639 0 6.639 6.757 6.639 6.757v1.808H209.92c0 1.717 1.5 3.564 4.28 3.564 2.322 0 4.73-.939 4.73-.939l.77 2.416s-2.96 1.185-5.748 1.185c-6.641 0-7.136-5.905-7.136-7.503 0-1.598 1.12-7.288 7.013-7.288zm3.772 6.018s.136-3.338-3.772-3.338c-3.533 0-3.945 3.338-3.945 3.338h7.717zm-48.331-6.018c6.639 0 6.639 6.757 6.639 6.757v1.808h-10.548c0 1.717 1.5 3.564 4.28 3.564 2.322 0 4.73-.939 4.73-.939l.769 2.416s-2.96 1.185-5.747 1.185c-6.641 0-7.137-5.905-7.137-7.503 0-1.598 1.122-7.288 7.014-7.288zm3.772 6.018s.136-3.338-3.772-3.338c-3.533 0-3.945 3.338-3.945 3.338h7.717zm8.866-3.035c.062-.238.696-2.727 3.16-2.727h4.228v3.043h-4.685c-1.157 0-2.515.97-2.515 2.559l-.014 8.578h-3.098V42.662c.958 0 1.834-.003 2.865-.003l.06 2.638z"/>
        <path fill="#FD5750" fill-opacity=".02" stroke="url(#a)" d="M416.5 23.5h383v99h-383z" transform="translate(0 -23)"/>
        <path fill="#FF3B30" d="M473 58.704l10.423-14.577 1.83-1.48H473v-4.295h17.077v4.296l-10.492 14.718-1.796 1.338h12.288V63H473v-4.296zm31.775-1.162h-7.57L495.339 63h-4.824l8.873-24.824h3.556L511.817 63h-5.07l-1.972-5.458zm-6.338-3.873h5.282l-1.831-5.493-.74-3.873h-.176l-.739 3.908-1.796 5.458zm15.86-15.07a33.256 33.256 0 0 1 3.257-.44 39.852 39.852 0 0 1 3.539-.159c1.22 0 2.447.1 3.68.3 1.232.199 2.34.598 3.327 1.196.986.6 1.79 1.432 2.412 2.5.622 1.069.933 2.46.933 4.173 0 1.55-.27 2.858-.81 3.926s-1.256 1.943-2.148 2.623a8.66 8.66 0 0 1-3.046 1.48 13.609 13.609 0 0 1-3.538.457h-.564a19.48 19.48 0 0 1-1.637-.07 5.988 5.988 0 0 1-.581-.07V63h-4.824V38.599zm7.183 3.556c-.47 0-.915.018-1.338.053a11.1 11.1 0 0 0-1.021.123v7.993c.094.023.235.047.422.07.188.024.388.041.599.053.211.012.417.018.616.018h.44c.634 0 1.262-.059 1.884-.176a4.655 4.655 0 0 0 1.673-.652 3.396 3.396 0 0 0 1.18-1.32c.293-.563.44-1.303.44-2.218 0-.775-.141-1.415-.423-1.92a3.458 3.458 0 0 0-1.11-1.214 4.32 4.32 0 0 0-1.566-.634 9.134 9.134 0 0 0-1.796-.176zm13.325-3.556a33.256 33.256 0 0 1 3.257-.44A39.852 39.852 0 0 1 541.6 38c1.221 0 2.448.1 3.68.3 1.232.199 2.341.598 3.327 1.196.986.6 1.79 1.432 2.412 2.5.622 1.069.933 2.46.933 4.173 0 1.55-.27 2.858-.81 3.926s-1.255 1.943-2.147 2.623a8.66 8.66 0 0 1-3.046 1.48 13.609 13.609 0 0 1-3.539.457h-.563a19.48 19.48 0 0 1-1.637-.07 5.988 5.988 0 0 1-.581-.07V63h-4.824V38.599zm7.183 3.556c-.47 0-.916.018-1.338.053a11.1 11.1 0 0 0-1.021.123v7.993c.093.023.234.047.422.07.188.024.387.041.599.053.21.012.416.018.616.018h.44c.634 0 1.262-.059 1.884-.176a4.655 4.655 0 0 0 1.672-.652 3.396 3.396 0 0 0 1.18-1.32c.293-.563.44-1.303.44-2.218 0-.775-.14-1.415-.422-1.92a3.458 3.458 0 0 0-1.11-1.214 4.32 4.32 0 0 0-1.567-.634 9.134 9.134 0 0 0-1.795-.176zm22.76 15.387h-7.57L555.312 63h-4.824l8.874-24.824h3.556L571.79 63h-5.07l-1.972-5.458zm-6.337-3.873h5.281l-1.83-5.493-.74-3.873h-.176l-.74 3.908-1.795 5.458z"/>
        <path fill="#33ABFF" d="M633.036 43.02c-1.986 0-3.548.704-4.686 2.111-1.137 1.408-1.706 3.35-1.706 5.828 0 2.593.547 4.555 1.641 5.886 1.095 1.33 2.678 1.995 4.75 1.995.897 0 1.765-.089 2.604-.267a30.212 30.212 0 0 0 2.617-.687v2.964c-1.658.627-3.538.94-5.64.94-3.094 0-5.47-.937-7.129-2.812C623.83 57.102 623 54.42 623 50.93c0-2.198.402-4.121 1.207-5.77.805-1.648 1.97-2.911 3.493-3.788 1.523-.878 3.311-1.316 5.365-1.316 2.16 0 4.155.453 5.986 1.359l-1.243 2.878a18.568 18.568 0 0 0-2.263-.89 8.154 8.154 0 0 0-2.51-.383zm11.578 18.48h-3.398V39h3.398v22.5zm13.632 0l-.68-2.226h-.116c-.771.974-1.547 1.636-2.328 1.988-.78.352-1.783.528-3.008.528-1.571 0-2.798-.424-3.68-1.272-.882-.849-1.323-2.049-1.323-3.601 0-1.649.612-2.892 1.836-3.731 1.225-.839 3.09-1.297 5.597-1.374l2.762-.087v-.853c0-1.022-.239-1.786-.716-2.292-.477-.506-1.217-.759-2.22-.759-.82 0-1.605.12-2.357.362-.752.24-1.475.525-2.17.853l-1.098-2.43a11.828 11.828 0 0 1 2.849-1.034 13.11 13.11 0 0 1 2.92-.354c2.035 0 3.57.444 4.607 1.33 1.036.887 1.554 2.28 1.554 4.18V61.5h-2.43zm-5.062-2.313c1.234 0 2.225-.344 2.972-1.034.747-.69 1.12-1.656 1.12-2.9v-1.387l-2.053.086c-1.6.058-2.764.326-3.492.803-.728.477-1.092 1.207-1.092 2.19 0 .714.212 1.266.637 1.657.424.39 1.06.585 1.908.585zm22.28 2.314l-.478-2.097h-.173c-.473.742-1.145 1.326-2.017 1.75-.873.424-1.868.636-2.987.636-1.937 0-3.383-.482-4.338-1.446-.954-.964-1.431-2.425-1.431-4.382V45.507h3.427v9.863c0 1.224.25 2.142.752 2.754.501.612 1.287.919 2.357.919 1.427 0 2.475-.427 3.145-1.28.67-.853 1.005-2.283 1.005-4.288v-7.968h3.413v15.994h-2.675zm11.679.29c-1.996 0-3.553-.724-4.67-2.17-1.12-1.446-1.678-3.475-1.678-6.088 0-2.622.566-4.664 1.699-6.124s2.702-2.19 4.707-2.19c2.101 0 3.702.775 4.8 2.327h.174c-.164-1.147-.245-2.053-.245-2.718V39h3.412v22.5h-2.66l-.593-2.096h-.16c-1.089 1.59-2.684 2.386-4.786 2.386zm.911-2.748c1.398 0 2.415-.393 3.051-1.179.637-.786.964-2.06.984-3.825v-.477c0-2.015-.328-3.447-.984-4.295-.655-.848-1.682-1.272-3.08-1.272-1.195 0-2.116.484-2.762 1.453-.646.969-.969 2.35-.969 4.143 0 1.774.314 3.126.94 4.056.627.93 1.567 1.396 2.82 1.396zm14.311 2.458h-3.398V45.507h3.398v15.994zm-3.6-20.23c0-.608.166-1.076.499-1.403.332-.328.807-.492 1.424-.492.598 0 1.063.164 1.395.492.333.327.5.795.5 1.402 0 .579-.167 1.034-.5 1.367-.332.332-.797.499-1.395.499-.617 0-1.092-.167-1.424-.5-.333-.332-.5-.787-.5-1.366zm17.232 20.23l-.68-2.227h-.115c-.772.974-1.548 1.636-2.329 1.988-.78.352-1.783.528-3.007.528-1.572 0-2.799-.424-3.68-1.272-.883-.849-1.324-2.049-1.324-3.601 0-1.649.612-2.892 1.837-3.731 1.224-.839 3.09-1.297 5.596-1.374l2.762-.087v-.853c0-1.022-.239-1.786-.716-2.292-.477-.506-1.217-.759-2.22-.759-.819 0-1.605.12-2.357.362-.752.24-1.475.525-2.169.853l-1.099-2.43a11.828 11.828 0 0 1 2.849-1.034 13.11 13.11 0 0 1 2.921-.354c2.034 0 3.57.444 4.606 1.33 1.036.887 1.554 2.28 1.554 4.18V61.5h-2.429zm-5.061-2.314c-.849 0-1.485-.195-1.91-.585-.423-.39-.635-.943-.635-1.656 0-.984.364-1.714 1.091-2.191.728-.477 1.892-.745 3.493-.803l2.053-.086v1.388c0 1.243-.373 2.21-1.12 2.9-.748.689-1.738 1.033-2.972 1.033zm10.759 1.186c0-.945.385-1.417 1.156-1.417.79 0 1.186.472 1.186 1.417 0 .945-.395 1.417-1.186 1.417-.77 0-1.156-.472-1.156-1.417zm4 8.243c-.77 0-1.422-.12-1.952-.362V67.01c.665.193 1.287.29 1.866.29 1.455 0 2.183-.849 2.183-2.545V45.782h1.432v18.77c0 1.302-.306 2.304-.919 3.008-.612.704-1.482 1.056-2.61 1.056zm1.895-27.201c0-.926.303-1.388.91-1.388a.81.81 0 0 1 .702.361c.169.241.253.583.253 1.027 0 .434-.084.776-.253 1.027a.8.8 0 0 1-.701.376c-.608 0-.911-.468-.911-1.403zM743 57.409c0 1.407-.535 2.49-1.605 3.246-1.07.757-2.589 1.135-4.555 1.135-2.102 0-3.77-.323-5.004-.969v-1.547a11.043 11.043 0 0 0 5.004 1.186c1.552 0 2.73-.258 3.535-.774.805-.516 1.208-1.203 1.208-2.06 0-.791-.32-1.456-.962-1.996-.64-.54-1.694-1.07-3.16-1.59-1.57-.57-2.675-1.059-3.311-1.469-.636-.41-1.116-.872-1.439-1.388-.323-.516-.484-1.145-.484-1.887 0-1.176.494-2.106 1.482-2.79.988-.685 2.37-1.028 4.143-1.028 1.697 0 3.307.319 4.83.955l-.535 1.301c-1.543-.636-2.974-.954-4.295-.954-1.282 0-2.3.212-3.051.636-.752.424-1.128 1.012-1.128 1.764 0 .82.291 1.475.875 1.967.583.492 1.723 1.041 3.42 1.649 1.417.51 2.448.97 3.094 1.38.646.41 1.13.875 1.454 1.396.323.52.484 1.133.484 1.837z"/>
        <text fill="#FD5750" font-family="Soleil" font-size="100" letter-spacing="3.125" opacity=".08" transform="translate(0 -23)">
            <tspan x="372" y="103">vs</tspan>
        </text>
    </g>
</svg>
