<svg xmlns="http://www.w3.org/2000/svg" width="800" height="100" viewBox="0 0 800 100">
    <defs>
        <linearGradient id="a" x1="50%" x2="50%" y1="0%" y2="100%">
            <stop offset="0%" stop-color="#FF9088" stop-opacity="0"/>
            <stop offset="100%" stop-color="#FD5750"/>
        </linearGradient>
    </defs>
    <g fill="none" fill-rule="evenodd">
        <path fill="#FD5750" fill-opacity=".02" stroke="url(#a)" d="M.5 23.5h383v99H.5z" transform="translate(0 -23)"/>
        <path fill="#FD5750" d="M92 59.533h7.458l-2.31 6.978H92v-6.978zm0-13.267h11.85l-2.31 6.978H92v-6.978zM92 33h16.244l-2.311 6.978H92V33zm23.594 0h18.541v6.978h-20.851l2.31-6.978zm-6.703 20.244l2.31-6.978h22.934v6.978h-25.244zm-2.083 6.289h27.327v6.978h-29.637l2.31-6.978z"/>
        <path fill="#000" d="M198.556 53.706l3.641-11.008c1.072 0 2.089.01 3.077.01l-4.85 14.042h-3.83l-4.575-14.052h3.195l3.342 11.008zm42.433-18.063V54.02h4.25v2.73h-7.26V38.183h-3v-2.54h6.01zm-14.407 9.654c.061-.238.696-2.727 3.16-2.727h4.227v3.043h-4.684c-1.157 0-2.515.97-2.515 2.559l-.014 8.578h-3.098V42.662c.958 0 1.834-.003 2.865-.003l.06 2.638zm43.46 2.895c2.263.266 5.68.669 5.863 4.157.088 1.638-.564 2.663-1.124 3.234-1.445 1.472-3.74 1.568-5.338 1.512-3.123-.108-5.807-1.413-5.92-1.468l1.3-2.646c.02.01 2.105 1.13 4.574 1.316 3.696.279 3.724-1.177 3.692-1.793-.044-.818-.781-1.077-3.39-1.384-2.32-.274-5.828-.687-5.912-4.356-.027-1.132.372-2.14 1.154-2.91 1.044-1.033 2.751-1.587 4.684-1.52 2.956.104 5.498.887 5.605.92l-.877 2.815c-.023-.007-2.285-.7-4.83-.788-1.075-.037-2.061.225-2.51.669-.201.198-.286.428-.28.746.021.86.457 1.16 3.31 1.496zm20.936 4.157c.088 1.638-.564 2.663-1.124 3.235-1.445 1.471-3.74 1.567-5.338 1.511-3.123-.109-5.807-1.413-5.92-1.468l1.201-2.444c.02.01 2.204.928 4.673 1.114 3.696.278 3.724-1.177 3.692-1.793-.044-.818-.781-1.077-3.39-1.384-2.32-.273-5.828-.687-5.912-4.356-.027-1.132.372-2.139 1.153-2.911 1.045-1.032 2.752-1.586 4.686-1.518a23.67 23.67 0 0 1 5.603.919l-.876 2.815c-.023-.006-2.283-.788-4.83-.788-2.245 0-2.79.716-2.79 1.415 0 .86.457 1.16 3.31 1.496 2.262.266 5.679.669 5.862 4.157zm-136.929-4.157c2.263.266 5.68.669 5.862 4.157.088 1.638-.563 2.663-1.124 3.234-1.445 1.472-3.739 1.568-5.338 1.512-3.123-.108-5.807-1.413-5.92-1.468l1.301-2.646c.02.01 2.104 1.13 4.574 1.316 3.695.279 3.724-1.177 3.691-1.793-.043-.818-.78-1.077-3.39-1.384-2.32-.274-5.827-.687-5.912-4.356-.026-1.132.372-2.14 1.154-2.91 1.045-1.033 2.751-1.587 4.685-1.52 2.955.104 5.498.887 5.604.92l-.876 2.815c-.023-.007-2.285-.7-4.83-.788-1.076-.037-2.062.225-2.51.669-.201.198-.286.428-.28.746.02.86.457 1.16 3.31 1.496zm100.124-5.878c6.639 0 6.639 6.757 6.639 6.757v1.808h-10.548c0 1.717 1.5 3.564 4.28 3.564 2.322 0 4.731-.939 4.731-.939l.768 2.416s-2.96 1.185-5.747 1.185c-6.64 0-7.136-5.905-7.136-7.503 0-1.598 1.121-7.288 7.013-7.288zm3.773 6.018s.135-3.338-3.772-3.338c-3.534 0-3.946 3.338-3.946 3.338h7.718zm-44.116-6.018c6.639 0 6.639 6.757 6.639 6.757v1.808H209.92c0 1.717 1.5 3.564 4.28 3.564 2.322 0 4.73-.939 4.73-.939l.77 2.416s-2.96 1.185-5.748 1.185c-6.641 0-7.136-5.905-7.136-7.503 0-1.598 1.12-7.288 7.013-7.288zm3.772 6.018s.136-3.338-3.772-3.338c-3.533 0-3.945 3.338-3.945 3.338h7.717zm-48.331-6.018c6.639 0 6.639 6.757 6.639 6.757v1.808h-10.548c0 1.717 1.5 3.564 4.28 3.564 2.322 0 4.73-.939 4.73-.939l.769 2.416s-2.96 1.185-5.747 1.185c-6.641 0-7.137-5.905-7.137-7.503 0-1.598 1.122-7.288 7.014-7.288zm3.772 6.018s.136-3.338-3.772-3.338c-3.533 0-3.945 3.338-3.945 3.338h7.717zm8.866-3.035c.062-.238.696-2.727 3.16-2.727h4.228v3.043h-4.685c-1.157 0-2.515.97-2.515 2.559l-.014 8.578h-3.098V42.662c.958 0 1.834-.003 2.865-.003l.06 2.638z"/>
        <path fill="#FD5750" fill-opacity=".02" stroke="url(#a)" d="M416.5 23.5h383v99h-383z" transform="translate(0 -23)"/>
        <text fill="#000" font-family="Serverless-Regular, Serverless" font-size="20" letter-spacing=".833" transform="translate(0 -23)">
            <tspan x="525" y="85">custom tooling</tspan>
        </text>
        <text fill="#FD5750" font-family="Soleil" font-size="100" letter-spacing="3.125" opacity=".08" transform="translate(0 -23)">
            <tspan x="372" y="103">vs</tspan>
        </text>
    </g>
</svg>
