<svg xmlns="http://www.w3.org/2000/svg" width="800" height="100" viewBox="0 0 800 100">
    <defs>
        <linearGradient id="a" x1="50%" x2="50%" y1="0%" y2="100%">
            <stop offset="0%" stop-color="#FF9088" stop-opacity="0"/>
            <stop offset="100%" stop-color="#FD5750"/>
        </linearGradient>
    </defs>
    <g fill="none" fill-rule="evenodd">
        <path fill="#FD5750" fill-opacity=".02" stroke="url(#a)" d="M.5 23.5h383v99H.5z" transform="translate(0 -23)"/>
        <path fill="#FD5750" d="M92 59.533h7.458l-2.31 6.978H92v-6.978zm0-13.267h11.85l-2.31 6.978H92v-6.978zM92 33h16.244l-2.311 6.978H92V33zm23.594 0h18.541v6.978h-20.851l2.31-6.978zm-6.703 20.244l2.31-6.978h22.934v6.978h-25.244zm-2.083 6.289h27.327v6.978h-29.637l2.31-6.978z"/>
        <path fill="#000" d="M198.556 53.706l3.641-11.008c1.072 0 2.089.01 3.077.01l-4.85 14.042h-3.83l-4.575-14.052h3.195l3.342 11.008zm42.433-18.063V54.02h4.25v2.73h-7.26V38.183h-3v-2.54h6.01zm-14.407 9.654c.061-.238.696-2.727 3.16-2.727h4.227v3.043h-4.684c-1.157 0-2.515.97-2.515 2.559l-.014 8.578h-3.098V42.662c.958 0 1.834-.003 2.865-.003l.06 2.638zm43.46 2.895c2.263.266 5.68.669 5.863 4.157.088 1.638-.564 2.663-1.124 3.234-1.445 1.472-3.74 1.568-5.338 1.512-3.123-.108-5.807-1.413-5.92-1.468l1.3-2.646c.02.01 2.105 1.13 4.574 1.316 3.696.279 3.724-1.177 3.692-1.793-.044-.818-.781-1.077-3.39-1.384-2.32-.274-5.828-.687-5.912-4.356-.027-1.132.372-2.14 1.154-2.91 1.044-1.033 2.751-1.587 4.684-1.52 2.956.104 5.498.887 5.605.92l-.877 2.815c-.023-.007-2.285-.7-4.83-.788-1.075-.037-2.061.225-2.51.669-.201.198-.286.428-.28.746.021.86.457 1.16 3.31 1.496zm20.936 4.157c.088 1.638-.564 2.663-1.124 3.235-1.445 1.471-3.74 1.567-5.338 1.511-3.123-.109-5.807-1.413-5.92-1.468l1.201-2.444c.02.01 2.204.928 4.673 1.114 3.696.278 3.724-1.177 3.692-1.793-.044-.818-.781-1.077-3.39-1.384-2.32-.273-5.828-.687-5.912-4.356-.027-1.132.372-2.139 1.153-2.911 1.045-1.032 2.752-1.586 4.686-1.518a23.67 23.67 0 0 1 5.603.919l-.876 2.815c-.023-.006-2.283-.788-4.83-.788-2.245 0-2.79.716-2.79 1.415 0 .86.457 1.16 3.31 1.496 2.262.266 5.679.669 5.862 4.157zm-136.929-4.157c2.263.266 5.68.669 5.862 4.157.088 1.638-.563 2.663-1.124 3.234-1.445 1.472-3.739 1.568-5.338 1.512-3.123-.108-5.807-1.413-5.92-1.468l1.301-2.646c.02.01 2.104 1.13 4.574 1.316 3.695.279 3.724-1.177 3.691-1.793-.043-.818-.78-1.077-3.39-1.384-2.32-.274-5.827-.687-5.912-4.356-.026-1.132.372-2.14 1.154-2.91 1.045-1.033 2.751-1.587 4.685-1.52 2.955.104 5.498.887 5.604.92l-.876 2.815c-.023-.007-2.285-.7-4.83-.788-1.076-.037-2.062.225-2.51.669-.201.198-.286.428-.28.746.02.86.457 1.16 3.31 1.496zm100.124-5.878c6.639 0 6.639 6.757 6.639 6.757v1.808h-10.548c0 1.717 1.5 3.564 4.28 3.564 2.322 0 4.731-.939 4.731-.939l.768 2.416s-2.96 1.185-5.747 1.185c-6.64 0-7.136-5.905-7.136-7.503 0-1.598 1.121-7.288 7.013-7.288zm3.773 6.018s.135-3.338-3.772-3.338c-3.534 0-3.946 3.338-3.946 3.338h7.718zm-44.116-6.018c6.639 0 6.639 6.757 6.639 6.757v1.808H209.92c0 1.717 1.5 3.564 4.28 3.564 2.322 0 4.73-.939 4.73-.939l.77 2.416s-2.96 1.185-5.748 1.185c-6.641 0-7.136-5.905-7.136-7.503 0-1.598 1.12-7.288 7.013-7.288zm3.772 6.018s.136-3.338-3.772-3.338c-3.533 0-3.945 3.338-3.945 3.338h7.717zm-48.331-6.018c6.639 0 6.639 6.757 6.639 6.757v1.808h-10.548c0 1.717 1.5 3.564 4.28 3.564 2.322 0 4.73-.939 4.73-.939l.769 2.416s-2.96 1.185-5.747 1.185c-6.641 0-7.137-5.905-7.137-7.503 0-1.598 1.122-7.288 7.014-7.288zm3.772 6.018s.136-3.338-3.772-3.338c-3.533 0-3.945 3.338-3.945 3.338h7.717zm8.866-3.035c.062-.238.696-2.727 3.16-2.727h4.228v3.043h-4.685c-1.157 0-2.515.97-2.515 2.559l-.014 8.578h-3.098V42.662c.958 0 1.834-.003 2.865-.003l.06 2.638z"/>
        <path fill="#FD5750" fill-opacity=".02" stroke="url(#a)" d="M416.5 23.5h383v99h-383z" transform="translate(0 -23)"/>
        <path fill="#0087C8" fill-rule="nonzero" d="M605.538 35H606c1.385.23 1.846.923 1.846 1.846v18c0 2.077-.923 4.385-2.538 6.692-2.539 2.77-5.308 3.924-8.308 3.924h-.692c-3 0-5.77-1.385-8.539-4.154-1.615-2.308-2.307-4.616-2.307-6.923 0-3.693 1.615-6.693 4.846-9.231 2.077-1.385 4.154-2.077 6.461-2.077 2.77 0 5.077.692 6.923 2.308v-8.539c.462-1.154 1.154-1.846 1.846-1.846zm-15.692 19.154v.461c0 3 1.616 5.077 4.616 6.462.692.23 1.615.461 2.076.461H597c2.77 0 4.846-1.615 6.462-4.615.23-.923.461-1.615.461-2.077v-.461c0-3-1.615-5.077-4.615-6.462-.923-.23-1.616-.461-2.308-.461h-.462c-2.769 0-4.846 1.384-6.461 4.384-.23.923-.23 1.616-.23 2.308zM621 43.538c2.77 0 5.538 1.154 7.846 3.231 2.308 2.308 3.23 4.846 3.23 7.846 0 4.154-1.845 7.385-5.768 9.693-1.616.923-3.462 1.384-5.077 1.384h-.693c-3 0-5.769-1.384-8.307-4.154-1.616-2.307-2.308-4.615-2.308-6.923 0-3.692 1.615-6.692 4.846-9 2.077-1.384 4.154-2.077 6.231-2.077zm-6.692 10.847v.461c0 2.539 1.154 4.616 3.692 6 .923.462 1.846.692 2.77.692h.46c2.54 0 4.616-1.384 6-4.153.232-.923.462-1.616.462-2.539v-.461c0-2.077-.923-3.923-3-5.308-1.154-.692-2.538-1.154-3.923-1.154-3 0-5.077 1.615-6.461 4.615v1.847zm30-11.077c2.769 0 5.538 1.154 7.846 3.23.23.462.461.924.461 1.154v.231c-.23 1.385-.923 2.077-2.077 2.077-.461 0-1.384-.462-2.769-1.615-.923-.462-2.077-.693-3-.693h-.461c-2.77 0-4.846 1.385-6.231 4.385-.23.923-.462 1.846-.462 2.538 0 2.77 1.385 4.847 4.385 6.231.923.23 1.846.462 2.77.462 1.615 0 3.23-.693 4.845-2.077l.923-.231h.231c1.154 0 1.846.692 2.077 2.077v.23c0 1.385-1.846 2.77-5.308 4.155-1.153.23-2.076.23-2.538.23h-.692c-3 0-5.77-1.384-8.308-4.154-1.615-2.307-2.308-4.615-2.308-6.923 0-3.692 1.616-6.692 4.846-9 1.616-1.615 3.693-2.307 5.77-2.307zm18.461 11.077L660.231 56v7.615c0 1.154-.693 1.847-2.077 2.077h-.23c-1.155 0-1.847-.692-2.078-1.846v-26.77c.23-1.384.923-2.076 1.846-2.076h.462c1.384.23 2.077.923 2.077 1.846v14.077c6.692-4.385 10.615-6.923 12-7.846h.461c1.154 0 1.846.692 2.077 2.308 0 .923-.923 1.846-2.769 2.769-3 2.077-4.846 3.461-5.77 3.923l8.308 10.615.231.693v.23c-.23 1.385-.923 2.077-2.077 2.077-.923 0-1.846-.923-3.23-2.769l-6.693-8.538zm24.693-10.847c4.384 0 7.615 2.077 9.923 6 .923 1.616 1.153 3.231 1.153 5.077v.462c-.23 1.385-.923 2.077-2.076 2.077H681c.462 1.384 1.615 2.538 3.23 3.461 1.155.462 2.078.693 3 .693 1.155 0 2.308-.462 3.924-1.154h.692c1.385.23 1.846.923 1.846 2.077v.23c0 1.616-2.077 2.77-6 3.231h-.461c-3.923 0-7.154-1.846-9.693-5.538-.923-1.846-1.384-3.692-1.384-5.539 0-4.153 1.846-7.384 5.77-9.692 2.076-.923 3.922-1.385 5.538-1.385zM681 53h13.385c0-.462-.462-1.615-1.616-3-1.615-1.385-3-2.077-4.615-2.077h-.923c-2.308 0-4.154 1.154-5.539 3.23-.461.924-.692 1.385-.692 1.847zm23.538-9.692c1.385.23 2.077.923 2.077 1.846v.23c1.616-1.615 3.923-2.307 6.693-2.307 1.384 0 3 .461 4.846 1.154.692.692.923 1.154.923 1.846v.23c-.23 1.385-.923 2.078-2.077 2.078h-.462c-1.384-.462-2.538-.693-3-.693h-.461c-2.77 0-4.846 1.385-6 4.385-.23.692-.462 1.615-.462 2.538v9c0 1.154-.692 1.847-2.077 2.077h-.23c-1.154 0-1.846-.692-2.077-2.077v-18c.23-1.615.923-2.307 2.307-2.307zM569.308 43.077c-.231-3.462-2.077-6.462-5.308-9l-1.154-.923-.923 1.154c-1.615 2.538-2.308 5.769-2.077 8.538.23 1.846.923 3.923 2.077 5.308-.923.692-3.923 2.077-7.846 2.077h-58.154C494.77 56.46 496.615 80 523.615 80c20.077 0 36.462-9 44.077-27.923 2.539 0 9 .461 12.231-5.77l.923-1.615-1.154-.923c-2.077-1.154-6.923-1.615-10.384-.692zM533.308 20h9v8.308h-9zM533.308 29.923h9v8.308h-9zM522.692 29.923h9v8.308h-9zM512.077 29.923h9v8.308h-9z"/>
        <path fill="#0087C8" fill-rule="nonzero" d="M501.462 39.615h9v8.308h-9zM512.077 39.615h9v8.308h-9zM522.692 39.615h9v8.308h-9zM533.308 39.615h9v8.308h-9zM543.923 39.615h9v8.308h-9z"/>
        <text fill="#FD5750" font-family="Soleil" font-size="100" letter-spacing="3.125" opacity=".08" transform="translate(0 -23)">
            <tspan x="372" y="103">vs</tspan>
        </text>
    </g>
</svg>
