<svg xmlns="http://www.w3.org/2000/svg" xmlns:xlink="http://www.w3.org/1999/xlink" width="508" height="462" viewBox="0 0 508 462">
    <defs>
        <linearGradient id="c" x1="50%" x2="50%" y1="0%" y2="100%">
            <stop offset="0%" stop-color="#FF9088" stop-opacity="0"/>
            <stop offset="100%" stop-color="#FD5750"/>
        </linearGradient>
        <path id="b" d="M249.185 158L0 303l250.815 145L500 303z"/>
        <filter id="a" width="104.4%" height="109.7%" x="-2.2%" y="-2.4%" filterUnits="objectBoundingBox">
            <feOffset dy="10" in="SourceAlpha" result="shadowOffsetOuter1"/>
            <feGaussianBlur in="shadowOffsetOuter1" result="shadowBlurOuter1" stdDeviation="2"/>
            <feComposite in="shadowBlurOuter1" in2="SourceAlpha" operator="out" result="shadowBlurOuter1"/>
            <feColorMatrix in="shadowBlurOuter1" values="0 0 0 0 0.992156863 0 0 0 0 0.341176471 0 0 0 0 0.31372549 0 0 0 0.15 0"/>
        </filter>
        <path id="e" d="M249.283 135L30 262.5 250.717 390 470 262.5z"/>
        <filter id="d" width="105%" height="111%" x="-2.5%" y="-2.7%" filterUnits="objectBoundingBox">
            <feOffset dy="10" in="SourceAlpha" result="shadowOffsetOuter1"/>
            <feGaussianBlur in="shadowOffsetOuter1" result="shadowBlurOuter1" stdDeviation="2"/>
            <feComposite in="shadowBlurOuter1" in2="SourceAlpha" operator="out" result="shadowBlurOuter1"/>
            <feColorMatrix in="shadowBlurOuter1" values="0 0 0 0 0.992156863 0 0 0 0 0.341176471 0 0 0 0 0.31372549 0 0 0 0.15 0"/>
        </filter>
        <path id="g" d="M249.38 113L60 223l190.62 110L440 223z"/>
        <filter id="f" width="105.8%" height="112.7%" x="-2.9%" y="-3.2%" filterUnits="objectBoundingBox">
            <feOffset dy="10" in="SourceAlpha" result="shadowOffsetOuter1"/>
            <feGaussianBlur in="shadowOffsetOuter1" result="shadowBlurOuter1" stdDeviation="2"/>
            <feComposite in="shadowBlurOuter1" in2="SourceAlpha" operator="out" result="shadowBlurOuter1"/>
            <feColorMatrix in="shadowBlurOuter1" values="0 0 0 0 0.992156863 0 0 0 0 0.341176471 0 0 0 0 0.31372549 0 0 0 0.15 0"/>
        </filter>
        <path id="i" d="M249.478 90L90 182.5 250.522 275 410 182.5z"/>
        <filter id="h" width="106.9%" height="115.1%" x="-3.4%" y="-3.8%" filterUnits="objectBoundingBox">
            <feOffset dy="10" in="SourceAlpha" result="shadowOffsetOuter1"/>
            <feGaussianBlur in="shadowOffsetOuter1" result="shadowBlurOuter1" stdDeviation="2"/>
            <feComposite in="shadowBlurOuter1" in2="SourceAlpha" operator="out" result="shadowBlurOuter1"/>
            <feColorMatrix in="shadowBlurOuter1" values="0 0 0 0 0.992156863 0 0 0 0 0.341176471 0 0 0 0 0.31372549 0 0 0 0.15 0"/>
        </filter>
        <path id="k" d="M249.576 68L120 143.5 250.424 219 380 143.5z"/>
        <filter id="j" width="108.5%" height="118.5%" x="-4.2%" y="-4.6%" filterUnits="objectBoundingBox">
            <feOffset dy="10" in="SourceAlpha" result="shadowOffsetOuter1"/>
            <feGaussianBlur in="shadowOffsetOuter1" result="shadowBlurOuter1" stdDeviation="2"/>
            <feComposite in="shadowBlurOuter1" in2="SourceAlpha" operator="out" result="shadowBlurOuter1"/>
            <feColorMatrix in="shadowBlurOuter1" values="0 0 0 0 0.992156863 0 0 0 0 0.341176471 0 0 0 0 0.31372549 0 0 0 0.15 0"/>
        </filter>
        <path id="m" d="M249.674 45L150 103l100.326 58L350 103z"/>
        <filter id="l" width="111%" height="124.1%" x="-5.5%" y="-6%" filterUnits="objectBoundingBox">
            <feOffset dy="10" in="SourceAlpha" result="shadowOffsetOuter1"/>
            <feGaussianBlur in="shadowOffsetOuter1" result="shadowBlurOuter1" stdDeviation="2"/>
            <feComposite in="shadowBlurOuter1" in2="SourceAlpha" operator="out" result="shadowBlurOuter1"/>
            <feColorMatrix in="shadowBlurOuter1" values="0 0 0 0 0.992156863 0 0 0 0 0.341176471 0 0 0 0 0.31372549 0 0 0 0.15 0"/>
        </filter>
        <path id="o" d="M249.772 22L180 62.5l70.228 40.5L320 62.5z"/>
        <filter id="n" width="115.7%" height="134.6%" x="-7.9%" y="-8.6%" filterUnits="objectBoundingBox">
            <feOffset dy="10" in="SourceAlpha" result="shadowOffsetOuter1"/>
            <feGaussianBlur in="shadowOffsetOuter1" result="shadowBlurOuter1" stdDeviation="2"/>
            <feComposite in="shadowBlurOuter1" in2="SourceAlpha" operator="out" result="shadowBlurOuter1"/>
            <feColorMatrix in="shadowBlurOuter1" values="0 0 0 0 0.992156863 0 0 0 0 0.341176471 0 0 0 0 0.31372549 0 0 0 0.15 0"/>
        </filter>
        <path id="q" d="M249.87 0L210 23l40.13 23L290 23z"/>
        <filter id="p" width="127.5%" height="160.9%" x="-13.8%" y="-15.2%" filterUnits="objectBoundingBox">
            <feOffset dy="10" in="SourceAlpha" result="shadowOffsetOuter1"/>
            <feGaussianBlur in="shadowOffsetOuter1" result="shadowBlurOuter1" stdDeviation="2"/>
            <feComposite in="shadowBlurOuter1" in2="SourceAlpha" operator="out" result="shadowBlurOuter1"/>
            <feColorMatrix in="shadowBlurOuter1" values="0 0 0 0 0.992156863 0 0 0 0 0.341176471 0 0 0 0 0.31372549 0 0 0 0.2 0"/>
        </filter>
    </defs>
    <g fill="none" fill-rule="evenodd">
        <g transform="translate(4)">
            <use fill="#000" filter="url(#a)" xlink:href="#b"/>
            <path fill="#FFF" fill-opacity=".2" stroke="url(#c)" stroke-linejoin="square" d="M249.186 158.578L.996 302.999l249.818 144.423 248.19-144.421-249.818-144.423z"/>
        </g>
        <g transform="translate(4)">
            <use fill="#000" filter="url(#d)" xlink:href="#e"/>
            <path fill="#FFF" fill-opacity=".2" stroke="url(#c)" stroke-linejoin="square" d="M249.284 135.578L30.997 262.499l219.72 126.923 218.286-126.921-219.72-126.923z"/>
        </g>
        <g transform="translate(4)">
            <use fill="#000" filter="url(#f)" xlink:href="#g"/>
            <path fill="#FFF" fill-opacity=".2" stroke="url(#c)" stroke-linejoin="square" d="M249.381 113.578L60.998 222.999l189.62 109.423 188.384-109.421-189.62-109.423z"/>
        </g>
        <g transform="translate(4)">
            <use fill="#000" filter="url(#h)" xlink:href="#i"/>
            <path fill="#FFF" fill-opacity=".2" stroke="url(#c)" stroke-linejoin="square" d="M249.48 90.578L90.998 182.499l159.522 91.923L409 182.501 249.479 90.578z"/>
        </g>
        <g transform="translate(4)">
            <use fill="#000" filter="url(#j)" xlink:href="#k"/>
            <path fill="#FFF" fill-opacity=".2" stroke="url(#c)" stroke-linejoin="square" d="M249.577 68.578l-128.581 74.92 129.427 74.924 128.581-74.92-129.427-74.924z"/>
        </g>
        <g transform="translate(4)">
            <use fill="#000" filter="url(#l)" xlink:href="#m"/>
            <path fill="#FFF" fill-opacity=".2" stroke="url(#c)" stroke-linejoin="square" d="M249.675 45.578l-98.678 57.42 99.328 57.424 98.678-57.42-99.328-57.424z"/>
        </g>
        <g transform="translate(4)">
            <use fill="#000" filter="url(#n)" xlink:href="#o"/>
            <path fill="#FFF" fill-opacity=".2" stroke="url(#c)" stroke-linejoin="square" d="M249.773 22.578l-68.775 39.92 69.23 39.924 68.774-39.92-69.23-39.924z"/>
        </g>
        <g transform="translate(4)">
            <use fill="#000" filter="url(#p)" xlink:href="#q"/>
            <path fill="#FD5750" fill-opacity=".2" stroke="url(#c)" stroke-linejoin="square" d="M249.87.577l-38.867 22.422 39.127 22.424 38.867-22.422L249.87.577z"/>
        </g>
    </g>
</svg>
