<svg xmlns="http://www.w3.org/2000/svg" width="20" height="20" viewBox="0 0 20 20">
    <path fill="#000" fill-rule="evenodd" d="M10 0c5.523 0 10 4.477 10 10 0 4.417-2.862 8.164-6.833 9.488-.507.098-.687-.214-.687-.48 0-.33.012-1.406.012-2.745 0-.932-.32-1.541-.679-1.851 2.227-.248 4.567-1.093 4.567-4.934 0-1.092-.388-1.984-1.03-2.685.104-.251.447-1.269-.098-2.646 0 0-.838-.269-2.747 1.025A9.624 9.624 0 0 0 10 4.836a9.6 9.6 0 0 0-2.503.336c-1.91-1.294-2.75-1.025-2.75-1.025-.544 1.377-.201 2.395-.098 2.646a3.87 3.87 0 0 0-1.03 2.685c0 3.831 2.335 4.689 4.556 4.942-.286.25-.545.69-.635 1.337-.57.255-2.018.697-2.91-.831 0 0-.529-.96-1.533-1.031 0 0-.975-.013-.068.608 0 0 .655.307 1.11 1.463 0 0 .587 1.785 3.37 1.18.004.836.013 1.623.013 1.862 0 .264-.184.573-.683.48C2.865 18.168 0 14.419 0 10 0 4.477 4.478 0 10 0zM3.788 14.358c-.022.05-.1.064-.172.03-.073-.032-.113-.1-.09-.15.022-.051.1-.065.173-.031.072.032.114.1.089.15zm.405.452c-.048.044-.141.023-.205-.047-.065-.07-.077-.163-.029-.208.05-.044.14-.023.205.047.066.07.078.163.029.208zm.394.575c-.061.043-.162.003-.224-.086-.06-.089-.06-.195.002-.238.062-.043.16-.004.223.084.062.09.062.197-.001.24zm.54.557c-.055.06-.172.044-.257-.038-.087-.081-.112-.195-.057-.256.056-.06.173-.043.26.038.086.08.113.196.054.256zm.745.323c-.024.078-.136.114-.25.08-.113-.034-.187-.125-.164-.205.024-.079.137-.116.25-.08.114.034.188.125.164.205zm.819.06c.002.082-.094.15-.212.152-.12.003-.217-.064-.218-.145 0-.083.094-.151.213-.153.12-.002.217.064.217.146zm.761-.13c.014.08-.068.163-.186.185-.116.022-.224-.028-.239-.108-.014-.082.07-.165.186-.186.118-.02.224.027.24.11z"/>
</svg>
