<svg xmlns="http://www.w3.org/2000/svg" width="128" height="74" viewBox="0 0 128 74">
    <g fill="none" fill-rule="evenodd">
        <g fill="#DFE5E6">
            <circle cx="61" cy="31" r="1" transform="rotate(90 61 31)"/>
            <circle cx="61" cy="13" r="1" transform="rotate(90 61 13)"/>
            <circle cx="61" cy="49" r="1" transform="rotate(90 61 49)"/>
            <circle cx="61" cy="1" r="1" transform="rotate(90 61 1)"/>
            <circle cx="61" cy="37" r="1" transform="rotate(90 61 37)"/>
            <circle cx="61" cy="19" r="1" transform="rotate(90 61 19)"/>
            <circle cx="61" cy="55" r="1" transform="rotate(90 61 55)"/>
            <circle cx="61" cy="7" r="1" transform="rotate(90 61 7)"/>
            <circle cx="61" cy="43" r="1" transform="rotate(90 61 43)"/>
            <circle cx="61" cy="25" r="1" transform="rotate(90 61 25)"/>
            <circle cx="61" cy="61" r="1" transform="rotate(90 61 61)"/>
            <circle cx="61" cy="67" r="1" transform="rotate(90 61 67)"/>
            <circle cx="61" cy="73" r="1" transform="rotate(90 61 73)"/>
            <circle cx="25" cy="31" r="1" transform="rotate(90 25 31)"/>
            <circle cx="25" cy="13" r="1" transform="rotate(90 25 13)"/>
            <circle cx="25" cy="49" r="1" transform="rotate(90 25 49)"/>
            <circle cx="25" cy="1" r="1" transform="rotate(90 25 1)"/>
            <circle cx="25" cy="37" r="1" transform="rotate(90 25 37)"/>
            <circle cx="25" cy="19" r="1" transform="rotate(90 25 19)"/>
            <circle cx="25" cy="55" r="1" transform="rotate(90 25 55)"/>
            <circle cx="25" cy="7" r="1" transform="rotate(90 25 7)"/>
            <circle cx="25" cy="43" r="1" transform="rotate(90 25 43)"/>
            <circle cx="25" cy="25" r="1" transform="rotate(90 25 25)"/>
            <circle cx="25" cy="61" r="1" transform="rotate(90 25 61)"/>
            <circle cx="25" cy="67" r="1" transform="rotate(90 25 67)"/>
            <circle cx="25" cy="73" r="1" transform="rotate(90 25 73)"/>
            <circle cx="43" cy="31" r="1" transform="rotate(90 43 31)"/>
            <circle cx="43" cy="13" r="1" transform="rotate(90 43 13)"/>
            <circle cx="43" cy="49" r="1" transform="rotate(90 43 49)"/>
            <circle cx="43" cy="1" r="1" transform="rotate(90 43 1)"/>
            <circle cx="43" cy="37" r="1" transform="rotate(90 43 37)"/>
            <circle cx="43" cy="19" r="1" transform="rotate(90 43 19)"/>
            <circle cx="43" cy="55" r="1" transform="rotate(90 43 55)"/>
            <circle cx="43" cy="7" r="1" transform="rotate(90 43 7)"/>
            <circle cx="43" cy="43" r="1" transform="rotate(90 43 43)"/>
            <circle cx="43" cy="25" r="1" transform="rotate(90 43 25)"/>
            <circle cx="43" cy="61" r="1" transform="rotate(90 43 61)"/>
            <circle cx="43" cy="67" r="1" transform="rotate(90 43 67)"/>
            <circle cx="43" cy="73" r="1" transform="rotate(90 43 73)"/>
            <circle cx="7" cy="31" r="1" transform="rotate(90 7 31)"/>
            <circle cx="7" cy="13" r="1" transform="rotate(90 7 13)"/>
            <circle cx="7" cy="49" r="1" transform="rotate(90 7 49)"/>
            <circle cx="7" cy="1" r="1" transform="rotate(90 7 1)"/>
            <circle cx="7" cy="37" r="1" transform="rotate(90 7 37)"/>
            <circle cx="7" cy="19" r="1" transform="rotate(90 7 19)"/>
            <circle cx="7" cy="55" r="1" transform="rotate(90 7 55)"/>
            <circle cx="7" cy="7" r="1" transform="rotate(90 7 7)"/>
            <circle cx="7" cy="43" r="1" transform="rotate(90 7 43)"/>
            <circle cx="7" cy="25" r="1" transform="rotate(90 7 25)"/>
            <circle cx="7" cy="61" r="1" transform="rotate(90 7 61)"/>
            <circle cx="7" cy="67" r="1" transform="rotate(90 7 67)"/>
            <circle cx="7" cy="73" r="1" transform="rotate(90 7 73)"/>
            <circle cx="55" cy="31" r="1" transform="rotate(90 55 31)"/>
            <circle cx="55" cy="13" r="1" transform="rotate(90 55 13)"/>
            <circle cx="55" cy="49" r="1" transform="rotate(90 55 49)"/>
            <circle cx="55" cy="1" r="1" transform="rotate(90 55 1)"/>
            <circle cx="55" cy="37" r="1" transform="rotate(90 55 37)"/>
            <circle cx="55" cy="19" r="1" transform="rotate(90 55 19)"/>
            <circle cx="55" cy="55" r="1" transform="rotate(90 55 55)"/>
            <circle cx="55" cy="7" r="1" transform="rotate(90 55 7)"/>
            <circle cx="55" cy="43" r="1" transform="rotate(90 55 43)"/>
            <circle cx="55" cy="25" r="1" transform="rotate(90 55 25)"/>
            <circle cx="55" cy="61" r="1" transform="rotate(90 55 61)"/>
            <circle cx="55" cy="67" r="1" transform="rotate(90 55 67)"/>
            <circle cx="55" cy="73" r="1" transform="rotate(90 55 73)"/>
            <circle cx="19" cy="31" r="1" transform="rotate(90 19 31)"/>
            <circle cx="19" cy="13" r="1" transform="rotate(90 19 13)"/>
            <circle cx="19" cy="49" r="1" transform="rotate(90 19 49)"/>
            <circle cx="19" cy="1" r="1" transform="rotate(90 19 1)"/>
            <circle cx="19" cy="37" r="1" transform="rotate(90 19 37)"/>
            <circle cx="19" cy="19" r="1" transform="rotate(90 19 19)"/>
            <circle cx="19" cy="55" r="1" transform="rotate(90 19 55)"/>
            <circle cx="19" cy="7" r="1" transform="rotate(90 19 7)"/>
            <circle cx="19" cy="43" r="1" transform="rotate(90 19 43)"/>
            <circle cx="19" cy="25" r="1" transform="rotate(90 19 25)"/>
            <circle cx="19" cy="61" r="1" transform="rotate(90 19 61)"/>
            <circle cx="19" cy="67" r="1" transform="rotate(90 19 67)"/>
            <circle cx="19" cy="73" r="1" transform="rotate(90 19 73)"/>
            <circle cx="37" cy="31" r="1" transform="rotate(90 37 31)"/>
            <circle cx="37" cy="13" r="1" transform="rotate(90 37 13)"/>
            <circle cx="37" cy="49" r="1" transform="rotate(90 37 49)"/>
            <circle cx="37" cy="1" r="1" transform="rotate(90 37 1)"/>
            <circle cx="37" cy="37" r="1" transform="rotate(90 37 37)"/>
            <circle cx="37" cy="19" r="1" transform="rotate(90 37 19)"/>
            <circle cx="37" cy="55" r="1" transform="rotate(90 37 55)"/>
            <circle cx="37" cy="7" r="1" transform="rotate(90 37 7)"/>
            <circle cx="37" cy="43" r="1" transform="rotate(90 37 43)"/>
            <circle cx="37" cy="25" r="1" transform="rotate(90 37 25)"/>
            <circle cx="37" cy="61" r="1" transform="rotate(90 37 61)"/>
            <circle cx="37" cy="67" r="1" transform="rotate(90 37 67)"/>
            <circle cx="37" cy="73" r="1" transform="rotate(90 37 73)"/>
            <circle cx="1" cy="31" r="1" transform="rotate(90 1 31)"/>
            <circle cx="1" cy="13" r="1" transform="rotate(90 1 13)"/>
            <circle cx="1" cy="49" r="1" transform="rotate(90 1 49)"/>
            <circle cx="1" cy="1" r="1" transform="rotate(90 1 1)"/>
            <circle cx="1" cy="37" r="1" transform="rotate(90 1 37)"/>
            <circle cx="1" cy="19" r="1" transform="rotate(90 1 19)"/>
            <circle cx="1" cy="55" r="1" transform="rotate(90 1 55)"/>
            <circle cx="1" cy="7" r="1" transform="rotate(90 1 7)"/>
            <circle cx="1" cy="43" r="1" transform="rotate(90 1 43)"/>
            <circle cx="1" cy="25" r="1" transform="rotate(90 1 25)"/>
            <circle cx="1" cy="61" r="1" transform="rotate(90 1 61)"/>
            <circle cx="1" cy="67" r="1" transform="rotate(90 1 67)"/>
            <circle cx="1" cy="73" r="1" transform="rotate(90 1 73)"/>
            <circle cx="49" cy="31" r="1" transform="rotate(90 49 31)"/>
            <circle cx="49" cy="13" r="1" transform="rotate(90 49 13)"/>
            <circle cx="49" cy="49" r="1" transform="rotate(90 49 49)"/>
            <circle cx="49" cy="1" r="1" transform="rotate(90 49 1)"/>
            <circle cx="49" cy="37" r="1" transform="rotate(90 49 37)"/>
            <circle cx="49" cy="19" r="1" transform="rotate(90 49 19)"/>
            <circle cx="49" cy="55" r="1" transform="rotate(90 49 55)"/>
            <circle cx="49" cy="7" r="1" transform="rotate(90 49 7)"/>
            <circle cx="49" cy="43" r="1" transform="rotate(90 49 43)"/>
            <circle cx="49" cy="25" r="1" transform="rotate(90 49 25)"/>
            <circle cx="49" cy="61" r="1" transform="rotate(90 49 61)"/>
            <circle cx="49" cy="67" r="1" transform="rotate(90 49 67)"/>
            <circle cx="49" cy="73" r="1" transform="rotate(90 49 73)"/>
            <circle cx="13" cy="31" r="1" transform="rotate(90 13 31)"/>
            <circle cx="13" cy="13" r="1" transform="rotate(90 13 13)"/>
            <circle cx="13" cy="49" r="1" transform="rotate(90 13 49)"/>
            <circle cx="13" cy="1" r="1" transform="rotate(90 13 1)"/>
            <circle cx="13" cy="37" r="1" transform="rotate(90 13 37)"/>
            <circle cx="13" cy="19" r="1" transform="rotate(90 13 19)"/>
            <circle cx="13" cy="55" r="1" transform="rotate(90 13 55)"/>
            <circle cx="13" cy="7" r="1" transform="rotate(90 13 7)"/>
            <circle cx="13" cy="43" r="1" transform="rotate(90 13 43)"/>
            <circle cx="13" cy="25" r="1" transform="rotate(90 13 25)"/>
            <circle cx="13" cy="61" r="1" transform="rotate(90 13 61)"/>
            <circle cx="13" cy="67" r="1" transform="rotate(90 13 67)"/>
            <circle cx="13" cy="73" r="1" transform="rotate(90 13 73)"/>
            <circle cx="31" cy="31" r="1" transform="rotate(90 31 31)"/>
            <circle cx="31" cy="13" r="1" transform="rotate(90 31 13)"/>
            <circle cx="31" cy="49" r="1" transform="rotate(90 31 49)"/>
            <circle cx="31" cy="1" r="1" transform="rotate(90 31 1)"/>
            <circle cx="31" cy="37" r="1" transform="rotate(90 31 37)"/>
            <circle cx="31" cy="19" r="1" transform="rotate(90 31 19)"/>
            <circle cx="31" cy="55" r="1" transform="rotate(90 31 55)"/>
            <circle cx="31" cy="7" r="1" transform="rotate(90 31 7)"/>
            <circle cx="31" cy="43" r="1" transform="rotate(90 31 43)"/>
            <circle cx="31" cy="25" r="1" transform="rotate(90 31 25)"/>
            <circle cx="127" cy="1" r="1" transform="rotate(90 127 1)"/>
            <circle cx="127" cy="73" r="1" transform="rotate(90 127 73)"/>
            <circle cx="127" cy="37" r="1" transform="rotate(90 127 37)"/>
            <circle cx="127" cy="19" r="1" transform="rotate(90 127 19)"/>
            <circle cx="127" cy="55" r="1" transform="rotate(90 127 55)"/>
            <circle cx="127" cy="7" r="1" transform="rotate(90 127 7)"/>
            <circle cx="127" cy="43" r="1" transform="rotate(90 127 43)"/>
            <circle cx="127" cy="25" r="1" transform="rotate(90 127 25)"/>
            <circle cx="127" cy="61" r="1" transform="rotate(90 127 61)"/>
            <circle cx="127" cy="13" r="1" transform="rotate(90 127 13)"/>
            <circle cx="127" cy="49" r="1" transform="rotate(90 127 49)"/>
            <circle cx="127" cy="31" r="1" transform="rotate(90 127 31)"/>
            <circle cx="127" cy="67" r="1" transform="rotate(90 127 67)"/>
            <circle cx="91" cy="1" r="1" transform="rotate(90 91 1)"/>
            <circle cx="91" cy="73" r="1" transform="rotate(90 91 73)"/>
            <circle cx="91" cy="37" r="1" transform="rotate(90 91 37)"/>
            <circle cx="91" cy="19" r="1" transform="rotate(90 91 19)"/>
            <circle cx="91" cy="55" r="1" transform="rotate(90 91 55)"/>
            <circle cx="91" cy="7" r="1" transform="rotate(90 91 7)"/>
            <circle cx="91" cy="43" r="1" transform="rotate(90 91 43)"/>
            <circle cx="91" cy="25" r="1" transform="rotate(90 91 25)"/>
            <circle cx="91" cy="61" r="1" transform="rotate(90 91 61)"/>
            <circle cx="91" cy="13" r="1" transform="rotate(90 91 13)"/>
            <circle cx="91" cy="49" r="1" transform="rotate(90 91 49)"/>
            <circle cx="91" cy="31" r="1" transform="rotate(90 91 31)"/>
            <circle cx="91" cy="67" r="1" transform="rotate(90 91 67)"/>
            <circle cx="109" cy="1" r="1" transform="rotate(90 109 1)"/>
            <circle cx="109" cy="73" r="1" transform="rotate(90 109 73)"/>
            <circle cx="109" cy="37" r="1" transform="rotate(90 109 37)"/>
            <circle cx="109" cy="19" r="1" transform="rotate(90 109 19)"/>
            <circle cx="109" cy="55" r="1" transform="rotate(90 109 55)"/>
            <circle cx="109" cy="7" r="1" transform="rotate(90 109 7)"/>
            <circle cx="109" cy="43" r="1" transform="rotate(90 109 43)"/>
            <circle cx="109" cy="25" r="1" transform="rotate(90 109 25)"/>
            <circle cx="109" cy="61" r="1" transform="rotate(90 109 61)"/>
            <circle cx="109" cy="13" r="1" transform="rotate(90 109 13)"/>
            <circle cx="109" cy="49" r="1" transform="rotate(90 109 49)"/>
            <circle cx="109" cy="31" r="1" transform="rotate(90 109 31)"/>
            <circle cx="109" cy="67" r="1" transform="rotate(90 109 67)"/>
            <circle cx="73" cy="1" r="1" transform="rotate(90 73 1)"/>
            <circle cx="73" cy="73" r="1" transform="rotate(90 73 73)"/>
            <circle cx="73" cy="37" r="1" transform="rotate(90 73 37)"/>
            <circle cx="73" cy="19" r="1" transform="rotate(90 73 19)"/>
            <circle cx="73" cy="55" r="1" transform="rotate(90 73 55)"/>
            <circle cx="73" cy="7" r="1" transform="rotate(90 73 7)"/>
            <circle cx="73" cy="43" r="1" transform="rotate(90 73 43)"/>
            <circle cx="73" cy="25" r="1" transform="rotate(90 73 25)"/>
            <circle cx="73" cy="61" r="1" transform="rotate(90 73 61)"/>
            <circle cx="73" cy="13" r="1" transform="rotate(90 73 13)"/>
            <circle cx="73" cy="49" r="1" transform="rotate(90 73 49)"/>
            <circle cx="73" cy="31" r="1" transform="rotate(90 73 31)"/>
            <circle cx="73" cy="67" r="1" transform="rotate(90 73 67)"/>
            <circle cx="121" cy="1" r="1" transform="rotate(90 121 1)"/>
            <circle cx="121" cy="73" r="1" transform="rotate(90 121 73)"/>
            <circle cx="121" cy="37" r="1" transform="rotate(90 121 37)"/>
            <circle cx="121" cy="19" r="1" transform="rotate(90 121 19)"/>
            <circle cx="121" cy="55" r="1" transform="rotate(90 121 55)"/>
            <circle cx="121" cy="7" r="1" transform="rotate(90 121 7)"/>
            <circle cx="121" cy="43" r="1" transform="rotate(90 121 43)"/>
            <circle cx="121" cy="25" r="1" transform="rotate(90 121 25)"/>
            <circle cx="121" cy="61" r="1" transform="rotate(90 121 61)"/>
            <circle cx="121" cy="13" r="1" transform="rotate(90 121 13)"/>
            <circle cx="121" cy="49" r="1" transform="rotate(90 121 49)"/>
            <circle cx="121" cy="31" r="1" transform="rotate(90 121 31)"/>
            <circle cx="121" cy="67" r="1" transform="rotate(90 121 67)"/>
            <circle cx="85" cy="1" r="1" transform="rotate(90 85 1)"/>
            <circle cx="85" cy="73" r="1" transform="rotate(90 85 73)"/>
            <circle cx="85" cy="37" r="1" transform="rotate(90 85 37)"/>
            <circle cx="85" cy="19" r="1" transform="rotate(90 85 19)"/>
            <circle cx="85" cy="55" r="1" transform="rotate(90 85 55)"/>
            <circle cx="85" cy="7" r="1" transform="rotate(90 85 7)"/>
            <circle cx="85" cy="43" r="1" transform="rotate(90 85 43)"/>
            <circle cx="85" cy="25" r="1" transform="rotate(90 85 25)"/>
            <circle cx="85" cy="61" r="1" transform="rotate(90 85 61)"/>
            <circle cx="85" cy="13" r="1" transform="rotate(90 85 13)"/>
            <circle cx="85" cy="49" r="1" transform="rotate(90 85 49)"/>
            <circle cx="85" cy="31" r="1" transform="rotate(90 85 31)"/>
            <circle cx="85" cy="67" r="1" transform="rotate(90 85 67)"/>
            <circle cx="103" cy="1" r="1" transform="rotate(90 103 1)"/>
            <circle cx="103" cy="73" r="1" transform="rotate(90 103 73)"/>
            <circle cx="103" cy="37" r="1" transform="rotate(90 103 37)"/>
            <circle cx="103" cy="19" r="1" transform="rotate(90 103 19)"/>
            <circle cx="103" cy="55" r="1" transform="rotate(90 103 55)"/>
            <circle cx="103" cy="7" r="1" transform="rotate(90 103 7)"/>
            <circle cx="103" cy="43" r="1" transform="rotate(90 103 43)"/>
            <circle cx="103" cy="25" r="1" transform="rotate(90 103 25)"/>
            <circle cx="103" cy="61" r="1" transform="rotate(90 103 61)"/>
            <circle cx="103" cy="13" r="1" transform="rotate(90 103 13)"/>
            <circle cx="103" cy="49" r="1" transform="rotate(90 103 49)"/>
            <circle cx="103" cy="31" r="1" transform="rotate(90 103 31)"/>
            <circle cx="103" cy="67" r="1" transform="rotate(90 103 67)"/>
            <circle cx="67" cy="1" r="1" transform="rotate(90 67 1)"/>
            <circle cx="67" cy="73" r="1" transform="rotate(90 67 73)"/>
            <circle cx="67" cy="37" r="1" transform="rotate(90 67 37)"/>
            <circle cx="67" cy="19" r="1" transform="rotate(90 67 19)"/>
            <circle cx="67" cy="55" r="1" transform="rotate(90 67 55)"/>
            <circle cx="67" cy="7" r="1" transform="rotate(90 67 7)"/>
            <circle cx="67" cy="43" r="1" transform="rotate(90 67 43)"/>
            <circle cx="67" cy="25" r="1" transform="rotate(90 67 25)"/>
            <circle cx="67" cy="61" r="1" transform="rotate(90 67 61)"/>
            <circle cx="67" cy="13" r="1" transform="rotate(90 67 13)"/>
            <circle cx="67" cy="49" r="1" transform="rotate(90 67 49)"/>
            <circle cx="67" cy="31" r="1" transform="rotate(90 67 31)"/>
            <circle cx="67" cy="67" r="1" transform="rotate(90 67 67)"/>
            <circle cx="115" cy="1" r="1" transform="rotate(90 115 1)"/>
            <circle cx="115" cy="73" r="1" transform="rotate(90 115 73)"/>
            <circle cx="115" cy="37" r="1" transform="rotate(90 115 37)"/>
            <circle cx="115" cy="19" r="1" transform="rotate(90 115 19)"/>
            <circle cx="115" cy="55" r="1" transform="rotate(90 115 55)"/>
            <circle cx="115" cy="7" r="1" transform="rotate(90 115 7)"/>
            <circle cx="115" cy="43" r="1" transform="rotate(90 115 43)"/>
            <circle cx="115" cy="25" r="1" transform="rotate(90 115 25)"/>
            <circle cx="115" cy="61" r="1" transform="rotate(90 115 61)"/>
            <circle cx="115" cy="13" r="1" transform="rotate(90 115 13)"/>
            <circle cx="115" cy="49" r="1" transform="rotate(90 115 49)"/>
            <circle cx="115" cy="31" r="1" transform="rotate(90 115 31)"/>
            <circle cx="115" cy="67" r="1" transform="rotate(90 115 67)"/>
            <circle cx="79" cy="1" r="1" transform="rotate(90 79 1)"/>
            <circle cx="79" cy="73" r="1" transform="rotate(90 79 73)"/>
            <circle cx="79" cy="37" r="1" transform="rotate(90 79 37)"/>
            <circle cx="79" cy="19" r="1" transform="rotate(90 79 19)"/>
            <circle cx="79" cy="55" r="1" transform="rotate(90 79 55)"/>
            <circle cx="79" cy="7" r="1" transform="rotate(90 79 7)"/>
            <circle cx="79" cy="43" r="1" transform="rotate(90 79 43)"/>
            <circle cx="79" cy="25" r="1" transform="rotate(90 79 25)"/>
            <circle cx="79" cy="61" r="1" transform="rotate(90 79 61)"/>
            <circle cx="79" cy="13" r="1" transform="rotate(90 79 13)"/>
            <circle cx="79" cy="49" r="1" transform="rotate(90 79 49)"/>
            <circle cx="79" cy="31" r="1" transform="rotate(90 79 31)"/>
            <circle cx="79" cy="67" r="1" transform="rotate(90 79 67)"/>
            <circle cx="97" cy="1" r="1" transform="rotate(90 97 1)"/>
            <circle cx="97" cy="73" r="1" transform="rotate(90 97 73)"/>
            <circle cx="97" cy="37" r="1" transform="rotate(90 97 37)"/>
            <circle cx="97" cy="19" r="1" transform="rotate(90 97 19)"/>
            <circle cx="97" cy="55" r="1" transform="rotate(90 97 55)"/>
            <circle cx="97" cy="7" r="1" transform="rotate(90 97 7)"/>
            <circle cx="97" cy="43" r="1" transform="rotate(90 97 43)"/>
            <circle cx="97" cy="25" r="1" transform="rotate(90 97 25)"/>
            <circle cx="97" cy="61" r="1" transform="rotate(90 97 61)"/>
            <circle cx="97" cy="13" r="1" transform="rotate(90 97 13)"/>
            <circle cx="97" cy="49" r="1" transform="rotate(90 97 49)"/>
            <circle cx="97" cy="31" r="1" transform="rotate(90 97 31)"/>
            <circle cx="97" cy="67" r="1" transform="rotate(90 97 67)"/>
            <circle cx="31" cy="61" r="1" transform="rotate(90 31 61)"/>
            <circle cx="31" cy="67" r="1" transform="rotate(90 31 67)"/>
            <circle cx="31" cy="73" r="1" transform="rotate(90 31 73)"/>
        </g>
        <path stroke="#FD5750" d="M19.809 60.5H91c12.979 0 23.5-10.521 23.5-23.5S103.979 13.5 91 13.5H43.299l-23.49 47z"/>
        <path stroke="#FD5750" d="M61.167 54.5H91c9.665 0 17.5-7.835 17.5-17.5S100.665 19.5 91 19.5H14.5l46.667 35z"/>
        <path stroke="#FD5750" d="M38 48.5h53c6.351 0 11.5-5.149 11.5-11.5S97.351 25.5 91 25.5H55.25L38 48.5z"/>
        <path stroke="#FD5750" d="M49.151 42.5H91a5.5 5.5 0 0 0 0-11H32.651l16.5 11z"/>
    </g>
</svg>
