<svg xmlns="http://www.w3.org/2000/svg" width="128" height="74" viewBox="0 0 128 74">
    <g fill="none" fill-rule="evenodd">
        <path fill="#DFE5E6" d="M60 31a1 1 0 1 1 2 0 1 1 0 0 1-2 0zm0-18a1 1 0 1 1 2 0 1 1 0 0 1-2 0zm0 36a1 1 0 1 1 2 0 1 1 0 0 1-2 0zm0-48a1 1 0 1 1 2 0 1 1 0 0 1-2 0zm0 36a1 1 0 1 1 2 0 1 1 0 0 1-2 0zm0-18a1 1 0 1 1 2 0 1 1 0 0 1-2 0zm0 36a1 1 0 1 1 2 0 1 1 0 0 1-2 0zm0-48a1 1 0 1 1 2 0 1 1 0 0 1-2 0zm0 36a1 1 0 1 1 2 0 1 1 0 0 1-2 0zm0-18a1 1 0 1 1 2 0 1 1 0 0 1-2 0zm0 36a1 1 0 1 1 2 0 1 1 0 0 1-2 0zm0 6a1 1 0 1 1 2 0 1 1 0 0 1-2 0zm0 6a1 1 0 1 1 2 0 1 1 0 0 1-2 0zM24 31a1 1 0 1 1 2 0 1 1 0 0 1-2 0zm0-18a1 1 0 1 1 2 0 1 1 0 0 1-2 0zm0 36a1 1 0 1 1 2 0 1 1 0 0 1-2 0zm0-48a1 1 0 1 1 2 0 1 1 0 0 1-2 0zm0 36a1 1 0 1 1 2 0 1 1 0 0 1-2 0zm0-18a1 1 0 1 1 2 0 1 1 0 0 1-2 0zm0 36a1 1 0 1 1 2 0 1 1 0 0 1-2 0zm0-48a1 1 0 1 1 2 0 1 1 0 0 1-2 0zm0 36a1 1 0 1 1 2 0 1 1 0 0 1-2 0zm0-18a1 1 0 1 1 2 0 1 1 0 0 1-2 0zm0 36a1 1 0 1 1 2 0 1 1 0 0 1-2 0zm0 6a1 1 0 1 1 2 0 1 1 0 0 1-2 0zm0 6a1 1 0 1 1 2 0 1 1 0 0 1-2 0zm18-42a1 1 0 1 1 2 0 1 1 0 0 1-2 0zm0-18a1 1 0 1 1 2 0 1 1 0 0 1-2 0zm0 36a1 1 0 1 1 2 0 1 1 0 0 1-2 0zm0-48a1 1 0 1 1 2 0 1 1 0 0 1-2 0zm0 36a1 1 0 1 1 2 0 1 1 0 0 1-2 0zm0-18a1 1 0 1 1 2 0 1 1 0 0 1-2 0zm0 36a1 1 0 1 1 2 0 1 1 0 0 1-2 0zm0-48a1 1 0 1 1 2 0 1 1 0 0 1-2 0zm0 36a1 1 0 1 1 2 0 1 1 0 0 1-2 0zm0-18a1 1 0 1 1 2 0 1 1 0 0 1-2 0zm0 36a1 1 0 1 1 2 0 1 1 0 0 1-2 0zm0 6a1 1 0 1 1 2 0 1 1 0 0 1-2 0zm0 6a1 1 0 1 1 2 0 1 1 0 0 1-2 0zM6 31a1 1 0 1 1 2 0 1 1 0 0 1-2 0zm0-18a1 1 0 1 1 2 0 1 1 0 0 1-2 0zm0 36a1 1 0 1 1 2 0 1 1 0 0 1-2 0zM6 1a1 1 0 1 1 2 0 1 1 0 0 1-2 0zm0 36a1 1 0 1 1 2 0 1 1 0 0 1-2 0zm0-18a1 1 0 1 1 2 0 1 1 0 0 1-2 0zm0 36a1 1 0 1 1 2 0 1 1 0 0 1-2 0zM6 7a1 1 0 1 1 2 0 1 1 0 0 1-2 0zm0 36a1 1 0 1 1 2 0 1 1 0 0 1-2 0zm0-18a1 1 0 1 1 2 0 1 1 0 0 1-2 0zm0 36a1 1 0 1 1 2 0 1 1 0 0 1-2 0zm0 6a1 1 0 1 1 2 0 1 1 0 0 1-2 0zm0 6a1 1 0 1 1 2 0 1 1 0 0 1-2 0zm48-42a1 1 0 1 1 2 0 1 1 0 0 1-2 0zm0-18a1 1 0 1 1 2 0 1 1 0 0 1-2 0zm0 36a1 1 0 1 1 2 0 1 1 0 0 1-2 0zm0-48a1 1 0 1 1 2 0 1 1 0 0 1-2 0zm0 36a1 1 0 1 1 2 0 1 1 0 0 1-2 0zm0-18a1 1 0 1 1 2 0 1 1 0 0 1-2 0zm0 36a1 1 0 1 1 2 0 1 1 0 0 1-2 0zm0-48a1 1 0 1 1 2 0 1 1 0 0 1-2 0zm0 36a1 1 0 1 1 2 0 1 1 0 0 1-2 0zm0-18a1 1 0 1 1 2 0 1 1 0 0 1-2 0zm0 36a1 1 0 1 1 2 0 1 1 0 0 1-2 0zm0 6a1 1 0 1 1 2 0 1 1 0 0 1-2 0zm0 6a1 1 0 1 1 2 0 1 1 0 0 1-2 0zM18 31a1 1 0 1 1 2 0 1 1 0 0 1-2 0zm0-18a1 1 0 1 1 2 0 1 1 0 0 1-2 0zm0 36a1 1 0 1 1 2 0 1 1 0 0 1-2 0zm0-48a1 1 0 1 1 2 0 1 1 0 0 1-2 0zm0 36a1 1 0 1 1 2 0 1 1 0 0 1-2 0zm0-18a1 1 0 1 1 2 0 1 1 0 0 1-2 0zm0 36a1 1 0 1 1 2 0 1 1 0 0 1-2 0zm0-48a1 1 0 1 1 2 0 1 1 0 0 1-2 0zm0 36a1 1 0 1 1 2 0 1 1 0 0 1-2 0zm0-18a1 1 0 1 1 2 0 1 1 0 0 1-2 0zm0 36a1 1 0 1 1 2 0 1 1 0 0 1-2 0zm0 6a1 1 0 1 1 2 0 1 1 0 0 1-2 0zm0 6a1 1 0 1 1 2 0 1 1 0 0 1-2 0zm18-42a1 1 0 1 1 2 0 1 1 0 0 1-2 0zm0-18a1 1 0 1 1 2 0 1 1 0 0 1-2 0zm0 36a1 1 0 1 1 2 0 1 1 0 0 1-2 0zm0-48a1 1 0 1 1 2 0 1 1 0 0 1-2 0zm0 36a1 1 0 1 1 2 0 1 1 0 0 1-2 0zm0-18a1 1 0 1 1 2 0 1 1 0 0 1-2 0zm0 36a1 1 0 1 1 2 0 1 1 0 0 1-2 0zm0-48a1 1 0 1 1 2 0 1 1 0 0 1-2 0zm0 36a1 1 0 1 1 2 0 1 1 0 0 1-2 0zm0-18a1 1 0 1 1 2 0 1 1 0 0 1-2 0zm0 36a1 1 0 1 1 2 0 1 1 0 0 1-2 0zm0 6a1 1 0 1 1 2 0 1 1 0 0 1-2 0zm0 6a1 1 0 1 1 2 0 1 1 0 0 1-2 0zM0 31a1 1 0 1 1 2 0 1 1 0 0 1-2 0zm0-18a1 1 0 1 1 2 0 1 1 0 0 1-2 0zm0 36a1 1 0 1 1 2 0 1 1 0 0 1-2 0zM0 1a1 1 0 1 1 2 0 1 1 0 0 1-2 0zm0 36a1 1 0 1 1 2 0 1 1 0 0 1-2 0zm0-18a1 1 0 1 1 2 0 1 1 0 0 1-2 0zm0 36a1 1 0 1 1 2 0 1 1 0 0 1-2 0zM0 7a1 1 0 1 1 2 0 1 1 0 0 1-2 0zm0 36a1 1 0 1 1 2 0 1 1 0 0 1-2 0zm0-18a1 1 0 1 1 2 0 1 1 0 0 1-2 0zm0 36a1 1 0 1 1 2 0 1 1 0 0 1-2 0zm0 6a1 1 0 1 1 2 0 1 1 0 0 1-2 0zm0 6a1 1 0 1 1 2 0 1 1 0 0 1-2 0zm48-42a1 1 0 1 1 2 0 1 1 0 0 1-2 0zm0-18a1 1 0 1 1 2 0 1 1 0 0 1-2 0zm0 36a1 1 0 1 1 2 0 1 1 0 0 1-2 0zm0-48a1 1 0 1 1 2 0 1 1 0 0 1-2 0zm0 36a1 1 0 1 1 2 0 1 1 0 0 1-2 0zm0-18a1 1 0 1 1 2 0 1 1 0 0 1-2 0zm0 36a1 1 0 1 1 2 0 1 1 0 0 1-2 0zm0-48a1 1 0 1 1 2 0 1 1 0 0 1-2 0zm0 36a1 1 0 1 1 2 0 1 1 0 0 1-2 0zm0-18a1 1 0 1 1 2 0 1 1 0 0 1-2 0zm0 36a1 1 0 1 1 2 0 1 1 0 0 1-2 0zm0 6a1 1 0 1 1 2 0 1 1 0 0 1-2 0zm0 6a1 1 0 1 1 2 0 1 1 0 0 1-2 0zM12 31a1 1 0 1 1 2 0 1 1 0 0 1-2 0zm0-18a1 1 0 1 1 2 0 1 1 0 0 1-2 0zm0 36a1 1 0 1 1 2 0 1 1 0 0 1-2 0zm0-48a1 1 0 1 1 2 0 1 1 0 0 1-2 0zm0 36a1 1 0 1 1 2 0 1 1 0 0 1-2 0zm0-18a1 1 0 1 1 2 0 1 1 0 0 1-2 0zm0 36a1 1 0 1 1 2 0 1 1 0 0 1-2 0zm0-48a1 1 0 1 1 2 0 1 1 0 0 1-2 0zm0 36a1 1 0 1 1 2 0 1 1 0 0 1-2 0zm0-18a1 1 0 1 1 2 0 1 1 0 0 1-2 0zm0 36a1 1 0 1 1 2 0 1 1 0 0 1-2 0zm0 6a1 1 0 1 1 2 0 1 1 0 0 1-2 0zm0 6a1 1 0 1 1 2 0 1 1 0 0 1-2 0zm18-42a1 1 0 1 1 2 0 1 1 0 0 1-2 0zm0-18a1 1 0 1 1 2 0 1 1 0 0 1-2 0zm0 36a1 1 0 1 1 2 0 1 1 0 0 1-2 0zm0-48a1 1 0 1 1 2 0 1 1 0 0 1-2 0zm0 36a1 1 0 1 1 2 0 1 1 0 0 1-2 0zm0-18a1 1 0 1 1 2 0 1 1 0 0 1-2 0zm0 36a1 1 0 1 1 2 0 1 1 0 0 1-2 0zm0-48a1 1 0 1 1 2 0 1 1 0 0 1-2 0zm0 36a1 1 0 1 1 2 0 1 1 0 0 1-2 0zm0-18a1 1 0 1 1 2 0 1 1 0 0 1-2 0zm96-24a1 1 0 1 1 2 0 1 1 0 0 1-2 0zm0 72a1 1 0 1 1 2 0 1 1 0 0 1-2 0zm0-36a1 1 0 1 1 2 0 1 1 0 0 1-2 0zm0-18a1 1 0 1 1 2 0 1 1 0 0 1-2 0zm0 36a1 1 0 1 1 2 0 1 1 0 0 1-2 0zm0-48a1 1 0 1 1 2 0 1 1 0 0 1-2 0zm0 36a1 1 0 1 1 2 0 1 1 0 0 1-2 0zm0-18a1 1 0 1 1 2 0 1 1 0 0 1-2 0zm0 36a1 1 0 1 1 2 0 1 1 0 0 1-2 0zm0-48a1 1 0 1 1 2 0 1 1 0 0 1-2 0zm0 36a1 1 0 1 1 2 0 1 1 0 0 1-2 0zm0-18a1 1 0 1 1 2 0 1 1 0 0 1-2 0zm0 36a1 1 0 1 1 2 0 1 1 0 0 1-2 0zM90 1a1 1 0 1 1 2 0 1 1 0 0 1-2 0zm0 72a1 1 0 1 1 2 0 1 1 0 0 1-2 0zm0-36a1 1 0 1 1 2 0 1 1 0 0 1-2 0zm0-18a1 1 0 1 1 2 0 1 1 0 0 1-2 0zm0 36a1 1 0 1 1 2 0 1 1 0 0 1-2 0zm0-48a1 1 0 1 1 2 0 1 1 0 0 1-2 0zm0 36a1 1 0 1 1 2 0 1 1 0 0 1-2 0zm0-18a1 1 0 1 1 2 0 1 1 0 0 1-2 0zm0 36a1 1 0 1 1 2 0 1 1 0 0 1-2 0zm0-48a1 1 0 1 1 2 0 1 1 0 0 1-2 0zm0 36a1 1 0 1 1 2 0 1 1 0 0 1-2 0zm0-18a1 1 0 1 1 2 0 1 1 0 0 1-2 0zm0 36a1 1 0 1 1 2 0 1 1 0 0 1-2 0zm18-66a1 1 0 1 1 2 0 1 1 0 0 1-2 0zm0 72a1 1 0 1 1 2 0 1 1 0 0 1-2 0zm0-36a1 1 0 1 1 2 0 1 1 0 0 1-2 0zm0-18a1 1 0 1 1 2 0 1 1 0 0 1-2 0zm0 36a1 1 0 1 1 2 0 1 1 0 0 1-2 0zm0-48a1 1 0 1 1 2 0 1 1 0 0 1-2 0zm0 36a1 1 0 1 1 2 0 1 1 0 0 1-2 0zm0-18a1 1 0 1 1 2 0 1 1 0 0 1-2 0zm0 36a1 1 0 1 1 2 0 1 1 0 0 1-2 0zm0-48a1 1 0 1 1 2 0 1 1 0 0 1-2 0zm0 36a1 1 0 1 1 2 0 1 1 0 0 1-2 0zm0-18a1 1 0 1 1 2 0 1 1 0 0 1-2 0zm0 36a1 1 0 1 1 2 0 1 1 0 0 1-2 0zM72 1a1 1 0 1 1 2 0 1 1 0 0 1-2 0zm0 72a1 1 0 1 1 2 0 1 1 0 0 1-2 0zm0-36a1 1 0 1 1 2 0 1 1 0 0 1-2 0zm0-18a1 1 0 1 1 2 0 1 1 0 0 1-2 0zm0 36a1 1 0 1 1 2 0 1 1 0 0 1-2 0zm0-48a1 1 0 1 1 2 0 1 1 0 0 1-2 0zm0 36a1 1 0 1 1 2 0 1 1 0 0 1-2 0zm0-18a1 1 0 1 1 2 0 1 1 0 0 1-2 0zm0 36a1 1 0 1 1 2 0 1 1 0 0 1-2 0zm0-48a1 1 0 1 1 2 0 1 1 0 0 1-2 0zm0 36a1 1 0 1 1 2 0 1 1 0 0 1-2 0zm0-18a1 1 0 1 1 2 0 1 1 0 0 1-2 0zm0 36a1 1 0 1 1 2 0 1 1 0 0 1-2 0zm48-66a1 1 0 1 1 2 0 1 1 0 0 1-2 0zm0 72a1 1 0 1 1 2 0 1 1 0 0 1-2 0zm0-36a1 1 0 1 1 2 0 1 1 0 0 1-2 0zm0-18a1 1 0 1 1 2 0 1 1 0 0 1-2 0zm0 36a1 1 0 1 1 2 0 1 1 0 0 1-2 0zm0-48a1 1 0 1 1 2 0 1 1 0 0 1-2 0zm0 36a1 1 0 1 1 2 0 1 1 0 0 1-2 0zm0-18a1 1 0 1 1 2 0 1 1 0 0 1-2 0zm0 36a1 1 0 1 1 2 0 1 1 0 0 1-2 0zm0-48a1 1 0 1 1 2 0 1 1 0 0 1-2 0zm0 36a1 1 0 1 1 2 0 1 1 0 0 1-2 0zm0-18a1 1 0 1 1 2 0 1 1 0 0 1-2 0zm0 36a1 1 0 1 1 2 0 1 1 0 0 1-2 0zM84 1a1 1 0 1 1 2 0 1 1 0 0 1-2 0zm0 72a1 1 0 1 1 2 0 1 1 0 0 1-2 0zm0-36a1 1 0 1 1 2 0 1 1 0 0 1-2 0zm0-18a1 1 0 1 1 2 0 1 1 0 0 1-2 0zm0 36a1 1 0 1 1 2 0 1 1 0 0 1-2 0zm0-48a1 1 0 1 1 2 0 1 1 0 0 1-2 0zm0 36a1 1 0 1 1 2 0 1 1 0 0 1-2 0zm0-18a1 1 0 1 1 2 0 1 1 0 0 1-2 0zm0 36a1 1 0 1 1 2 0 1 1 0 0 1-2 0zm0-48a1 1 0 1 1 2 0 1 1 0 0 1-2 0zm0 36a1 1 0 1 1 2 0 1 1 0 0 1-2 0zm0-18a1 1 0 1 1 2 0 1 1 0 0 1-2 0zm0 36a1 1 0 1 1 2 0 1 1 0 0 1-2 0zm18-66a1 1 0 1 1 2 0 1 1 0 0 1-2 0zm0 72a1 1 0 1 1 2 0 1 1 0 0 1-2 0zm0-36a1 1 0 1 1 2 0 1 1 0 0 1-2 0zm0-18a1 1 0 1 1 2 0 1 1 0 0 1-2 0zm0 36a1 1 0 1 1 2 0 1 1 0 0 1-2 0zm0-48a1 1 0 1 1 2 0 1 1 0 0 1-2 0zm0 36a1 1 0 1 1 2 0 1 1 0 0 1-2 0zm0-18a1 1 0 1 1 2 0 1 1 0 0 1-2 0zm0 36a1 1 0 1 1 2 0 1 1 0 0 1-2 0zm0-48a1 1 0 1 1 2 0 1 1 0 0 1-2 0zm0 36a1 1 0 1 1 2 0 1 1 0 0 1-2 0zm0-18a1 1 0 1 1 2 0 1 1 0 0 1-2 0zm0 36a1 1 0 1 1 2 0 1 1 0 0 1-2 0zM66 1a1 1 0 1 1 2 0 1 1 0 0 1-2 0zm0 72a1 1 0 1 1 2 0 1 1 0 0 1-2 0zm0-36a1 1 0 1 1 2 0 1 1 0 0 1-2 0zm0-18a1 1 0 1 1 2 0 1 1 0 0 1-2 0zm0 36a1 1 0 1 1 2 0 1 1 0 0 1-2 0zm0-48a1 1 0 1 1 2 0 1 1 0 0 1-2 0zm0 36a1 1 0 1 1 2 0 1 1 0 0 1-2 0zm0-18a1 1 0 1 1 2 0 1 1 0 0 1-2 0zm0 36a1 1 0 1 1 2 0 1 1 0 0 1-2 0zm0-48a1 1 0 1 1 2 0 1 1 0 0 1-2 0zm0 36a1 1 0 1 1 2 0 1 1 0 0 1-2 0zm0-18a1 1 0 1 1 2 0 1 1 0 0 1-2 0zm0 36a1 1 0 1 1 2 0 1 1 0 0 1-2 0zm48-66a1 1 0 1 1 2 0 1 1 0 0 1-2 0zm0 72a1 1 0 1 1 2 0 1 1 0 0 1-2 0zm0-36a1 1 0 1 1 2 0 1 1 0 0 1-2 0zm0-18a1 1 0 1 1 2 0 1 1 0 0 1-2 0zm0 36a1 1 0 1 1 2 0 1 1 0 0 1-2 0zm0-48a1 1 0 1 1 2 0 1 1 0 0 1-2 0zm0 36a1 1 0 1 1 2 0 1 1 0 0 1-2 0zm0-18a1 1 0 1 1 2 0 1 1 0 0 1-2 0zm0 36a1 1 0 1 1 2 0 1 1 0 0 1-2 0zm0-48a1 1 0 1 1 2 0 1 1 0 0 1-2 0zm0 36a1 1 0 1 1 2 0 1 1 0 0 1-2 0zm0-18a1 1 0 1 1 2 0 1 1 0 0 1-2 0zm0 36a1 1 0 1 1 2 0 1 1 0 0 1-2 0zM78 1a1 1 0 1 1 2 0 1 1 0 0 1-2 0zm0 72a1 1 0 1 1 2 0 1 1 0 0 1-2 0zm0-36a1 1 0 1 1 2 0 1 1 0 0 1-2 0zm0-18a1 1 0 1 1 2 0 1 1 0 0 1-2 0zm0 36a1 1 0 1 1 2 0 1 1 0 0 1-2 0zm0-48a1 1 0 1 1 2 0 1 1 0 0 1-2 0zm0 36a1 1 0 1 1 2 0 1 1 0 0 1-2 0zm0-18a1 1 0 1 1 2 0 1 1 0 0 1-2 0zm0 36a1 1 0 1 1 2 0 1 1 0 0 1-2 0zm0-48a1 1 0 1 1 2 0 1 1 0 0 1-2 0zm0 36a1 1 0 1 1 2 0 1 1 0 0 1-2 0zm0-18a1 1 0 1 1 2 0 1 1 0 0 1-2 0zm0 36a1 1 0 1 1 2 0 1 1 0 0 1-2 0zM96 1a1 1 0 1 1 2 0 1 1 0 0 1-2 0zm0 72a1 1 0 1 1 2 0 1 1 0 0 1-2 0zm0-36a1 1 0 1 1 2 0 1 1 0 0 1-2 0zm0-18a1 1 0 1 1 2 0 1 1 0 0 1-2 0zm0 36a1 1 0 1 1 2 0 1 1 0 0 1-2 0zm0-48a1 1 0 1 1 2 0 1 1 0 0 1-2 0zm0 36a1 1 0 1 1 2 0 1 1 0 0 1-2 0zm0-18a1 1 0 1 1 2 0 1 1 0 0 1-2 0zm0 36a1 1 0 1 1 2 0 1 1 0 0 1-2 0zm0-48a1 1 0 1 1 2 0 1 1 0 0 1-2 0zm0 36a1 1 0 1 1 2 0 1 1 0 0 1-2 0zm0-18a1 1 0 1 1 2 0 1 1 0 0 1-2 0zm0 36a1 1 0 1 1 2 0 1 1 0 0 1-2 0zm-66-6a1 1 0 1 1 2 0 1 1 0 0 1-2 0zm0 6a1 1 0 1 1 2 0 1 1 0 0 1-2 0zm0 6a1 1 0 1 1 2 0 1 1 0 0 1-2 0z"/>
        <path stroke="#FD5750" d="M7.5 7.5h5v59h-5zM19.5 7.5h29v5h-29zM31.5 19.5h47v5h-47zM85.5 19.5h35v5h-35zM43.5 31.5h23v5h-23zM19.5 43.5h17v5h-17zM31.5 55.5h29v5h-29zM67.5 55.5h23v5h-23zM43.5 43.5h41v5h-41zM73.5 31.5h17v5h-17zM97.5 55.5h17v5h-17z"/>
    </g>
</svg>
