<?xml version="1.0" encoding="utf-8"?>
<!-- Generator: Adobe Illustrator 22.1.0, SVG Export Plug-In . SVG Version: 6.00 Build 0)  -->
<svg version="1.1" id="Layer_1" xmlns="http://www.w3.org/2000/svg" xmlns:xlink="http://www.w3.org/1999/xlink" x="0px" y="0px"
	width="128" height="74" viewBox="0 0 128 74" xml:space="preserve">
<style type="text/css">
	.st0{fill:#EAEAEA;}
	.st1{fill:none;stroke:#FD5750;stroke-width:2;}
</style>
<g>
	<g>
		<circle class="st0" cx="61" cy="31" r="1"/>
		<circle class="st0" cx="61" cy="13" r="1"/>
		<circle class="st0" cx="61" cy="49" r="1"/>
		<circle class="st0" cx="61" cy="1" r="1"/>
		<circle class="st0" cx="61" cy="37" r="1"/>
		<circle class="st0" cx="61" cy="19" r="1"/>
		<circle class="st0" cx="61" cy="55" r="1"/>
		<circle class="st0" cx="61" cy="7" r="1"/>
		<circle class="st0" cx="61" cy="43" r="1"/>
		<circle class="st0" cx="61" cy="25" r="1"/>
		<circle class="st0" cx="61" cy="61" r="1"/>
		<circle class="st0" cx="61" cy="67" r="1"/>
		<circle class="st0" cx="61" cy="73" r="1"/>
		<circle class="st0" cx="25" cy="31" r="1"/>
		<circle class="st0" cx="25" cy="13" r="1"/>
		<circle class="st0" cx="25" cy="49" r="1"/>
		<circle class="st0" cx="25" cy="1" r="1"/>
		<circle class="st0" cx="25" cy="37" r="1"/>
		<circle class="st0" cx="25" cy="19" r="1"/>
		<circle class="st0" cx="25" cy="55" r="1"/>
		<circle class="st0" cx="25" cy="7" r="1"/>
		<circle class="st0" cx="25" cy="43" r="1"/>
		<circle class="st0" cx="25" cy="25" r="1"/>
		<circle class="st0" cx="25" cy="61" r="1"/>
		<circle class="st0" cx="25" cy="67" r="1"/>
		<circle class="st0" cx="25" cy="73" r="1"/>
		<circle class="st0" cx="43" cy="31" r="1"/>
		<circle class="st0" cx="43" cy="13" r="1"/>
		<circle class="st0" cx="43" cy="49" r="1"/>
		<circle class="st0" cx="43" cy="1" r="1"/>
		<circle class="st0" cx="43" cy="37" r="1"/>
		<circle class="st0" cx="43" cy="19" r="1"/>
		<circle class="st0" cx="43" cy="55" r="1"/>
		<circle class="st0" cx="43" cy="7" r="1"/>
		<circle class="st0" cx="43" cy="43" r="1"/>
		<circle class="st0" cx="43" cy="25" r="1"/>
		<circle class="st0" cx="43" cy="61" r="1"/>
		<circle class="st0" cx="43" cy="67" r="1"/>
		<circle class="st0" cx="43" cy="73" r="1"/>
		<circle class="st0" cx="7" cy="31" r="1"/>
		<circle class="st0" cx="7" cy="13" r="1"/>
		<circle class="st0" cx="7" cy="49" r="1"/>
		<circle class="st0" cx="7" cy="1" r="1"/>
		<circle class="st0" cx="7" cy="37" r="1"/>
		<circle class="st0" cx="7" cy="19" r="1"/>
		<circle class="st0" cx="7" cy="55" r="1"/>
		<circle class="st0" cx="7" cy="7" r="1"/>
		<circle class="st0" cx="7" cy="43" r="1"/>
		<circle class="st0" cx="7" cy="25" r="1"/>
		<circle class="st0" cx="7" cy="61" r="1"/>
		<circle class="st0" cx="7" cy="67" r="1"/>
		<circle class="st0" cx="7" cy="73" r="1"/>
		<circle class="st0" cx="55" cy="31" r="1"/>
		<circle class="st0" cx="55" cy="13" r="1"/>
		<circle class="st0" cx="55" cy="49" r="1"/>
		<circle class="st0" cx="55" cy="1" r="1"/>
		<circle class="st0" cx="55" cy="37" r="1"/>
		<circle class="st0" cx="55" cy="19" r="1"/>
		<circle class="st0" cx="55" cy="55" r="1"/>
		<circle class="st0" cx="55" cy="7" r="1"/>
		<circle class="st0" cx="55" cy="43" r="1"/>
		<circle class="st0" cx="55" cy="25" r="1"/>
		<circle class="st0" cx="55" cy="61" r="1"/>
		<circle class="st0" cx="55" cy="67" r="1"/>
		<circle class="st0" cx="55" cy="73" r="1"/>
		<circle class="st0" cx="19" cy="31" r="1"/>
		<circle class="st0" cx="19" cy="13" r="1"/>
		<circle class="st0" cx="19" cy="49" r="1"/>
		<circle class="st0" cx="19" cy="1" r="1"/>
		<circle class="st0" cx="19" cy="37" r="1"/>
		<circle class="st0" cx="19" cy="19" r="1"/>
		<circle class="st0" cx="19" cy="55" r="1"/>
		<circle class="st0" cx="19" cy="7" r="1"/>
		<circle class="st0" cx="19" cy="43" r="1"/>
		<circle class="st0" cx="19" cy="25" r="1"/>
		<circle class="st0" cx="19" cy="61" r="1"/>
		<circle class="st0" cx="19" cy="67" r="1"/>
		<circle class="st0" cx="19" cy="73" r="1"/>
		<circle class="st0" cx="37" cy="31" r="1"/>
		<circle class="st0" cx="37" cy="13" r="1"/>
		<circle class="st0" cx="37" cy="49" r="1"/>
		<circle class="st0" cx="37" cy="1" r="1"/>
		<circle class="st0" cx="37" cy="37" r="1"/>
		<circle class="st0" cx="37" cy="19" r="1"/>
		<circle class="st0" cx="37" cy="55" r="1"/>
		<circle class="st0" cx="37" cy="7" r="1"/>
		<circle class="st0" cx="37" cy="43" r="1"/>
		<circle class="st0" cx="37" cy="25" r="1"/>
		<circle class="st0" cx="37" cy="61" r="1"/>
		<circle class="st0" cx="37" cy="67" r="1"/>
		<circle class="st0" cx="37" cy="73" r="1"/>
		<circle class="st0" cx="1" cy="31" r="1"/>
		<circle class="st0" cx="1" cy="13" r="1"/>
		<circle class="st0" cx="1" cy="49" r="1"/>
		<circle class="st0" cx="1" cy="1" r="1"/>
		<circle class="st0" cx="1" cy="37" r="1"/>
		<circle class="st0" cx="1" cy="19" r="1"/>
		<circle class="st0" cx="1" cy="55" r="1"/>
		<circle class="st0" cx="1" cy="7" r="1"/>
		<circle class="st0" cx="1" cy="43" r="1"/>
		<circle class="st0" cx="1" cy="25" r="1"/>
		<circle class="st0" cx="1" cy="61" r="1"/>
		<circle class="st0" cx="1" cy="67" r="1"/>
		<circle class="st0" cx="1" cy="73" r="1"/>
		<circle class="st0" cx="49" cy="31" r="1"/>
		<circle class="st0" cx="49" cy="13" r="1"/>
		<circle class="st0" cx="49" cy="49" r="1"/>
		<circle class="st0" cx="49" cy="1" r="1"/>
		<circle class="st0" cx="49" cy="37" r="1"/>
		<circle class="st0" cx="49" cy="19" r="1"/>
		<circle class="st0" cx="49" cy="55" r="1"/>
		<circle class="st0" cx="49" cy="7" r="1"/>
		<circle class="st0" cx="49" cy="43" r="1"/>
		<circle class="st0" cx="49" cy="25" r="1"/>
		<circle class="st0" cx="49" cy="61" r="1"/>
		<circle class="st0" cx="49" cy="67" r="1"/>
		<circle class="st0" cx="49" cy="73" r="1"/>
		<circle class="st0" cx="13" cy="31" r="1"/>
		<circle class="st0" cx="13" cy="13" r="1"/>
		<circle class="st0" cx="13" cy="49" r="1"/>
		<circle class="st0" cx="13" cy="1" r="1"/>
		<circle class="st0" cx="13" cy="37" r="1"/>
		<circle class="st0" cx="13" cy="19" r="1"/>
		<circle class="st0" cx="13" cy="55" r="1"/>
		<circle class="st0" cx="13" cy="7" r="1"/>
		<circle class="st0" cx="13" cy="43" r="1"/>
		<circle class="st0" cx="13" cy="25" r="1"/>
		<circle class="st0" cx="13" cy="61" r="1"/>
		<circle class="st0" cx="13" cy="67" r="1"/>
		<circle class="st0" cx="13" cy="73" r="1"/>
		<circle class="st0" cx="31" cy="31" r="1"/>
		<circle class="st0" cx="31" cy="13" r="1"/>
		<circle class="st0" cx="31" cy="49" r="1"/>
		<circle class="st0" cx="31" cy="1" r="1"/>
		<circle class="st0" cx="31" cy="37" r="1"/>
		<circle class="st0" cx="31" cy="19" r="1"/>
		<circle class="st0" cx="31" cy="55" r="1"/>
		<circle class="st0" cx="31" cy="7" r="1"/>
		<circle class="st0" cx="31" cy="43" r="1"/>
		<circle class="st0" cx="31" cy="25" r="1"/>
		<circle class="st0" cx="127" cy="1" r="1"/>
		<circle class="st0" cx="127" cy="73" r="1"/>
		<circle class="st0" cx="127" cy="37" r="1"/>
		<circle class="st0" cx="127" cy="19" r="1"/>
		<circle class="st0" cx="127" cy="55" r="1"/>
		<circle class="st0" cx="127" cy="7" r="1"/>
		<circle class="st0" cx="127" cy="43" r="1"/>
		<circle class="st0" cx="127" cy="25" r="1"/>
		<circle class="st0" cx="127" cy="61" r="1"/>
		<circle class="st0" cx="127" cy="13" r="1"/>
		<circle class="st0" cx="127" cy="49" r="1"/>
		<circle class="st0" cx="127" cy="31" r="1"/>
		<circle class="st0" cx="127" cy="67" r="1"/>
		<circle class="st0" cx="91" cy="1" r="1"/>
		<circle class="st0" cx="91" cy="73" r="1"/>
		<circle class="st0" cx="91" cy="37" r="1"/>
		<circle class="st0" cx="91" cy="19" r="1"/>
		<circle class="st0" cx="91" cy="55" r="1"/>
		<circle class="st0" cx="91" cy="7" r="1"/>
		<circle class="st0" cx="91" cy="43" r="1"/>
		<circle class="st0" cx="91" cy="25" r="1"/>
		<circle class="st0" cx="91" cy="61" r="1"/>
		<circle class="st0" cx="91" cy="13" r="1"/>
		<circle class="st0" cx="91" cy="49" r="1"/>
		<circle class="st0" cx="91" cy="31" r="1"/>
		<circle class="st0" cx="91" cy="67" r="1"/>
		<circle class="st0" cx="109" cy="1" r="1"/>
		<circle class="st0" cx="109" cy="73" r="1"/>
		<circle class="st0" cx="109" cy="37" r="1"/>
		<circle class="st0" cx="109" cy="19" r="1"/>
		<circle class="st0" cx="109" cy="55" r="1"/>
		<circle class="st0" cx="109" cy="7" r="1"/>
		<circle class="st0" cx="109" cy="43" r="1"/>
		<circle class="st0" cx="109" cy="25" r="1"/>
		<circle class="st0" cx="109" cy="61" r="1"/>
		<circle class="st0" cx="109" cy="13" r="1"/>
		<circle class="st0" cx="109" cy="49" r="1"/>
		<circle class="st0" cx="109" cy="31" r="1"/>
		<circle class="st0" cx="109" cy="67" r="1"/>
		<circle class="st0" cx="73" cy="1" r="1"/>
		<circle class="st0" cx="73" cy="73" r="1"/>
		<circle class="st0" cx="73" cy="37" r="1"/>
		<circle class="st0" cx="73" cy="19" r="1"/>
		<circle class="st0" cx="73" cy="55" r="1"/>
		<circle class="st0" cx="73" cy="7" r="1"/>
		<circle class="st0" cx="73" cy="43" r="1"/>
		<circle class="st0" cx="73" cy="25" r="1"/>
		<circle class="st0" cx="73" cy="61" r="1"/>
		<circle class="st0" cx="73" cy="13" r="1"/>
		<circle class="st0" cx="73" cy="49" r="1"/>
		<circle class="st0" cx="73" cy="31" r="1"/>
		<circle class="st0" cx="73" cy="67" r="1"/>
		<circle class="st0" cx="121" cy="1" r="1"/>
		<circle class="st0" cx="121" cy="73" r="1"/>
		<circle class="st0" cx="121" cy="37" r="1"/>
		<circle class="st0" cx="121" cy="19" r="1"/>
		<circle class="st0" cx="121" cy="55" r="1"/>
		<circle class="st0" cx="121" cy="7" r="1"/>
		<circle class="st0" cx="121" cy="43" r="1"/>
		<circle class="st0" cx="121" cy="25" r="1"/>
		<circle class="st0" cx="121" cy="61" r="1"/>
		<circle class="st0" cx="121" cy="13" r="1"/>
		<circle class="st0" cx="121" cy="49" r="1"/>
		<circle class="st0" cx="121" cy="31" r="1"/>
		<circle class="st0" cx="121" cy="67" r="1"/>
		<circle class="st0" cx="85" cy="1" r="1"/>
		<circle class="st0" cx="85" cy="73" r="1"/>
		<circle class="st0" cx="85" cy="37" r="1"/>
		<circle class="st0" cx="85" cy="19" r="1"/>
		<circle class="st0" cx="85" cy="55" r="1"/>
		<circle class="st0" cx="85" cy="7" r="1"/>
		<circle class="st0" cx="85" cy="43" r="1"/>
		<circle class="st0" cx="85" cy="25" r="1"/>
		<circle class="st0" cx="85" cy="61" r="1"/>
		<circle class="st0" cx="85" cy="13" r="1"/>
		<circle class="st0" cx="85" cy="49" r="1"/>
		<circle class="st0" cx="85" cy="31" r="1"/>
		<circle class="st0" cx="85" cy="67" r="1"/>
		<circle class="st0" cx="103" cy="1" r="1"/>
		<circle class="st0" cx="103" cy="73" r="1"/>
		<circle class="st0" cx="103" cy="37" r="1"/>
		<circle class="st0" cx="103" cy="19" r="1"/>
		<circle class="st0" cx="103" cy="55" r="1"/>
		<circle class="st0" cx="103" cy="7" r="1"/>
		<circle class="st0" cx="103" cy="43" r="1"/>
		<circle class="st0" cx="103" cy="25" r="1"/>
		<circle class="st0" cx="103" cy="61" r="1"/>
		<circle class="st0" cx="103" cy="13" r="1"/>
		<circle class="st0" cx="103" cy="49" r="1"/>
		<circle class="st0" cx="103" cy="31" r="1"/>
		<circle class="st0" cx="103" cy="67" r="1"/>
		<circle class="st0" cx="67" cy="1" r="1"/>
		<circle class="st0" cx="67" cy="73" r="1"/>
		<circle class="st0" cx="67" cy="37" r="1"/>
		<circle class="st0" cx="67" cy="19" r="1"/>
		<circle class="st0" cx="67" cy="55" r="1"/>
		<circle class="st0" cx="67" cy="7" r="1"/>
		<circle class="st0" cx="67" cy="43" r="1"/>
		<circle class="st0" cx="67" cy="25" r="1"/>
		<circle class="st0" cx="67" cy="61" r="1"/>
		<circle class="st0" cx="67" cy="13" r="1"/>
		<circle class="st0" cx="67" cy="49" r="1"/>
		<circle class="st0" cx="67" cy="31" r="1"/>
		<circle class="st0" cx="67" cy="67" r="1"/>
		<circle class="st0" cx="115" cy="1" r="1"/>
		<circle class="st0" cx="115" cy="73" r="1"/>
		<circle class="st0" cx="115" cy="37" r="1"/>
		<circle class="st0" cx="115" cy="19" r="1"/>
		<circle class="st0" cx="115" cy="55" r="1"/>
		<circle class="st0" cx="115" cy="7" r="1"/>
		<circle class="st0" cx="115" cy="43" r="1"/>
		<circle class="st0" cx="115" cy="25" r="1"/>
		<circle class="st0" cx="115" cy="61" r="1"/>
		<circle class="st0" cx="115" cy="13" r="1"/>
		<circle class="st0" cx="115" cy="49" r="1"/>
		<circle class="st0" cx="115" cy="31" r="1"/>
		<circle class="st0" cx="115" cy="67" r="1"/>
		<circle class="st0" cx="79" cy="1" r="1"/>
		<circle class="st0" cx="79" cy="73" r="1"/>
		<circle class="st0" cx="79" cy="37" r="1"/>
		<circle class="st0" cx="79" cy="19" r="1"/>
		<circle class="st0" cx="79" cy="55" r="1"/>
		<circle class="st0" cx="79" cy="7" r="1"/>
		<circle class="st0" cx="79" cy="43" r="1"/>
		<circle class="st0" cx="79" cy="25" r="1"/>
		<circle class="st0" cx="79" cy="61" r="1"/>
		<circle class="st0" cx="79" cy="13" r="1"/>
		<circle class="st0" cx="79" cy="49" r="1"/>
		<circle class="st0" cx="79" cy="31" r="1"/>
		<circle class="st0" cx="79" cy="67" r="1"/>
		<circle class="st0" cx="97" cy="1" r="1"/>
		<circle class="st0" cx="97" cy="73" r="1"/>
		<circle class="st0" cx="97" cy="37" r="1"/>
		<circle class="st0" cx="97" cy="19" r="1"/>
		<circle class="st0" cx="97" cy="55" r="1"/>
		<circle class="st0" cx="97" cy="7" r="1"/>
		<circle class="st0" cx="97" cy="43" r="1"/>
		<circle class="st0" cx="97" cy="25" r="1"/>
		<circle class="st0" cx="97" cy="61" r="1"/>
		<circle class="st0" cx="97" cy="13" r="1"/>
		<circle class="st0" cx="97" cy="49" r="1"/>
		<circle class="st0" cx="97" cy="31" r="1"/>
		<circle class="st0" cx="97" cy="67" r="1"/>
		<circle class="st0" cx="31" cy="61" r="1"/>
		<circle class="st0" cx="31" cy="67" r="1"/>
		<circle class="st0" cx="31" cy="73" r="1"/>
	</g>
	<path class="st1" d="M20.6,60H91c12.7,0,23-10.3,23-23s-10.3-23-23-23H43.6"/>
	<path class="st1" d="M61.3,54H91c9.4,0,17-7.6,17-17s-7.6-17-17-17H16"/>
	<path class="st1" d="M39,48h52c6.1,0,11-4.9,11-11s-4.9-11-11-11H55.5"/>
	<path class="st1" d="M49.3,42H91c2.8,0,5-2.2,5-5s-2.2-5-5-5H34.3"/>
</g>
</svg>
