<svg xmlns="http://www.w3.org/2000/svg" width="346" height="214" viewBox="0 0 346 214">
    <defs>
        <linearGradient id="a" x1="50%" x2="50%" y1="0%" y2="100%">
            <stop offset="0%" stop-color="#FF9088" stop-opacity="0"/>
            <stop offset="100%" stop-color="#FD5750"/>
        </linearGradient>
        <linearGradient id="b" x1="100%" x2="0%" y1="100%" y2="0%">
            <stop offset="0%" stop-color="#FF9088" stop-opacity=".2"/>
            <stop offset="100%" stop-color="#FD5750"/>
        </linearGradient>
        <linearGradient id="c" x1="50%" x2="50%" y1="0%" y2="100%">
            <stop offset="0%" stop-color="#FF9088" stop-opacity=".2"/>
            <stop offset="100%" stop-color="#FD5750"/>
        </linearGradient>
    </defs>
    <g fill="none" fill-rule="evenodd">
        <path fill="#FFF" stroke="url(#a)" d="M216.977 34.662H216.935l-.044.002h-.468l-.03-.468c-1.2-18.34-16.54-32.696-35.112-32.696-11.52 0-22.1 5.549-28.668 14.71l-.196.272-.326-.077a28.268 28.268 0 0 0-6.506-.762c-15.511 0-28.085 12.505-28.085 27.928 0 15.424 12.574 27.929 28.085 27.929h71.392c10.23 0 18.523-8.247 18.523-18.419s-8.293-18.42-18.523-18.42z"/>
        <g fill="#FFF">
            <path stroke="url(#a)" stroke-width="1.5" d="M101.657 34.379h-.035l-.052.002h-.702l-.046-.701C99.61 15.21 84.119.75 65.362.75 53.725.75 43.04 6.339 36.406 15.566l-.293.407-.488-.115a28.576 28.576 0 0 0-6.56-.766C13.426 15.092.75 27.665.75 43.171S13.426 71.25 29.066 71.25h72.591c10.27 0 18.593-8.255 18.593-18.435 0-10.181-8.323-18.436-18.593-18.436z" transform="translate(73 84)"/>
            <path fill-opacity=".7" d="M174.657 117.629l-.087.002C173.339 98.854 157.604 84 138.361 84a36.33 36.33 0 0 0-29.563 15.128 29.33 29.33 0 0 0-6.732-.786C86.013 98.342 73 111.25 73 127.171S86.013 156 102.066 156h72.591C185.34 156 194 147.41 194 136.815c0-10.597-8.66-19.186-19.343-19.186"/>
        </g>
        <g fill="#FFF">
            <path stroke="url(#a)" stroke-width="1.5" d="M101.657 34.379h-.035l-.052.002h-.702l-.046-.701C99.61 15.21 84.119.75 65.362.75 53.725.75 43.04 6.339 36.406 15.566l-.293.407-.488-.115a28.576 28.576 0 0 0-6.56-.766C13.426 15.092.75 27.665.75 43.171S13.426 71.25 29.066 71.25h72.591c10.27 0 18.593-8.255 18.593-18.435 0-10.181-8.323-18.436-18.593-18.436z"/>
            <path fill-opacity=".7" d="M101.657 33.629l-.087.002C100.339 14.854 84.604 0 65.361 0a36.33 36.33 0 0 0-29.563 15.128 29.33 29.33 0 0 0-6.732-.786C13.013 14.342 0 27.25 0 43.171S13.013 72 29.066 72h72.591C112.34 72 121 63.41 121 52.815c0-10.597-8.66-19.186-19.343-19.186"/>
        </g>
        <g fill="#FFF">
            <path stroke="url(#a)" stroke-width="1.5" d="M101.657 34.379h-.035l-.052.002h-.702l-.046-.701C99.61 15.21 84.119.75 65.362.75 53.725.75 43.04 6.339 36.406 15.566l-.293.407-.488-.115a28.576 28.576 0 0 0-6.56-.766C13.426 15.092.75 27.665.75 43.171S13.426 71.25 29.066 71.25h72.591c10.27 0 18.593-8.255 18.593-18.435 0-10.181-8.323-18.436-18.593-18.436z" transform="translate(225 22)"/>
            <path fill-opacity=".7" d="M326.657 55.629l-.087.002C325.339 36.854 309.604 22 290.361 22a36.33 36.33 0 0 0-29.563 15.128 29.33 29.33 0 0 0-6.732-.786C238.013 36.342 225 49.25 225 65.171S238.013 94 254.066 94h72.591C337.34 94 346 85.41 346 74.815c0-10.597-8.66-19.186-19.343-19.186"/>
        </g>
        <path fill="#FFF" stroke="url(#b)" stroke-width="1.5" d="M150.541 63.253h-.029l-.02.001-.06.001h-.703l-.046-.7c-1.538-23.45-21.213-41.805-45.036-41.805-14.776 0-28.348 7.095-36.773 18.808l-.293.407-.488-.114a36.348 36.348 0 0 0-8.34-.974c-19.885 0-36.003 15.979-36.003 35.686 0 19.708 16.118 35.687 36.003 35.687h91.788c13.095 0 23.709-10.522 23.709-23.498 0-12.977-10.613-23.5-23.709-23.5z"/>
        <path fill="#FFF" stroke="url(#c)" stroke-width="1.5" d="M289.422 88.588l-.03.001h-.023c-.027.002-.027.002-.062.002h-.702l-.046-.701c-1.61-24.76-22.2-44.14-47.131-44.14-15.462 0-29.664 7.49-38.481 19.856l-.293.411-.491-.116a37.723 37.723 0 0 0-8.729-1.028c-20.812 0-37.684 16.874-37.684 37.688 0 20.815 16.872 37.689 37.684 37.689h95.988c13.712 0 24.828-11.117 24.828-24.83 0-13.715-11.116-24.832-24.828-24.832z"/>
        <text fill="#8C8C8C" font-family="Serverless-Regular, Serverless" font-size="14" letter-spacing=".583">
            <tspan x="158" y="50">SaaS</tspan>
        </text>
        <text fill="#8C8C8C" font-family="Serverless-Regular, Serverless" font-size="14" letter-spacing=".583">
            <tspan x="58" y="72">business</tspan> <tspan x="66.633" y="88">events</tspan>
        </text>
        <text fill="#8C8C8C" font-family="Serverless-Regular, Serverless" font-size="14" letter-spacing=".583">
            <tspan x="192" y="105">webhooks</tspan>
        </text>
        <g stroke="#FD5750" stroke-width="1.5">
            <path fill="#FFF" d="M203.683 200.582c16.834-16.887 16.745-44.274-.2-61.164-16.946-16.89-44.332-16.89-61.165-.002-16.835 16.89-16.746 44.276.2 61.164 16.945 16.893 44.33 16.893 61.165.002z"/>
            <path d="M195.34 177.034l-22.84-23.946-22.753 23.946h45.592z"/>
            <path d="M172.455 153.85l-14.12 31.615 14.114-8.574 13.578 7.79-13.572-30.83z"/>
        </g>
    </g>
</svg>
