<svg xmlns="http://www.w3.org/2000/svg" xmlns:xlink="http://www.w3.org/1999/xlink" width="808" height="168" viewBox="0 0 808 168">
    <defs>
        <linearGradient id="c" x1="50%" x2="50%" y1="0%" y2="100%">
            <stop offset="0%" stop-color="#FF9088" stop-opacity="0"/>
            <stop offset="100%" stop-color="#FD5750"/>
        </linearGradient>
        <path id="b" d="M269.373 118.15c14.104 8.201 14.178 21.499.166 29.699-14.013 8.201-36.808 8.201-50.911 0-14.106-8.2-14.18-21.498-.166-29.698 14.012-8.201 36.807-8.201 50.911 0"/>
        <filter id="a" width="130.6%" height="166.7%" x="-15.3%" y="-16.7%" filterUnits="objectBoundingBox">
            <feOffset dy="10" in="SourceAlpha" result="shadowOffsetOuter1"/>
            <feGaussianBlur in="shadowOffsetOuter1" result="shadowBlurOuter1" stdDeviation="2"/>
            <feComposite in="shadowBlurOuter1" in2="SourceAlpha" operator="out" result="shadowBlurOuter1"/>
            <feColorMatrix in="shadowBlurOuter1" values="0 0 0 0 0.992156863 0 0 0 0 0.341176471 0 0 0 0 0.31372549 0 0 0 0.15 0"/>
        </filter>
        <path id="e" d="M477.373 118.15c14.104 8.201 14.178 21.499.166 29.699-14.013 8.201-36.808 8.201-50.911 0-14.106-8.2-14.18-21.498-.166-29.698 14.012-8.201 36.807-8.201 50.911 0"/>
        <filter id="d" width="130.6%" height="166.7%" x="-15.3%" y="-16.7%" filterUnits="objectBoundingBox">
            <feOffset dy="10" in="SourceAlpha" result="shadowOffsetOuter1"/>
            <feGaussianBlur in="shadowOffsetOuter1" result="shadowBlurOuter1" stdDeviation="2"/>
            <feComposite in="shadowBlurOuter1" in2="SourceAlpha" operator="out" result="shadowBlurOuter1"/>
            <feColorMatrix in="shadowBlurOuter1" values="0 0 0 0 0.992156863 0 0 0 0 0.341176471 0 0 0 0 0.31372549 0 0 0 0.15 0"/>
        </filter>
        <path id="g" d="M165.373 118.15c14.104 8.201 14.178 21.499.166 29.699-14.013 8.201-36.808 8.201-50.911 0-14.106-8.2-14.18-21.498-.166-29.698 14.012-8.201 36.807-8.201 50.911 0"/>
        <filter id="f" width="130.6%" height="166.7%" x="-15.3%" y="-16.7%" filterUnits="objectBoundingBox">
            <feOffset dy="10" in="SourceAlpha" result="shadowOffsetOuter1"/>
            <feGaussianBlur in="shadowOffsetOuter1" result="shadowBlurOuter1" stdDeviation="2"/>
            <feComposite in="shadowBlurOuter1" in2="SourceAlpha" operator="out" result="shadowBlurOuter1"/>
            <feColorMatrix in="shadowBlurOuter1" values="0 0 0 0 0.992156863 0 0 0 0 0.341176471 0 0 0 0 0.31372549 0 0 0 0.15 0"/>
        </filter>
        <path id="i" d="M373.373 118.15c14.104 8.201 14.178 21.499.166 29.699-14.013 8.201-36.808 8.201-50.911 0-14.106-8.2-14.18-21.498-.166-29.698 14.012-8.201 36.807-8.201 50.911 0"/>
        <filter id="h" width="130.6%" height="166.7%" x="-15.3%" y="-16.7%" filterUnits="objectBoundingBox">
            <feOffset dy="10" in="SourceAlpha" result="shadowOffsetOuter1"/>
            <feGaussianBlur in="shadowOffsetOuter1" result="shadowBlurOuter1" stdDeviation="2"/>
            <feComposite in="shadowBlurOuter1" in2="SourceAlpha" operator="out" result="shadowBlurOuter1"/>
            <feColorMatrix in="shadowBlurOuter1" values="0 0 0 0 0.992156863 0 0 0 0 0.341176471 0 0 0 0 0.31372549 0 0 0 0.15 0"/>
        </filter>
        <path id="k" d="M581.373 118.15c14.104 8.201 14.178 21.499.166 29.699-14.013 8.201-36.808 8.201-50.911 0-14.106-8.2-14.18-21.498-.166-29.698 14.012-8.201 36.807-8.201 50.911 0"/>
        <filter id="j" width="130.6%" height="166.7%" x="-15.3%" y="-16.7%" filterUnits="objectBoundingBox">
            <feOffset dy="10" in="SourceAlpha" result="shadowOffsetOuter1"/>
            <feGaussianBlur in="shadowOffsetOuter1" result="shadowBlurOuter1" stdDeviation="2"/>
            <feComposite in="shadowBlurOuter1" in2="SourceAlpha" operator="out" result="shadowBlurOuter1"/>
            <feColorMatrix in="shadowBlurOuter1" values="0 0 0 0 0.992156863 0 0 0 0 0.341176471 0 0 0 0 0.31372549 0 0 0 0.15 0"/>
        </filter>
        <path id="m" d="M685.373 118.15c14.104 8.201 14.178 21.499.166 29.699-14.013 8.201-36.808 8.201-50.911 0-14.106-8.2-14.18-21.498-.166-29.698 14.012-8.201 36.807-8.201 50.911 0"/>
        <filter id="l" width="130.6%" height="166.7%" x="-15.3%" y="-16.7%" filterUnits="objectBoundingBox">
            <feOffset dy="10" in="SourceAlpha" result="shadowOffsetOuter1"/>
            <feGaussianBlur in="shadowOffsetOuter1" result="shadowBlurOuter1" stdDeviation="2"/>
            <feComposite in="shadowBlurOuter1" in2="SourceAlpha" operator="out" result="shadowBlurOuter1"/>
            <feColorMatrix in="shadowBlurOuter1" values="0 0 0 0 0.992156863 0 0 0 0 0.341176471 0 0 0 0 0.31372549 0 0 0 0.15 0"/>
        </filter>
        <path id="o" d="M789.373 118.15c14.104 8.201 14.178 21.499.166 29.699-14.013 8.201-36.808 8.201-50.911 0-14.106-8.2-14.18-21.498-.166-29.698 14.012-8.201 36.807-8.201 50.911 0"/>
        <filter id="n" width="130.6%" height="166.7%" x="-15.3%" y="-16.7%" filterUnits="objectBoundingBox">
            <feOffset dy="10" in="SourceAlpha" result="shadowOffsetOuter1"/>
            <feGaussianBlur in="shadowOffsetOuter1" result="shadowBlurOuter1" stdDeviation="2"/>
            <feComposite in="shadowBlurOuter1" in2="SourceAlpha" operator="out" result="shadowBlurOuter1"/>
            <feColorMatrix in="shadowBlurOuter1" values="0 0 0 0 0.992156863 0 0 0 0 0.341176471 0 0 0 0 0.31372549 0 0 0 0.15 0"/>
        </filter>
        <path id="q" d="M477.373 102.15c14.104 8.201 14.178 21.499.166 29.699-14.013 8.201-36.808 8.201-50.911 0-14.106-8.2-14.18-21.498-.166-29.698 14.012-8.201 36.807-8.201 50.911 0"/>
        <filter id="p" width="130.6%" height="166.7%" x="-15.3%" y="-16.7%" filterUnits="objectBoundingBox">
            <feOffset dy="10" in="SourceAlpha" result="shadowOffsetOuter1"/>
            <feGaussianBlur in="shadowOffsetOuter1" result="shadowBlurOuter1" stdDeviation="2"/>
            <feComposite in="shadowBlurOuter1" in2="SourceAlpha" operator="out" result="shadowBlurOuter1"/>
            <feColorMatrix in="shadowBlurOuter1" values="0 0 0 0 0.992156863 0 0 0 0 0.341176471 0 0 0 0 0.31372549 0 0 0 0.15 0"/>
        </filter>
        <path id="s" d="M165.373 102.15c14.104 8.201 14.178 21.499.166 29.699-14.013 8.201-36.808 8.201-50.911 0-14.106-8.2-14.18-21.498-.166-29.698 14.012-8.201 36.807-8.201 50.911 0"/>
        <filter id="r" width="130.6%" height="166.7%" x="-15.3%" y="-16.7%" filterUnits="objectBoundingBox">
            <feOffset dy="10" in="SourceAlpha" result="shadowOffsetOuter1"/>
            <feGaussianBlur in="shadowOffsetOuter1" result="shadowBlurOuter1" stdDeviation="2"/>
            <feComposite in="shadowBlurOuter1" in2="SourceAlpha" operator="out" result="shadowBlurOuter1"/>
            <feColorMatrix in="shadowBlurOuter1" values="0 0 0 0 0.992156863 0 0 0 0 0.341176471 0 0 0 0 0.31372549 0 0 0 0.15 0"/>
        </filter>
        <path id="u" d="M373.373 102.15c14.104 8.201 14.178 21.499.166 29.699-14.013 8.201-36.808 8.201-50.911 0-14.106-8.2-14.18-21.498-.166-29.698 14.012-8.201 36.807-8.201 50.911 0"/>
        <filter id="t" width="130.6%" height="166.7%" x="-15.3%" y="-16.7%" filterUnits="objectBoundingBox">
            <feOffset dy="10" in="SourceAlpha" result="shadowOffsetOuter1"/>
            <feGaussianBlur in="shadowOffsetOuter1" result="shadowBlurOuter1" stdDeviation="2"/>
            <feComposite in="shadowBlurOuter1" in2="SourceAlpha" operator="out" result="shadowBlurOuter1"/>
            <feColorMatrix in="shadowBlurOuter1" values="0 0 0 0 0.992156863 0 0 0 0 0.341176471 0 0 0 0 0.31372549 0 0 0 0.15 0"/>
        </filter>
        <path id="w" d="M581.373 102.15c14.104 8.201 14.178 21.499.166 29.699-14.013 8.201-36.808 8.201-50.911 0-14.106-8.2-14.18-21.498-.166-29.698 14.012-8.201 36.807-8.201 50.911 0"/>
        <filter id="v" width="130.6%" height="166.7%" x="-15.3%" y="-16.7%" filterUnits="objectBoundingBox">
            <feOffset dy="10" in="SourceAlpha" result="shadowOffsetOuter1"/>
            <feGaussianBlur in="shadowOffsetOuter1" result="shadowBlurOuter1" stdDeviation="2"/>
            <feComposite in="shadowBlurOuter1" in2="SourceAlpha" operator="out" result="shadowBlurOuter1"/>
            <feColorMatrix in="shadowBlurOuter1" values="0 0 0 0 0.992156863 0 0 0 0 0.341176471 0 0 0 0 0.31372549 0 0 0 0.15 0"/>
        </filter>
        <path id="y" d="M685.373 102.15c14.104 8.201 14.178 21.499.166 29.699-14.013 8.201-36.808 8.201-50.911 0-14.106-8.2-14.18-21.498-.166-29.698 14.012-8.201 36.807-8.201 50.911 0"/>
        <filter id="x" width="130.6%" height="166.7%" x="-15.3%" y="-16.7%" filterUnits="objectBoundingBox">
            <feOffset dy="10" in="SourceAlpha" result="shadowOffsetOuter1"/>
            <feGaussianBlur in="shadowOffsetOuter1" result="shadowBlurOuter1" stdDeviation="2"/>
            <feComposite in="shadowBlurOuter1" in2="SourceAlpha" operator="out" result="shadowBlurOuter1"/>
            <feColorMatrix in="shadowBlurOuter1" values="0 0 0 0 0.992156863 0 0 0 0 0.341176471 0 0 0 0 0.31372549 0 0 0 0.15 0"/>
        </filter>
        <path id="A" d="M789.373 102.15c14.104 8.201 14.178 21.499.166 29.699-14.013 8.201-36.808 8.201-50.911 0-14.106-8.2-14.18-21.498-.166-29.698 14.012-8.201 36.807-8.201 50.911 0"/>
        <filter id="z" width="130.6%" height="166.7%" x="-15.3%" y="-16.7%" filterUnits="objectBoundingBox">
            <feOffset dy="10" in="SourceAlpha" result="shadowOffsetOuter1"/>
            <feGaussianBlur in="shadowOffsetOuter1" result="shadowBlurOuter1" stdDeviation="2"/>
            <feComposite in="shadowBlurOuter1" in2="SourceAlpha" operator="out" result="shadowBlurOuter1"/>
            <feColorMatrix in="shadowBlurOuter1" values="0 0 0 0 0.992156863 0 0 0 0 0.341176471 0 0 0 0 0.31372549 0 0 0 0.15 0"/>
        </filter>
        <path id="C" d="M477.373 86.15c14.104 8.201 14.178 21.499.166 29.699-14.013 8.201-36.808 8.201-50.911 0-14.106-8.2-14.18-21.498-.166-29.698 14.012-8.201 36.807-8.201 50.911 0"/>
        <filter id="B" width="130.6%" height="166.7%" x="-15.3%" y="-16.7%" filterUnits="objectBoundingBox">
            <feOffset dy="10" in="SourceAlpha" result="shadowOffsetOuter1"/>
            <feGaussianBlur in="shadowOffsetOuter1" result="shadowBlurOuter1" stdDeviation="2"/>
            <feComposite in="shadowBlurOuter1" in2="SourceAlpha" operator="out" result="shadowBlurOuter1"/>
            <feColorMatrix in="shadowBlurOuter1" values="0 0 0 0 0.992156863 0 0 0 0 0.341176471 0 0 0 0 0.31372549 0 0 0 0.15 0"/>
        </filter>
        <path id="E" d="M373.373 86.15c14.104 8.201 14.178 21.499.166 29.699-14.013 8.201-36.808 8.201-50.911 0-14.106-8.2-14.18-21.498-.166-29.698 14.012-8.201 36.807-8.201 50.911 0"/>
        <filter id="D" width="130.6%" height="166.7%" x="-15.3%" y="-16.7%" filterUnits="objectBoundingBox">
            <feOffset dy="10" in="SourceAlpha" result="shadowOffsetOuter1"/>
            <feGaussianBlur in="shadowOffsetOuter1" result="shadowBlurOuter1" stdDeviation="2"/>
            <feComposite in="shadowBlurOuter1" in2="SourceAlpha" operator="out" result="shadowBlurOuter1"/>
            <feColorMatrix in="shadowBlurOuter1" values="0 0 0 0 0.992156863 0 0 0 0 0.341176471 0 0 0 0 0.31372549 0 0 0 0.15 0"/>
        </filter>
        <path id="G" d="M581.373 86.15c14.104 8.201 14.178 21.499.166 29.699-14.013 8.201-36.808 8.201-50.911 0-14.106-8.2-14.18-21.498-.166-29.698 14.012-8.201 36.807-8.201 50.911 0"/>
        <filter id="F" width="130.6%" height="166.7%" x="-15.3%" y="-16.7%" filterUnits="objectBoundingBox">
            <feOffset dy="10" in="SourceAlpha" result="shadowOffsetOuter1"/>
            <feGaussianBlur in="shadowOffsetOuter1" result="shadowBlurOuter1" stdDeviation="2"/>
            <feComposite in="shadowBlurOuter1" in2="SourceAlpha" operator="out" result="shadowBlurOuter1"/>
            <feColorMatrix in="shadowBlurOuter1" values="0 0 0 0 0.992156863 0 0 0 0 0.341176471 0 0 0 0 0.31372549 0 0 0 0.15 0"/>
        </filter>
        <path id="I" d="M685.373 86.15c14.104 8.201 14.178 21.499.166 29.699-14.013 8.201-36.808 8.201-50.911 0-14.106-8.2-14.18-21.498-.166-29.698 14.012-8.201 36.807-8.201 50.911 0"/>
        <filter id="H" width="130.6%" height="166.7%" x="-15.3%" y="-16.7%" filterUnits="objectBoundingBox">
            <feOffset dy="10" in="SourceAlpha" result="shadowOffsetOuter1"/>
            <feGaussianBlur in="shadowOffsetOuter1" result="shadowBlurOuter1" stdDeviation="2"/>
            <feComposite in="shadowBlurOuter1" in2="SourceAlpha" operator="out" result="shadowBlurOuter1"/>
            <feColorMatrix in="shadowBlurOuter1" values="0 0 0 0 0.992156863 0 0 0 0 0.341176471 0 0 0 0 0.31372549 0 0 0 0.15 0"/>
        </filter>
        <path id="K" d="M789.373 86.15c14.104 8.201 14.178 21.499.166 29.699-14.013 8.201-36.808 8.201-50.911 0-14.106-8.2-14.18-21.498-.166-29.698 14.012-8.201 36.807-8.201 50.911 0"/>
        <filter id="J" width="130.6%" height="166.7%" x="-15.3%" y="-16.7%" filterUnits="objectBoundingBox">
            <feOffset dy="10" in="SourceAlpha" result="shadowOffsetOuter1"/>
            <feGaussianBlur in="shadowOffsetOuter1" result="shadowBlurOuter1" stdDeviation="2"/>
            <feComposite in="shadowBlurOuter1" in2="SourceAlpha" operator="out" result="shadowBlurOuter1"/>
            <feColorMatrix in="shadowBlurOuter1" values="0 0 0 0 0.992156863 0 0 0 0 0.341176471 0 0 0 0 0.31372549 0 0 0 0.15 0"/>
        </filter>
        <path id="M" d="M477.373 70.15c14.104 8.201 14.178 21.499.166 29.699-14.013 8.201-36.808 8.201-50.911 0-14.106-8.2-14.18-21.498-.166-29.698 14.012-8.201 36.807-8.201 50.911 0"/>
        <filter id="L" width="130.6%" height="166.7%" x="-15.3%" y="-16.7%" filterUnits="objectBoundingBox">
            <feOffset dy="10" in="SourceAlpha" result="shadowOffsetOuter1"/>
            <feGaussianBlur in="shadowOffsetOuter1" result="shadowBlurOuter1" stdDeviation="2"/>
            <feComposite in="shadowBlurOuter1" in2="SourceAlpha" operator="out" result="shadowBlurOuter1"/>
            <feColorMatrix in="shadowBlurOuter1" values="0 0 0 0 0.992156863 0 0 0 0 0.341176471 0 0 0 0 0.31372549 0 0 0 0.15 0"/>
        </filter>
        <path id="O" d="M581.373 70.15c14.104 8.201 14.178 21.499.166 29.699-14.013 8.201-36.808 8.201-50.911 0-14.106-8.2-14.18-21.498-.166-29.698 14.012-8.201 36.807-8.201 50.911 0"/>
        <filter id="N" width="130.6%" height="166.7%" x="-15.3%" y="-16.7%" filterUnits="objectBoundingBox">
            <feOffset dy="10" in="SourceAlpha" result="shadowOffsetOuter1"/>
            <feGaussianBlur in="shadowOffsetOuter1" result="shadowBlurOuter1" stdDeviation="2"/>
            <feComposite in="shadowBlurOuter1" in2="SourceAlpha" operator="out" result="shadowBlurOuter1"/>
            <feColorMatrix in="shadowBlurOuter1" values="0 0 0 0 0.992156863 0 0 0 0 0.341176471 0 0 0 0 0.31372549 0 0 0 0.15 0"/>
        </filter>
        <path id="Q" d="M685.373 70.15c14.104 8.201 14.178 21.499.166 29.699-14.013 8.201-36.808 8.201-50.911 0-14.106-8.2-14.18-21.498-.166-29.698 14.012-8.201 36.807-8.201 50.911 0"/>
        <filter id="P" width="130.6%" height="166.7%" x="-15.3%" y="-16.7%" filterUnits="objectBoundingBox">
            <feOffset dy="10" in="SourceAlpha" result="shadowOffsetOuter1"/>
            <feGaussianBlur in="shadowOffsetOuter1" result="shadowBlurOuter1" stdDeviation="2"/>
            <feComposite in="shadowBlurOuter1" in2="SourceAlpha" operator="out" result="shadowBlurOuter1"/>
            <feColorMatrix in="shadowBlurOuter1" values="0 0 0 0 0.992156863 0 0 0 0 0.341176471 0 0 0 0 0.31372549 0 0 0 0.15 0"/>
        </filter>
        <path id="S" d="M789.373 70.15c14.104 8.201 14.178 21.499.166 29.699-14.013 8.201-36.808 8.201-50.911 0-14.106-8.2-14.18-21.498-.166-29.698 14.012-8.201 36.807-8.201 50.911 0"/>
        <filter id="R" width="130.6%" height="166.7%" x="-15.3%" y="-16.7%" filterUnits="objectBoundingBox">
            <feOffset dy="10" in="SourceAlpha" result="shadowOffsetOuter1"/>
            <feGaussianBlur in="shadowOffsetOuter1" result="shadowBlurOuter1" stdDeviation="2"/>
            <feComposite in="shadowBlurOuter1" in2="SourceAlpha" operator="out" result="shadowBlurOuter1"/>
            <feColorMatrix in="shadowBlurOuter1" values="0 0 0 0 0.992156863 0 0 0 0 0.341176471 0 0 0 0 0.31372549 0 0 0 0.15 0"/>
        </filter>
        <path id="U" d="M477.373 54.15c14.104 8.201 14.178 21.499.166 29.699-14.013 8.201-36.808 8.201-50.911 0-14.106-8.2-14.18-21.498-.166-29.698 14.012-8.201 36.807-8.201 50.911 0"/>
        <filter id="T" width="130.6%" height="166.7%" x="-15.3%" y="-16.7%" filterUnits="objectBoundingBox">
            <feOffset dy="10" in="SourceAlpha" result="shadowOffsetOuter1"/>
            <feGaussianBlur in="shadowOffsetOuter1" result="shadowBlurOuter1" stdDeviation="2"/>
            <feComposite in="shadowBlurOuter1" in2="SourceAlpha" operator="out" result="shadowBlurOuter1"/>
            <feColorMatrix in="shadowBlurOuter1" values="0 0 0 0 0.992156863 0 0 0 0 0.341176471 0 0 0 0 0.31372549 0 0 0 0.15 0"/>
        </filter>
        <path id="W" d="M685.373 54.15c14.104 8.201 14.178 21.499.166 29.699-14.013 8.201-36.808 8.201-50.911 0-14.106-8.2-14.18-21.498-.166-29.698 14.012-8.201 36.807-8.201 50.911 0"/>
        <filter id="V" width="130.6%" height="166.7%" x="-15.3%" y="-16.7%" filterUnits="objectBoundingBox">
            <feOffset dy="10" in="SourceAlpha" result="shadowOffsetOuter1"/>
            <feGaussianBlur in="shadowOffsetOuter1" result="shadowBlurOuter1" stdDeviation="2"/>
            <feComposite in="shadowBlurOuter1" in2="SourceAlpha" operator="out" result="shadowBlurOuter1"/>
            <feColorMatrix in="shadowBlurOuter1" values="0 0 0 0 0.992156863 0 0 0 0 0.341176471 0 0 0 0 0.31372549 0 0 0 0.15 0"/>
        </filter>
        <path id="Y" d="M789.373 54.15c14.104 8.201 14.178 21.499.166 29.699-14.013 8.201-36.808 8.201-50.911 0-14.106-8.2-14.18-21.498-.166-29.698 14.012-8.201 36.807-8.201 50.911 0"/>
        <filter id="X" width="130.6%" height="166.7%" x="-15.3%" y="-16.7%" filterUnits="objectBoundingBox">
            <feOffset dy="10" in="SourceAlpha" result="shadowOffsetOuter1"/>
            <feGaussianBlur in="shadowOffsetOuter1" result="shadowBlurOuter1" stdDeviation="2"/>
            <feComposite in="shadowBlurOuter1" in2="SourceAlpha" operator="out" result="shadowBlurOuter1"/>
            <feColorMatrix in="shadowBlurOuter1" values="0 0 0 0 0.992156863 0 0 0 0 0.341176471 0 0 0 0 0.31372549 0 0 0 0.15 0"/>
        </filter>
        <path id="aa" d="M685.373 38.15c14.104 8.201 14.178 21.499.166 29.699-14.013 8.201-36.808 8.201-50.911 0-14.106-8.2-14.18-21.498-.166-29.698 14.012-8.201 36.807-8.201 50.911 0"/>
        <filter id="Z" width="130.6%" height="166.7%" x="-15.3%" y="-16.7%" filterUnits="objectBoundingBox">
            <feOffset dy="10" in="SourceAlpha" result="shadowOffsetOuter1"/>
            <feGaussianBlur in="shadowOffsetOuter1" result="shadowBlurOuter1" stdDeviation="2"/>
            <feComposite in="shadowBlurOuter1" in2="SourceAlpha" operator="out" result="shadowBlurOuter1"/>
            <feColorMatrix in="shadowBlurOuter1" values="0 0 0 0 0.992156863 0 0 0 0 0.341176471 0 0 0 0 0.31372549 0 0 0 0.15 0"/>
        </filter>
        <path id="ac" d="M685.373 22.15c14.104 8.201 14.178 21.499.166 29.699-14.013 8.201-36.808 8.201-50.911 0-14.106-8.2-14.18-21.498-.166-29.698 14.012-8.201 36.807-8.201 50.911 0"/>
        <filter id="ab" width="130.6%" height="166.7%" x="-15.3%" y="-16.7%" filterUnits="objectBoundingBox">
            <feOffset dy="10" in="SourceAlpha" result="shadowOffsetOuter1"/>
            <feGaussianBlur in="shadowOffsetOuter1" result="shadowBlurOuter1" stdDeviation="2"/>
            <feComposite in="shadowBlurOuter1" in2="SourceAlpha" operator="out" result="shadowBlurOuter1"/>
            <feColorMatrix in="shadowBlurOuter1" values="0 0 0 0 0.992156863 0 0 0 0 0.341176471 0 0 0 0 0.31372549 0 0 0 0.15 0"/>
        </filter>
        <path id="ae" d="M61.372 118.107c14.104 8.143 14.178 21.347.166 29.49-14.013 8.143-36.808 8.143-50.91 0-14.106-8.143-14.18-21.347-.167-29.49 14.012-8.143 36.807-8.143 50.911 0"/>
        <filter id="ad" width="130.6%" height="167.1%" x="-15.3%" y="-16.8%" filterUnits="objectBoundingBox">
            <feOffset dy="10" in="SourceAlpha" result="shadowOffsetOuter1"/>
            <feGaussianBlur in="shadowOffsetOuter1" result="shadowBlurOuter1" stdDeviation="2"/>
            <feComposite in="shadowBlurOuter1" in2="SourceAlpha" operator="out" result="shadowBlurOuter1"/>
            <feColorMatrix in="shadowBlurOuter1" values="0 0 0 0 0.992156863 0 0 0 0 0.341176471 0 0 0 0 0.31372549 0 0 0 0.2 0"/>
        </filter>
        <path id="ag" d="M269.372 102.107c14.104 8.143 14.178 21.347.166 29.49-14.013 8.143-36.808 8.143-50.91 0-14.106-8.143-14.18-21.347-.167-29.49 14.012-8.143 36.807-8.143 50.911 0"/>
        <filter id="af" width="130.6%" height="167.1%" x="-15.3%" y="-16.8%" filterUnits="objectBoundingBox">
            <feOffset dy="10" in="SourceAlpha" result="shadowOffsetOuter1"/>
            <feGaussianBlur in="shadowOffsetOuter1" result="shadowBlurOuter1" stdDeviation="2"/>
            <feComposite in="shadowBlurOuter1" in2="SourceAlpha" operator="out" result="shadowBlurOuter1"/>
            <feColorMatrix in="shadowBlurOuter1" values="0 0 0 0 0.992156863 0 0 0 0 0.341176471 0 0 0 0 0.31372549 0 0 0 0.2 0"/>
        </filter>
        <path id="ai" d="M165.372 86.107c14.104 8.143 14.178 21.347.166 29.49-14.013 8.143-36.808 8.143-50.91 0-14.106-8.143-14.18-21.347-.167-29.49 14.012-8.143 36.807-8.143 50.911 0"/>
        <filter id="ah" width="130.6%" height="167.1%" x="-15.3%" y="-16.8%" filterUnits="objectBoundingBox">
            <feOffset dy="10" in="SourceAlpha" result="shadowOffsetOuter1"/>
            <feGaussianBlur in="shadowOffsetOuter1" result="shadowBlurOuter1" stdDeviation="2"/>
            <feComposite in="shadowBlurOuter1" in2="SourceAlpha" operator="out" result="shadowBlurOuter1"/>
            <feColorMatrix in="shadowBlurOuter1" values="0 0 0 0 0.992156863 0 0 0 0 0.341176471 0 0 0 0 0.31372549 0 0 0 0.2 0"/>
        </filter>
        <path id="ak" d="M373.372 70.107c14.104 8.143 14.178 21.347.166 29.49-14.013 8.143-36.808 8.143-50.91 0-14.106-8.143-14.18-21.347-.167-29.49 14.012-8.143 36.807-8.143 50.911 0"/>
        <filter id="aj" width="130.6%" height="167.1%" x="-15.3%" y="-16.8%" filterUnits="objectBoundingBox">
            <feOffset dy="10" in="SourceAlpha" result="shadowOffsetOuter1"/>
            <feGaussianBlur in="shadowOffsetOuter1" result="shadowBlurOuter1" stdDeviation="2"/>
            <feComposite in="shadowBlurOuter1" in2="SourceAlpha" operator="out" result="shadowBlurOuter1"/>
            <feColorMatrix in="shadowBlurOuter1" values="0 0 0 0 0.992156863 0 0 0 0 0.341176471 0 0 0 0 0.31372549 0 0 0 0.2 0"/>
        </filter>
        <path id="am" d="M581.372 54.107c14.104 8.143 14.178 21.347.166 29.49-14.013 8.143-36.808 8.143-50.91 0-14.106-8.143-14.18-21.347-.167-29.49 14.012-8.143 36.807-8.143 50.911 0"/>
        <filter id="al" width="130.6%" height="167.1%" x="-15.3%" y="-16.8%" filterUnits="objectBoundingBox">
            <feOffset dy="10" in="SourceAlpha" result="shadowOffsetOuter1"/>
            <feGaussianBlur in="shadowOffsetOuter1" result="shadowBlurOuter1" stdDeviation="2"/>
            <feComposite in="shadowBlurOuter1" in2="SourceAlpha" operator="out" result="shadowBlurOuter1"/>
            <feColorMatrix in="shadowBlurOuter1" values="0 0 0 0 0.992156863 0 0 0 0 0.341176471 0 0 0 0 0.31372549 0 0 0 0.2 0"/>
        </filter>
        <path id="ao" d="M477.372 38.107c14.104 8.143 14.178 21.347.166 29.49-14.013 8.143-36.808 8.143-50.91 0-14.106-8.143-14.18-21.347-.167-29.49 14.012-8.143 36.807-8.143 50.911 0"/>
        <filter id="an" width="130.6%" height="167.1%" x="-15.3%" y="-16.8%" filterUnits="objectBoundingBox">
            <feOffset dy="10" in="SourceAlpha" result="shadowOffsetOuter1"/>
            <feGaussianBlur in="shadowOffsetOuter1" result="shadowBlurOuter1" stdDeviation="2"/>
            <feComposite in="shadowBlurOuter1" in2="SourceAlpha" operator="out" result="shadowBlurOuter1"/>
            <feColorMatrix in="shadowBlurOuter1" values="0 0 0 0 0.992156863 0 0 0 0 0.341176471 0 0 0 0 0.31372549 0 0 0 0.2 0"/>
        </filter>
        <path id="aq" d="M789.372 38.107c14.104 8.143 14.178 21.347.166 29.49-14.013 8.143-36.808 8.143-50.91 0-14.106-8.143-14.18-21.347-.167-29.49 14.012-8.143 36.807-8.143 50.911 0"/>
        <filter id="ap" width="130.6%" height="167.1%" x="-15.3%" y="-16.8%" filterUnits="objectBoundingBox">
            <feOffset dy="10" in="SourceAlpha" result="shadowOffsetOuter1"/>
            <feGaussianBlur in="shadowOffsetOuter1" result="shadowBlurOuter1" stdDeviation="2"/>
            <feComposite in="shadowBlurOuter1" in2="SourceAlpha" operator="out" result="shadowBlurOuter1"/>
            <feColorMatrix in="shadowBlurOuter1" values="0 0 0 0 0.992156863 0 0 0 0 0.341176471 0 0 0 0 0.31372549 0 0 0 0.2 0"/>
        </filter>
        <path id="as" d="M685.372 6.107c14.104 8.143 14.178 21.347.166 29.49-14.013 8.143-36.808 8.143-50.91 0-14.106-8.143-14.18-21.347-.167-29.49 14.012-8.143 36.807-8.143 50.911 0"/>
        <filter id="ar" width="130.6%" height="167.1%" x="-15.3%" y="-16.8%" filterUnits="objectBoundingBox">
            <feOffset dy="10" in="SourceAlpha" result="shadowOffsetOuter1"/>
            <feGaussianBlur in="shadowOffsetOuter1" result="shadowBlurOuter1" stdDeviation="2"/>
            <feComposite in="shadowBlurOuter1" in2="SourceAlpha" operator="out" result="shadowBlurOuter1"/>
            <feColorMatrix in="shadowBlurOuter1" values="0 0 0 0 0.992156863 0 0 0 0 0.341176471 0 0 0 0 0.31372549 0 0 0 0.2 0"/>
        </filter>
    </defs>
    <g fill="none" fill-rule="evenodd">
        <g opacity=".5" transform="translate(4)">
            <use fill="#000" filter="url(#a)" xlink:href="#b"/>
            <path fill="#FFF" fill-opacity=".2" stroke="url(#c)" stroke-linejoin="square" d="M269.122 118.583c-13.949-8.11-36.551-8.11-50.408 0-13.682 8.006-13.61 20.826.165 28.833 13.948 8.112 36.55 8.112 50.408.001 13.68-8.006 13.609-20.825-.165-28.834z"/>
        </g>
        <g opacity=".5" transform="translate(4)">
            <use fill="#000" filter="url(#d)" xlink:href="#e"/>
            <path fill="#FFF" fill-opacity=".2" stroke="url(#c)" stroke-linejoin="square" d="M477.122 118.583c-13.949-8.11-36.551-8.11-50.408 0-13.682 8.006-13.61 20.826.165 28.833 13.948 8.112 36.55 8.112 50.408.001 13.68-8.006 13.609-20.825-.165-28.834z"/>
        </g>
        <g opacity=".5" transform="translate(4)">
            <use fill="#000" filter="url(#f)" xlink:href="#g"/>
            <path fill="#FFF" fill-opacity=".2" stroke="url(#c)" stroke-linejoin="square" d="M165.122 118.583c-13.949-8.11-36.551-8.11-50.408 0-13.682 8.006-13.61 20.826.165 28.833 13.948 8.112 36.55 8.112 50.408.001 13.68-8.006 13.609-20.825-.165-28.834z"/>
        </g>
        <g opacity=".5" transform="translate(4)">
            <use fill="#000" filter="url(#h)" xlink:href="#i"/>
            <path fill="#FFF" fill-opacity=".2" stroke="url(#c)" stroke-linejoin="square" d="M373.122 118.583c-13.949-8.11-36.551-8.11-50.408 0-13.682 8.006-13.61 20.826.165 28.833 13.948 8.112 36.55 8.112 50.408.001 13.68-8.006 13.609-20.825-.165-28.834z"/>
        </g>
        <g opacity=".5" transform="translate(4)">
            <use fill="#000" filter="url(#j)" xlink:href="#k"/>
            <path fill="#FFF" fill-opacity=".2" stroke="url(#c)" stroke-linejoin="square" d="M581.122 118.583c-13.949-8.11-36.551-8.11-50.408 0-13.682 8.006-13.61 20.826.165 28.833 13.948 8.112 36.55 8.112 50.408.001 13.68-8.006 13.609-20.825-.165-28.834z"/>
        </g>
        <g opacity=".5" transform="translate(4)">
            <use fill="#000" filter="url(#l)" xlink:href="#m"/>
            <path fill="#FFF" fill-opacity=".2" stroke="url(#c)" stroke-linejoin="square" d="M685.122 118.583c-13.949-8.11-36.551-8.11-50.408 0-13.682 8.006-13.61 20.826.165 28.833 13.948 8.112 36.55 8.112 50.408.001 13.68-8.006 13.609-20.825-.165-28.834z"/>
        </g>
        <g opacity=".5" transform="translate(4)">
            <use fill="#000" filter="url(#n)" xlink:href="#o"/>
            <path fill="#FFF" fill-opacity=".2" stroke="url(#c)" stroke-linejoin="square" d="M789.122 118.583c-13.949-8.11-36.551-8.11-50.408 0-13.682 8.006-13.61 20.826.165 28.833 13.948 8.112 36.55 8.112 50.408.001 13.68-8.006 13.609-20.825-.165-28.834z"/>
        </g>
        <g opacity=".5" transform="translate(4)">
            <use fill="#000" filter="url(#p)" xlink:href="#q"/>
            <path fill="#FFF" fill-opacity=".2" stroke="url(#c)" stroke-linejoin="square" d="M477.122 102.583c-13.949-8.11-36.551-8.11-50.408 0-13.682 8.006-13.61 20.826.165 28.833 13.948 8.112 36.55 8.112 50.408.001 13.68-8.006 13.609-20.825-.165-28.834z"/>
        </g>
        <g opacity=".5" transform="translate(4)">
            <use fill="#000" filter="url(#r)" xlink:href="#s"/>
            <path fill="#FFF" fill-opacity=".2" stroke="url(#c)" stroke-linejoin="square" d="M165.122 102.583c-13.949-8.11-36.551-8.11-50.408 0-13.682 8.006-13.61 20.826.165 28.833 13.948 8.112 36.55 8.112 50.408.001 13.68-8.006 13.609-20.825-.165-28.834z"/>
        </g>
        <g opacity=".5" transform="translate(4)">
            <use fill="#000" filter="url(#t)" xlink:href="#u"/>
            <path fill="#FFF" fill-opacity=".2" stroke="url(#c)" stroke-linejoin="square" d="M373.122 102.583c-13.949-8.11-36.551-8.11-50.408 0-13.682 8.006-13.61 20.826.165 28.833 13.948 8.112 36.55 8.112 50.408.001 13.68-8.006 13.609-20.825-.165-28.834z"/>
        </g>
        <g opacity=".5" transform="translate(4)">
            <use fill="#000" filter="url(#v)" xlink:href="#w"/>
            <path fill="#FFF" fill-opacity=".2" stroke="url(#c)" stroke-linejoin="square" d="M581.122 102.583c-13.949-8.11-36.551-8.11-50.408 0-13.682 8.006-13.61 20.826.165 28.833 13.948 8.112 36.55 8.112 50.408.001 13.68-8.006 13.609-20.825-.165-28.834z"/>
        </g>
        <g opacity=".5" transform="translate(4)">
            <use fill="#000" filter="url(#x)" xlink:href="#y"/>
            <path fill="#FFF" fill-opacity=".2" stroke="url(#c)" stroke-linejoin="square" d="M685.122 102.583c-13.949-8.11-36.551-8.11-50.408 0-13.682 8.006-13.61 20.826.165 28.833 13.948 8.112 36.55 8.112 50.408.001 13.68-8.006 13.609-20.825-.165-28.834z"/>
        </g>
        <g opacity=".5" transform="translate(4)">
            <use fill="#000" filter="url(#z)" xlink:href="#A"/>
            <path fill="#FFF" fill-opacity=".2" stroke="url(#c)" stroke-linejoin="square" d="M789.122 102.583c-13.949-8.11-36.551-8.11-50.408 0-13.682 8.006-13.61 20.826.165 28.833 13.948 8.112 36.55 8.112 50.408.001 13.68-8.006 13.609-20.825-.165-28.834z"/>
        </g>
        <g opacity=".5" transform="translate(4)">
            <use fill="#000" filter="url(#B)" xlink:href="#C"/>
            <path fill="#FFF" fill-opacity=".2" stroke="url(#c)" stroke-linejoin="square" d="M477.122 86.583c-13.949-8.11-36.551-8.11-50.408 0-13.682 8.006-13.61 20.826.165 28.833 13.948 8.112 36.55 8.112 50.408.001 13.68-8.006 13.609-20.825-.165-28.834z"/>
        </g>
        <g opacity=".5" transform="translate(4)">
            <use fill="#000" filter="url(#D)" xlink:href="#E"/>
            <path fill="#FFF" fill-opacity=".2" stroke="url(#c)" stroke-linejoin="square" d="M373.122 86.583c-13.949-8.11-36.551-8.11-50.408 0-13.682 8.006-13.61 20.826.165 28.833 13.948 8.112 36.55 8.112 50.408.001 13.68-8.006 13.609-20.825-.165-28.834z"/>
        </g>
        <g opacity=".5" transform="translate(4)">
            <use fill="#000" filter="url(#F)" xlink:href="#G"/>
            <path fill="#FFF" fill-opacity=".2" stroke="url(#c)" stroke-linejoin="square" d="M581.122 86.583c-13.949-8.11-36.551-8.11-50.408 0-13.682 8.006-13.61 20.826.165 28.833 13.948 8.112 36.55 8.112 50.408.001 13.68-8.006 13.609-20.825-.165-28.834z"/>
        </g>
        <g opacity=".5" transform="translate(4)">
            <use fill="#000" filter="url(#H)" xlink:href="#I"/>
            <path fill="#FFF" fill-opacity=".2" stroke="url(#c)" stroke-linejoin="square" d="M685.122 86.583c-13.949-8.11-36.551-8.11-50.408 0-13.682 8.006-13.61 20.826.165 28.833 13.948 8.112 36.55 8.112 50.408.001 13.68-8.006 13.609-20.825-.165-28.834z"/>
        </g>
        <g opacity=".5" transform="translate(4)">
            <use fill="#000" filter="url(#J)" xlink:href="#K"/>
            <path fill="#FFF" fill-opacity=".2" stroke="url(#c)" stroke-linejoin="square" d="M789.122 86.583c-13.949-8.11-36.551-8.11-50.408 0-13.682 8.006-13.61 20.826.165 28.833 13.948 8.112 36.55 8.112 50.408.001 13.68-8.006 13.609-20.825-.165-28.834z"/>
        </g>
        <g opacity=".5" transform="translate(4)">
            <use fill="#000" filter="url(#L)" xlink:href="#M"/>
            <path fill="#FFF" fill-opacity=".2" stroke="url(#c)" stroke-linejoin="square" d="M477.122 70.583c-13.949-8.11-36.551-8.11-50.408 0-13.682 8.006-13.61 20.826.165 28.833 13.948 8.112 36.55 8.112 50.408.001 13.68-8.006 13.609-20.825-.165-28.834z"/>
        </g>
        <g opacity=".5" transform="translate(4)">
            <use fill="#000" filter="url(#N)" xlink:href="#O"/>
            <path fill="#FFF" fill-opacity=".2" stroke="url(#c)" stroke-linejoin="square" d="M581.122 70.583c-13.949-8.11-36.551-8.11-50.408 0-13.682 8.006-13.61 20.826.165 28.833 13.948 8.112 36.55 8.112 50.408.001 13.68-8.006 13.609-20.825-.165-28.834z"/>
        </g>
        <g opacity=".5" transform="translate(4)">
            <use fill="#000" filter="url(#P)" xlink:href="#Q"/>
            <path fill="#FFF" fill-opacity=".2" stroke="url(#c)" stroke-linejoin="square" d="M685.122 70.583c-13.949-8.11-36.551-8.11-50.408 0-13.682 8.006-13.61 20.826.165 28.833 13.948 8.112 36.55 8.112 50.408.001 13.68-8.006 13.609-20.825-.165-28.834z"/>
        </g>
        <g opacity=".5" transform="translate(4)">
            <use fill="#000" filter="url(#R)" xlink:href="#S"/>
            <path fill="#FFF" fill-opacity=".2" stroke="url(#c)" stroke-linejoin="square" d="M789.122 70.583c-13.949-8.11-36.551-8.11-50.408 0-13.682 8.006-13.61 20.826.165 28.833 13.948 8.112 36.55 8.112 50.408.001 13.68-8.006 13.609-20.825-.165-28.834z"/>
        </g>
        <g opacity=".5" transform="translate(4)">
            <use fill="#000" filter="url(#T)" xlink:href="#U"/>
            <path fill="#FFF" fill-opacity=".2" stroke="url(#c)" stroke-linejoin="square" d="M477.122 54.583c-13.949-8.11-36.551-8.11-50.408 0-13.682 8.006-13.61 20.826.165 28.833 13.948 8.112 36.55 8.112 50.408.001 13.68-8.006 13.609-20.825-.165-28.834z"/>
        </g>
        <g opacity=".5" transform="translate(4)">
            <use fill="#000" filter="url(#V)" xlink:href="#W"/>
            <path fill="#FFF" fill-opacity=".2" stroke="url(#c)" stroke-linejoin="square" d="M685.122 54.583c-13.949-8.11-36.551-8.11-50.408 0-13.682 8.006-13.61 20.826.165 28.833 13.948 8.112 36.55 8.112 50.408.001 13.68-8.006 13.609-20.825-.165-28.834z"/>
        </g>
        <g opacity=".5" transform="translate(4)">
            <use fill="#000" filter="url(#X)" xlink:href="#Y"/>
            <path fill="#FFF" fill-opacity=".2" stroke="url(#c)" stroke-linejoin="square" d="M789.122 54.583c-13.949-8.11-36.551-8.11-50.408 0-13.682 8.006-13.61 20.826.165 28.833 13.948 8.112 36.55 8.112 50.408.001 13.68-8.006 13.609-20.825-.165-28.834z"/>
        </g>
        <g opacity=".5" transform="translate(4)">
            <use fill="#000" filter="url(#Z)" xlink:href="#aa"/>
            <path fill="#FFF" fill-opacity=".2" stroke="url(#c)" stroke-linejoin="square" d="M685.122 38.583c-13.949-8.11-36.551-8.11-50.408 0-13.682 8.006-13.61 20.826.165 28.833 13.948 8.112 36.55 8.112 50.408.001 13.68-8.006 13.609-20.825-.165-28.834z"/>
        </g>
        <g opacity=".5" transform="translate(4)">
            <use fill="#000" filter="url(#ab)" xlink:href="#ac"/>
            <path fill="#FFF" fill-opacity=".2" stroke="url(#c)" stroke-linejoin="square" d="M685.122 22.583c-13.949-8.11-36.551-8.11-50.408 0-13.682 8.006-13.61 20.826.165 28.833 13.948 8.112 36.55 8.112 50.408.001 13.68-8.006 13.609-20.825-.165-28.834z"/>
        </g>
        <g transform="translate(4)">
            <use fill="#000" filter="url(#ad)" xlink:href="#ae"/>
            <path fill="#FD5750" fill-opacity=".2" stroke="url(#c)" stroke-linejoin="square" d="M61.122 118.54c-13.949-8.053-36.553-8.053-50.41 0-13.68 7.949-13.608 20.673.165 28.623 13.948 8.055 36.552 8.055 50.41.001 13.679-7.948 13.607-20.672-.165-28.624z"/>
        </g>
        <g transform="translate(4)">
            <use fill="#000" filter="url(#af)" xlink:href="#ag"/>
            <path fill="#FD5750" fill-opacity=".2" stroke="url(#c)" stroke-linejoin="square" d="M269.122 102.54c-13.949-8.053-36.553-8.053-50.41 0-13.68 7.949-13.608 20.673.165 28.623 13.948 8.055 36.552 8.055 50.41.001 13.679-7.948 13.607-20.672-.165-28.624z"/>
        </g>
        <g transform="translate(4)">
            <use fill="#000" filter="url(#ah)" xlink:href="#ai"/>
            <path fill="#FD5750" fill-opacity=".2" stroke="url(#c)" stroke-linejoin="square" d="M165.122 86.54c-13.949-8.053-36.553-8.053-50.41 0-13.68 7.949-13.608 20.673.165 28.623 13.948 8.055 36.552 8.055 50.41.001 13.679-7.948 13.607-20.672-.165-28.624z"/>
        </g>
        <g transform="translate(4)">
            <use fill="#000" filter="url(#aj)" xlink:href="#ak"/>
            <path fill="#FD5750" fill-opacity=".2" stroke="url(#c)" stroke-linejoin="square" d="M373.122 70.54c-13.949-8.053-36.553-8.053-50.41 0-13.68 7.949-13.608 20.673.165 28.623 13.948 8.055 36.552 8.055 50.41.001 13.679-7.948 13.607-20.672-.165-28.624z"/>
        </g>
        <g transform="translate(4)">
            <use fill="#000" filter="url(#al)" xlink:href="#am"/>
            <path fill="#FD5750" fill-opacity=".2" stroke="url(#c)" stroke-linejoin="square" d="M581.122 54.54c-13.949-8.053-36.553-8.053-50.41 0-13.68 7.949-13.608 20.673.165 28.623 13.948 8.055 36.552 8.055 50.41.001 13.679-7.948 13.607-20.672-.165-28.624z"/>
        </g>
        <g transform="translate(4)">
            <use fill="#000" filter="url(#an)" xlink:href="#ao"/>
            <path fill="#FD5750" fill-opacity=".2" stroke="url(#c)" stroke-linejoin="square" d="M477.122 38.54c-13.949-8.053-36.553-8.053-50.41 0-13.68 7.949-13.608 20.673.165 28.623 13.948 8.055 36.552 8.055 50.41.001 13.679-7.948 13.607-20.672-.165-28.624z"/>
        </g>
        <g transform="translate(4)">
            <use fill="#000" filter="url(#ap)" xlink:href="#aq"/>
            <path fill="#FD5750" fill-opacity=".2" stroke="url(#c)" stroke-linejoin="square" d="M789.122 38.54c-13.949-8.053-36.553-8.053-50.41 0-13.68 7.949-13.608 20.673.165 28.623 13.948 8.055 36.552 8.055 50.41.001 13.679-7.948 13.607-20.672-.165-28.624z"/>
        </g>
        <g transform="translate(4)">
            <use fill="#000" filter="url(#ar)" xlink:href="#as"/>
            <path fill="#FD5750" fill-opacity=".2" stroke="url(#c)" stroke-linejoin="square" d="M685.122 6.54c-13.949-8.053-36.553-8.053-50.41 0-13.68 7.949-13.608 20.673.165 28.623 13.948 8.055 36.552 8.055 50.41.001 13.679-7.948 13.607-20.672-.165-28.624z"/>
        </g>
    </g>
</svg>
