<svg xmlns="http://www.w3.org/2000/svg" width="20" height="18" viewBox="0 0 20 18">
    <path fill="#000" fill-rule="evenodd" d="M20 18h-4.42v-6.328c0-1.656-.692-2.787-2.212-2.787-1.163 0-1.81.763-2.11 1.499-.114.264-.096.631-.096.999V18h-4.38s.057-11.209 0-12.228h4.38v1.92c.259-.84 1.658-2.037 3.89-2.037C17.824 5.655 20 7.413 20 11.2V18zM2.354 4.243h-.028C.915 4.243 0 3.308 0 2.123 0 .915.942 0 2.381 0c1.438 0 2.323.913 2.35 2.12 0 1.184-.912 2.123-2.377 2.123zm-1.85 1.53h3.899V18H.504V5.772z"/>
</svg>
