<svg xmlns="http://www.w3.org/2000/svg" width="20" height="20" viewBox="0 0 20 20">
    <path fill="#000" fill-rule="nonzero" d="M18.233 1.767a6.033 6.033 0 0 0-8.532 0L7.125 4.345l1.421 1.42 2.578-2.575a4.02 4.02 0 0 1 5.688 0 4.028 4.028 0 0 1 0 5.688l-2.578 2.576 1.422 1.423 2.577-2.579a6.033 6.033 0 0 0 0-8.53zm-9.42 15.109a3.993 3.993 0 0 1-2.844 1.177 3.993 3.993 0 0 1-2.844-1.177 4.025 4.025 0 0 1 0-5.689l2.578-2.576L4.28 7.188 1.702 9.766a6.034 6.034 0 0 0 8.534 8.532l2.576-2.577-1.423-1.423-2.577 2.578h.001zM12.238 6.34l1.422 1.421-5.977 5.978-1.422-1.422 5.977-5.977z"/>
</svg>
