<svg xmlns="http://www.w3.org/2000/svg" width="20" height="20" viewBox="0 0 20 20">
    <path fill="#12100E" fill-rule="evenodd" d="M16.615 4.739l-1.072 1.028a.314.314 0 0 0-.12.301v7.556c-.019.115.027.23.12.301l1.047 1.029v.225h-5.269v-.225l1.085-1.054c.107-.106.107-.138.107-.3V7.49l-3.017 7.663h-.408L5.576 7.491v5.136a.709.709 0 0 0 .194.59l1.411 1.712v.225H3.18v-.225l1.412-1.712a.683.683 0 0 0 .182-.59V6.69a.52.52 0 0 0-.17-.44L3.35 4.74v-.226h3.895l3.011 6.603 2.647-6.603h3.713v.226zM0 20h20V0H0v20z"/>
</svg>
