<svg xmlns="http://www.w3.org/2000/svg" xmlns:xlink="http://www.w3.org/1999/xlink" width="280" height="41" viewBox="0 0 280 41">
    <defs>
        <path id="a" d="M0 0h279.824v40.913H0z"/>
    </defs>
    <g fill="none" fill-rule="evenodd">
        <mask id="b" fill="#fff">
            <use xlink:href="#a"/>
        </mask>
        <path fill="#8B5CDD" d="M84.616 29.31V15.266c0-5.495 4.491-9.945 10.038-9.945 5.547 0 10.038 4.536 10.038 10.12 0 5.495-4.49 10.032-10.038 10.032v.086c-3.874-.086-7.396 1.397-10.038 3.751m18.58-1.22c4.05-2.792 6.69-7.415 6.69-12.65 0-8.462-6.867-15.265-15.32-15.265-8.365 0-15.233 6.803-15.233 15.09v25.298h5.283c0-5.494 4.491-9.944 10.038-9.944h.176c5.46.088 9.862 4.45 9.862 9.944h5.195c0-5.146-2.642-9.77-6.692-12.473M279.824 8.112V.523h-5.195v7.59c0 5.495-4.49 9.945-10.038 9.945-5.547 0-10.037-4.45-10.037-9.946V.523h-5.195v7.59c0 5.233 2.641 9.77 6.691 12.562a15.06 15.06 0 0 0-6.691 12.56v7.678h5.195V33.15c0-5.495 4.49-9.945 10.037-9.945 5.547 0 10.038 4.45 10.038 9.945v7.676h5.195V33.15c0-5.234-2.642-9.77-6.692-12.562 4.05-2.704 6.692-7.327 6.692-12.475m-56.176 17.186c-3.874 0-7.308 1.395-10.038 3.75V15.267c0-5.495 4.49-9.945 10.038-9.945 5.547 0 10.038 4.45 10.038 9.945v13.783c-2.642-2.268-6.164-3.751-10.038-3.751m0-25.123c-8.365 0-15.233 6.803-15.233 15.09v25.298h5.195v-.174c0-5.496 4.49-9.944 10.038-9.944 5.547 0 10.038 4.448 10.038 9.944v.174h5.195V15.266C238.969 6.978 232.1.175 223.648.175m-88.843 25.123c-3.874 0-7.308 1.395-10.038 3.75V15.267c0-5.495 4.49-9.945 10.038-9.945 5.547 0 10.038 4.45 10.038 9.945v13.783c-2.73-2.268-6.252-3.751-10.038-3.751m0-25.123c-8.365 0-15.233 6.803-15.233 15.09v25.298h5.195v-.174c0-5.496 4.49-9.944 10.038-9.944 5.547 0 10.038 4.448 10.038 9.944v.174h5.195V15.266c0-8.288-6.868-15.091-15.233-15.091M54.063 25.298c-3.874 0-7.396 1.483-10.038 3.75V15.267c0-5.495 4.49-9.945 10.038-9.945 5.547 0 10.038 4.45 10.038 9.945v13.783c-2.73-2.268-6.252-3.751-10.038-3.751m0-25.123c-8.453 0-15.32 6.803-15.32 15.09v25.298h5.282v-.174c0-5.408 4.49-9.857 10.038-9.857 5.547 0 10.038 4.449 10.038 9.945v.174h5.195V15.353c0-8.375-6.868-15.178-15.233-15.178m-38.83 24.948c-3.786 0-7.308 1.483-10.038 3.751V15.266c0-5.495 4.49-9.945 10.038-9.945 5.547 0 10.038 4.45 10.038 9.945 0 5.409-4.491 9.857-10.038 9.857m0-24.948C6.868.175 0 6.891 0 15.265v25.038h5.195c0-5.496 4.579-9.946 10.038-9.946 8.365 0 15.232-6.804 15.232-15.091 0-8.375-6.78-15.091-15.232-15.091m173.811 25.123V0h-5.195v25.298c0 8.374 6.868 15.091 15.233 15.091v-5.146c-5.547 0-10.038-4.45-10.038-9.945m-23.245 0V0h-5.195v25.298c0 8.374 6.868 15.091 15.233 15.091v-5.146c-5.548 0-10.038-4.45-10.038-9.945" mask="url(#b)"/>
    </g>
</svg>
