<svg xmlns="http://www.w3.org/2000/svg" width="98" height="38" viewBox="0 0 98 38">
    <g fill="#FD5750" fill-rule="evenodd">
        <circle cx="1" cy="1" r="1"/>
        <circle cx="73" cy="1" r="1"/>
        <circle cx="37" cy="1" r="1"/>
        <circle cx="19" cy="1" r="1"/>
        <circle cx="91" cy="1" r="1"/>
        <circle cx="55" cy="1" r="1"/>
        <circle cx="7" cy="1" r="1"/>
        <circle cx="79" cy="1" r="1"/>
        <circle cx="43" cy="1" r="1"/>
        <circle cx="25" cy="1" r="1"/>
        <circle cx="97" cy="1" r="1"/>
        <circle cx="61" cy="1" r="1"/>
        <circle cx="13" cy="1" r="1"/>
        <circle cx="85" cy="1" r="1"/>
        <circle cx="49" cy="1" r="1"/>
        <circle cx="31" cy="1" r="1"/>
        <circle cx="67" cy="1" r="1"/>
        <circle cx="1" cy="37" r="1"/>
        <circle cx="73" cy="37" r="1"/>
        <circle cx="37" cy="37" r="1"/>
        <circle cx="19" cy="37" r="1"/>
        <circle cx="91" cy="37" r="1"/>
        <circle cx="55" cy="37" r="1"/>
        <circle cx="7" cy="37" r="1"/>
        <circle cx="79" cy="37" r="1"/>
        <circle cx="43" cy="37" r="1"/>
        <circle cx="25" cy="37" r="1"/>
        <circle cx="97" cy="37" r="1"/>
        <circle cx="61" cy="37" r="1"/>
        <circle cx="13" cy="37" r="1"/>
        <circle cx="85" cy="37" r="1"/>
        <circle cx="49" cy="37" r="1"/>
        <circle cx="31" cy="37" r="1"/>
        <circle cx="67" cy="37" r="1"/>
        <circle cx="1" cy="19" r="1"/>
        <circle cx="73" cy="19" r="1"/>
        <circle cx="37" cy="19" r="1"/>
        <circle cx="19" cy="19" r="1"/>
        <circle cx="91" cy="19" r="1"/>
        <circle cx="55" cy="19" r="1"/>
        <circle cx="7" cy="19" r="1"/>
        <circle cx="79" cy="19" r="1"/>
        <circle cx="43" cy="19" r="1"/>
        <circle cx="25" cy="19" r="1"/>
        <circle cx="97" cy="19" r="1"/>
        <circle cx="61" cy="19" r="1"/>
        <circle cx="13" cy="19" r="1"/>
        <circle cx="85" cy="19" r="1"/>
        <circle cx="49" cy="19" r="1"/>
        <circle cx="31" cy="19" r="1"/>
        <circle cx="67" cy="19" r="1"/>
        <circle cx="1" cy="7" r="1"/>
        <circle cx="73" cy="7" r="1"/>
        <circle cx="37" cy="7" r="1"/>
        <circle cx="19" cy="7" r="1"/>
        <circle cx="91" cy="7" r="1"/>
        <circle cx="55" cy="7" r="1"/>
        <circle cx="7" cy="7" r="1"/>
        <circle cx="79" cy="7" r="1"/>
        <circle cx="43" cy="7" r="1"/>
        <circle cx="25" cy="7" r="1"/>
        <circle cx="97" cy="7" r="1"/>
        <circle cx="61" cy="7" r="1"/>
        <circle cx="13" cy="7" r="1"/>
        <circle cx="85" cy="7" r="1"/>
        <circle cx="49" cy="7" r="1"/>
        <circle cx="31" cy="7" r="1"/>
        <circle cx="67" cy="7" r="1"/>
        <circle cx="1" cy="25" r="1"/>
        <circle cx="73" cy="25" r="1"/>
        <circle cx="37" cy="25" r="1"/>
        <circle cx="19" cy="25" r="1"/>
        <circle cx="91" cy="25" r="1"/>
        <circle cx="55" cy="25" r="1"/>
        <circle cx="7" cy="25" r="1"/>
        <circle cx="79" cy="25" r="1"/>
        <circle cx="43" cy="25" r="1"/>
        <circle cx="25" cy="25" r="1"/>
        <circle cx="97" cy="25" r="1"/>
        <circle cx="61" cy="25" r="1"/>
        <circle cx="13" cy="25" r="1"/>
        <circle cx="85" cy="25" r="1"/>
        <circle cx="49" cy="25" r="1"/>
        <circle cx="31" cy="25" r="1"/>
        <circle cx="67" cy="25" r="1"/>
        <circle cx="1" cy="13" r="1"/>
        <circle cx="73" cy="13" r="1"/>
        <circle cx="37" cy="13" r="1"/>
        <circle cx="19" cy="13" r="1"/>
        <circle cx="91" cy="13" r="1"/>
        <circle cx="55" cy="13" r="1"/>
        <circle cx="7" cy="13" r="1"/>
        <circle cx="79" cy="13" r="1"/>
        <circle cx="43" cy="13" r="1"/>
        <circle cx="25" cy="13" r="1"/>
        <circle cx="97" cy="13" r="1"/>
        <circle cx="61" cy="13" r="1"/>
        <circle cx="13" cy="13" r="1"/>
        <circle cx="85" cy="13" r="1"/>
        <circle cx="49" cy="13" r="1"/>
        <circle cx="31" cy="13" r="1"/>
        <circle cx="67" cy="13" r="1"/>
        <circle cx="1" cy="31" r="1"/>
        <circle cx="73" cy="31" r="1"/>
        <circle cx="37" cy="31" r="1"/>
        <circle cx="19" cy="31" r="1"/>
        <circle cx="91" cy="31" r="1"/>
        <circle cx="55" cy="31" r="1"/>
        <circle cx="7" cy="31" r="1"/>
        <circle cx="79" cy="31" r="1"/>
        <circle cx="43" cy="31" r="1"/>
        <circle cx="25" cy="31" r="1"/>
        <circle cx="97" cy="31" r="1"/>
        <circle cx="61" cy="31" r="1"/>
        <circle cx="13" cy="31" r="1"/>
        <circle cx="85" cy="31" r="1"/>
        <circle cx="49" cy="31" r="1"/>
        <circle cx="31" cy="31" r="1"/>
        <circle cx="67" cy="31" r="1"/>
    </g>
</svg>
