<svg xmlns="http://www.w3.org/2000/svg" width="20" height="17" viewBox="0 0 20 17">
    <path fill="#000" fill-rule="evenodd" d="M20 2.012a7.894 7.894 0 0 1-2.356.676A4.271 4.271 0 0 0 19.448.314a7.989 7.989 0 0 1-2.607 1.04A4.012 4.012 0 0 0 13.846 0c-2.264 0-4.101 1.922-4.101 4.291 0 .337.035.663.105.978-3.41-.18-6.433-1.886-8.458-4.486a4.438 4.438 0 0 0-.555 2.16c0 1.488.724 2.802 1.825 3.572A3.97 3.97 0 0 1 .803 5.98v.053c0 2.08 1.415 3.815 3.293 4.208a3.84 3.84 0 0 1-1.081.15 3.91 3.91 0 0 1-.773-.076c.523 1.705 2.037 2.946 3.833 2.98A8.004 8.004 0 0 1 0 15.072 11.265 11.265 0 0 0 6.29 17c7.548 0 11.674-6.538 11.674-12.21 0-.187-.003-.373-.01-.556A8.523 8.523 0 0 0 20 2.012"/>
</svg>
